G04*
G04 #@! TF.GenerationSoftware,Altium Limited,Altium Designer,20.0.9 (164)*
G04*
G04 Layer_Physical_Order=2*
G04 Layer_Color=16711680*
%FSLAX25Y25*%
%MOIN*%
G70*
G01*
G75*
%ADD20R,0.05906X0.05906*%
%ADD38C,0.02000*%
%ADD39C,0.07000*%
%ADD40R,0.07000X0.07000*%
%ADD41C,0.16500*%
%ADD42C,0.04724*%
%ADD43C,0.05906*%
%ADD44R,0.05906X0.05906*%
%ADD45C,0.05512*%
%ADD46R,0.04661X0.04661*%
%ADD47C,0.04661*%
%ADD48R,0.07284X0.07284*%
%ADD49C,0.07284*%
%ADD50C,0.06500*%
D20*
X377750Y-40250D02*
D03*
X329750Y-119750D02*
D03*
X301750Y-204250D02*
D03*
X353250Y-241250D02*
D03*
X470000Y-145000D02*
D03*
D38*
X365750Y-169250D02*
X375450D01*
X376450Y-168250D01*
X386250D01*
X87000Y-16000D02*
X93250D01*
X93500Y-16250D01*
X99750D01*
X231250Y-267750D02*
X236750Y-262250D01*
X202250Y-267750D02*
X231250D01*
X196750Y-262250D02*
X202250Y-267750D01*
X3750Y-17750D02*
X12350Y-9150D01*
X80150D01*
X87000Y-16000D01*
X217750Y-15250D02*
X222750Y-20250D01*
X197750Y-15250D02*
X217750D01*
X194250Y-18750D02*
X197750Y-15250D01*
X164750Y-18750D02*
X194250D01*
X114150Y-14750D02*
X149250D01*
X112650Y-16250D02*
X114150Y-14750D01*
X99750Y-16250D02*
X112650D01*
X118250Y-21250D02*
X154950D01*
X157450Y-18750D01*
X164750D01*
X76950Y-35950D02*
X87000Y-46000D01*
X57050Y-35950D02*
X76950D01*
X51500Y-41500D02*
X57050Y-35950D01*
X192002Y-149250D02*
X212002Y-129250D01*
X252750D01*
X293750Y-239250D02*
X316750Y-262250D01*
X252750Y-239250D02*
X293750D01*
X274650Y-37150D02*
X282750Y-45250D01*
X239650Y-37150D02*
X274650D01*
X222750Y-20250D02*
X239650Y-37150D01*
X301750Y-178659D02*
X324341Y-201250D01*
X353250D01*
X252750Y-229250D02*
X255250Y-231750D01*
X296250D01*
X326750Y-262250D01*
X265750Y-106250D02*
X280750D01*
X252750Y-119250D02*
X265750Y-106250D01*
X17250Y-74750D02*
X44850Y-47150D01*
X65850D01*
X71500Y-41500D01*
X324250Y-119750D02*
X329750D01*
X310750Y-106250D02*
X324250Y-119750D01*
X337000Y-71000D02*
X347000D01*
X377750Y-40250D01*
X411500Y-53500D02*
Y-26000D01*
X405750Y-20250D02*
X411500Y-26000D01*
X377750Y-20250D02*
X405750D01*
X351250Y-124750D02*
X365750Y-139250D01*
X319250Y-124750D02*
X351250D01*
X310750Y-116250D02*
X319250Y-124750D01*
X187650Y-233602D02*
X192002Y-229250D01*
X187650Y-243850D02*
Y-233602D01*
Y-243850D02*
X195850Y-252050D01*
X217050D01*
X220850Y-255850D01*
X290350D01*
X296750Y-262250D01*
X164750Y-38750D02*
X170919Y-44919D01*
X196333D01*
Y-72250D02*
Y-44919D01*
X193733Y-74850D02*
X196333Y-72250D01*
X189750Y-74850D02*
X193733D01*
X187650Y-76950D02*
X189750Y-74850D01*
X187650Y-94898D02*
Y-76950D01*
Y-94898D02*
X192002Y-99250D01*
Y-89250D02*
X199333Y-81919D01*
Y-41919D01*
X189364Y-31950D02*
X199333Y-41919D01*
X127550Y-31950D02*
X189364D01*
X118250Y-41250D02*
X127550Y-31950D01*
X192002Y-62498D02*
Y-59250D01*
X110250Y-144250D02*
X192002Y-62498D01*
X49000Y-144250D02*
X110250D01*
X187650Y-113602D02*
X192002Y-109250D01*
X187650Y-182450D02*
Y-113602D01*
Y-182450D02*
X189750Y-184550D01*
X260450D01*
X287150Y-211250D01*
X353250D01*
X125450Y-158950D02*
X130250Y-163750D01*
X109250Y-158950D02*
X125450D01*
X105950Y-162250D02*
X109250Y-158950D01*
X105950Y-178450D02*
Y-162250D01*
Y-178450D02*
X126750Y-199250D01*
X192002D01*
X110750Y-164750D02*
X135250Y-189250D01*
X192002D01*
X310750Y-136250D02*
X317250Y-129750D01*
X329750D01*
X350450Y-224050D02*
X353250Y-221250D01*
X196802Y-224050D02*
X350450D01*
X192002Y-219250D02*
X196802Y-224050D01*
X192002Y-209250D02*
X197302Y-214550D01*
X346550D01*
X348250Y-216250D01*
X366850D01*
X391050Y-192050D01*
Y-143050D01*
X386250Y-138250D02*
X391050Y-143050D01*
X149250Y-44750D02*
X155250Y-38750D01*
X164750D01*
X99750Y-46250D02*
X104750Y-41250D01*
X118250D01*
X179502Y-61750D02*
X192002Y-49250D01*
X39250Y-61750D02*
X179502D01*
X294650Y-250150D02*
X306750Y-262250D01*
X221103Y-250150D02*
X294650D01*
X210203Y-239250D02*
X221103Y-250150D01*
X192002Y-239250D02*
X210203D01*
X158750Y-221000D02*
X160400D01*
X194450Y-255050D01*
X209550D01*
X216750Y-262250D01*
X452750Y-127750D02*
X470000Y-145000D01*
X429250Y-127750D02*
X452750D01*
X17250Y-44750D02*
X30250Y-31750D01*
X39250D01*
X331250Y-45250D02*
X337000Y-51000D01*
X282750Y-45250D02*
X331250D01*
X357750Y-30250D02*
X377750D01*
X337000Y-51000D02*
X357750Y-30250D01*
X411500Y-73500D02*
X415500Y-77500D01*
X461000D01*
X97750Y-39250D02*
X118250Y-21250D01*
X93350Y-43650D02*
X97750Y-39250D01*
X93350Y-50350D02*
Y-43650D01*
X89750Y-53950D02*
X93350Y-50350D01*
X83950Y-53950D02*
X89750D01*
X71500Y-41500D02*
X83950Y-53950D01*
X232750Y-159250D02*
X252750Y-139250D01*
X192002Y-159250D02*
X232750D01*
X158750Y-236000D02*
X170500D01*
X196750Y-262250D01*
X411500Y-53500D02*
X417500Y-47500D01*
X461000D01*
X332750Y-75250D02*
X337000Y-71000D01*
X282750Y-75250D02*
X332750D01*
X252750Y-129250D02*
X259750Y-136250D01*
X280750D01*
X290750Y-126250D01*
X310750D01*
D39*
X71500Y-21500D02*
D03*
X51500D02*
D03*
X71500Y-41500D02*
D03*
X61500D02*
D03*
X206750Y-262250D02*
D03*
X216750D02*
D03*
X226750D02*
D03*
X236750D02*
D03*
X246750D02*
D03*
X256750D02*
D03*
X266750D02*
D03*
X276750D02*
D03*
X286750D02*
D03*
X296750D02*
D03*
X306750D02*
D03*
X316750D02*
D03*
X326750D02*
D03*
X336750D02*
D03*
X346750D02*
D03*
D40*
X51500Y-41500D02*
D03*
X196750Y-262250D02*
D03*
D41*
X446500Y-14000D02*
D03*
X57500Y-79500D02*
D03*
X94000Y-202000D02*
D03*
X415500Y-234500D02*
D03*
D42*
X429250Y-147750D02*
D03*
Y-127750D02*
D03*
X411500Y-53500D02*
D03*
Y-73500D02*
D03*
X337000Y-51000D02*
D03*
Y-71000D02*
D03*
X461000Y-47500D02*
D03*
Y-77500D02*
D03*
X282750Y-75250D02*
D03*
Y-45250D02*
D03*
X17250Y-44750D02*
D03*
Y-74750D02*
D03*
D43*
X377750Y-30250D02*
D03*
Y-20250D02*
D03*
X242750D02*
D03*
X232750D02*
D03*
X222750D02*
D03*
X212750D02*
D03*
X280750Y-116250D02*
D03*
Y-126250D02*
D03*
Y-136250D02*
D03*
X310750Y-106250D02*
D03*
Y-116250D02*
D03*
Y-126250D02*
D03*
Y-136250D02*
D03*
X329750Y-129750D02*
D03*
X301750Y-178659D02*
D03*
X353250Y-201250D02*
D03*
Y-211250D02*
D03*
Y-221250D02*
D03*
Y-231250D02*
D03*
X470000Y-135000D02*
D03*
D44*
X202750Y-20250D02*
D03*
X280750Y-106250D02*
D03*
D45*
X39250Y-61750D02*
D03*
Y-31750D02*
D03*
X33750Y-17750D02*
D03*
X3750D02*
D03*
X87000Y-46000D02*
D03*
Y-16000D02*
D03*
X99750Y-46250D02*
D03*
Y-16250D02*
D03*
X149250Y-44750D02*
D03*
Y-14750D02*
D03*
X110750Y-164750D02*
D03*
Y-134750D02*
D03*
X365750Y-139250D02*
D03*
Y-169250D02*
D03*
X386250Y-168250D02*
D03*
Y-138250D02*
D03*
X130250Y-163750D02*
D03*
Y-133750D02*
D03*
X150750Y-162750D02*
D03*
Y-132750D02*
D03*
D46*
X192002Y-49250D02*
D03*
D47*
Y-59250D02*
D03*
Y-69250D02*
D03*
Y-79250D02*
D03*
Y-89250D02*
D03*
Y-99250D02*
D03*
Y-109250D02*
D03*
Y-119250D02*
D03*
Y-129250D02*
D03*
Y-139250D02*
D03*
Y-149250D02*
D03*
Y-159250D02*
D03*
Y-169250D02*
D03*
Y-179250D02*
D03*
Y-189250D02*
D03*
Y-199250D02*
D03*
Y-209250D02*
D03*
Y-219250D02*
D03*
Y-229250D02*
D03*
Y-239250D02*
D03*
X252750D02*
D03*
Y-229250D02*
D03*
Y-219250D02*
D03*
Y-209250D02*
D03*
Y-199250D02*
D03*
Y-189250D02*
D03*
Y-179250D02*
D03*
Y-169250D02*
D03*
Y-159250D02*
D03*
Y-149250D02*
D03*
Y-139250D02*
D03*
Y-129250D02*
D03*
Y-119250D02*
D03*
Y-109250D02*
D03*
Y-99250D02*
D03*
Y-89250D02*
D03*
Y-79250D02*
D03*
Y-69250D02*
D03*
Y-59250D02*
D03*
Y-49250D02*
D03*
D48*
X118250Y-21250D02*
D03*
X164750Y-18750D02*
D03*
D49*
X118250Y-41250D02*
D03*
X164750Y-38750D02*
D03*
D50*
X49000Y-159250D02*
D03*
Y-144250D02*
D03*
Y-129250D02*
D03*
X158750Y-206000D02*
D03*
Y-221000D02*
D03*
Y-236000D02*
D03*
M02*
