M48
;Layer_Color=9474304
;FILE_FORMAT=2:5
INCH,LZ
;TYPE=PLATED
T1F00S00C0.02756
T2F00S00C0.03087
T3F00S00C0.03346
T4F00S00C0.03500
T5F00S00C0.03543
T6F00S00C0.04000
T7F00S00C0.04331
T8F00S00C0.04500
T9F00S00C0.11811
%
T01
X030175Y-020425
X001725Y-007475
Y-004475
X028275Y-004525
Y-007525
X0337Y-0071
Y-0051
X030175Y-0178659
X042925Y-014775
Y-012775
X04115Y-00735
Y-00535
X0461Y-00475
Y-00775
T02
X0192002Y-023925
Y-022925
Y-021925
Y-020925
Y-019925
Y-018925
X025275
Y-019925
Y-020925
Y-021925
Y-022925
Y-023925
Y-017925
Y-016925
Y-015925
Y-014925
Y-013925
Y-012925
Y-011925
Y-010925
Y-009925
Y-008925
Y-007925
Y-006925
Y-005925
Y-004925
X0192002
Y-005925
Y-006925
Y-007925
Y-008925
Y-009925
Y-010925
Y-011925
Y-012925
Y-013925
Y-014925
Y-015925
Y-016925
Y-017925
T03
X003925Y-006175
Y-003175
X0087Y-0046
X009975Y-004625
X014925Y-004475
X015075Y-013275
X013025Y-013375
X011075Y-013475
Y-016475
X013025Y-016375
X015075Y-016275
X036575Y-016925
X038625Y-016825
Y-013825
X036575Y-013925
X014925Y-001475
X009975Y-001625
X0087Y-0016
X003375Y-001775
X000375
T04
X015875Y-0236
Y-0221
Y-0206
X0049Y-015925
Y-014425
Y-012925
T05
X035325Y-024125
Y-023125
Y-022125
Y-021125
Y-020125
X032975Y-012975
Y-011975
X031075Y-011625
Y-010625
Y-012625
Y-013625
X028075
Y-012625
Y-011625
Y-010625
X037775Y-004025
Y-003025
X047Y-0135
Y-0145
X037775Y-002025
X024275
X023275
X022275
X021275
X020275
T06
X025675Y-026225
X026675
X027675
X028675
X029675
X030675
X031675
X032675
X033675
X034675
X024675
X023675
X022675
X021675
X020675
X019675
T07
X011825Y-004125
X016475Y-003875
Y-001875
X011825Y-002125
T08
X00515Y-00415
X00615
X00715
Y-00215
X00515
T09
X04155Y-02345
X0094Y-0202
X00575Y-00795
X04465Y-0014
M30
