G04*
G04 #@! TF.GenerationSoftware,Altium Limited,Altium Designer,20.0.9 (164)*
G04*
G04 Layer_Physical_Order=1*
G04 Layer_Color=255*
%FSLAX25Y25*%
%MOIN*%
G70*
G01*
G75*
%ADD17C,0.01000*%
%ADD18R,0.37500X0.11000*%
%ADD19R,0.11811X0.19685*%
%ADD20R,0.05906X0.05906*%
%ADD21R,0.08661X0.02362*%
%ADD38C,0.02000*%
%ADD39C,0.07000*%
%ADD40R,0.07000X0.07000*%
%ADD41C,0.16500*%
%ADD42C,0.04724*%
%ADD43C,0.05906*%
%ADD44R,0.05906X0.05906*%
%ADD45C,0.05512*%
%ADD46R,0.04661X0.04661*%
%ADD47C,0.04661*%
%ADD48R,0.07284X0.07284*%
%ADD49C,0.07284*%
%ADD50C,0.06500*%
D17*
X465500Y-156502D02*
X467499D01*
X466500D01*
Y-162500D01*
X465500D01*
X467499D01*
X470498D02*
Y-156502D01*
X473497D01*
X474497Y-157502D01*
Y-159501D01*
X473497Y-160501D01*
X470498D01*
X472498D02*
X474497Y-162500D01*
X331252Y-205250D02*
X337250D01*
Y-202251D01*
X336250Y-201251D01*
X335251D01*
X334251Y-202251D01*
Y-205250D01*
Y-202251D01*
X333251Y-201251D01*
X332252D01*
X331252Y-202251D01*
Y-205250D01*
X333251Y-199252D02*
X336250D01*
X337250Y-198252D01*
Y-195253D01*
X333251D01*
Y-193254D02*
Y-189255D01*
X337250Y-193254D01*
Y-189255D01*
X333251Y-187256D02*
Y-183257D01*
X337250Y-187256D01*
Y-183257D01*
Y-178259D02*
Y-180258D01*
X336250Y-181258D01*
X334251D01*
X333251Y-180258D01*
Y-178259D01*
X334251Y-177259D01*
X335251D01*
Y-181258D01*
X333251Y-175260D02*
X337250D01*
X335251D01*
X334251Y-174260D01*
X333251Y-173260D01*
Y-172261D01*
X318750Y-145252D02*
Y-151250D01*
X321749D01*
X322749Y-150250D01*
Y-146252D01*
X321749Y-145252D01*
X318750D01*
X324748Y-151250D02*
Y-147251D01*
X326747Y-145252D01*
X328747Y-147251D01*
Y-151250D01*
Y-148251D01*
X324748D01*
X334745Y-146252D02*
X333745Y-145252D01*
X331746D01*
X330746Y-146252D01*
Y-150250D01*
X331746Y-151250D01*
X333745D01*
X334745Y-150250D01*
X333752Y-243750D02*
Y-239751D01*
Y-241751D01*
X339750D01*
Y-237752D02*
Y-235753D01*
Y-236752D01*
X335751D01*
Y-237752D01*
X339750Y-232753D02*
X335751D01*
Y-231754D01*
X336751Y-230754D01*
X339750D01*
X336751D01*
X335751Y-229754D01*
X336751Y-228755D01*
X339750D01*
Y-223757D02*
Y-225756D01*
X338750Y-226755D01*
X336751D01*
X335751Y-225756D01*
Y-223757D01*
X336751Y-222757D01*
X337751D01*
Y-226755D01*
X335751Y-220757D02*
X339750D01*
X337751D01*
X336751Y-219758D01*
X335751Y-218758D01*
Y-217758D01*
X164502Y-111501D02*
Y-113500D01*
X165502Y-114500D01*
X169500D01*
X170500Y-113500D01*
Y-111501D01*
X169500Y-110501D01*
X165502D01*
X164502Y-111501D01*
X170500Y-108502D02*
X166501D01*
Y-105503D01*
X167501Y-104503D01*
X170500D01*
Y-102504D02*
X166501Y-98505D01*
X164502Y-93507D02*
Y-95506D01*
X165502Y-96506D01*
X169500D01*
X170500Y-95506D01*
Y-93507D01*
X169500Y-92507D01*
X165502D01*
X164502Y-93507D01*
X170500Y-89508D02*
X165502D01*
X167501D01*
Y-90508D01*
Y-88508D01*
Y-89508D01*
X165502D01*
X164502Y-88508D01*
X170500Y-84510D02*
X165502D01*
X167501D01*
Y-85509D01*
Y-83510D01*
Y-84510D01*
X165502D01*
X164502Y-83510D01*
X118500Y-74000D02*
Y-70001D01*
X120499Y-68002D01*
X122499Y-70001D01*
Y-74000D01*
Y-71001D01*
X118500D01*
X124498Y-74000D02*
X126497D01*
X125498D01*
Y-68002D01*
X124498D01*
X130496Y-70001D02*
X132495D01*
X133495Y-71001D01*
Y-74000D01*
X130496D01*
X129496Y-73000D01*
X130496Y-72001D01*
X133495D01*
X135494Y-70001D02*
Y-74000D01*
Y-72001D01*
X136494Y-71001D01*
X137494Y-70001D01*
X138494D01*
X141493Y-74000D02*
Y-70001D01*
X142492D01*
X143492Y-71001D01*
Y-74000D01*
Y-71001D01*
X144492Y-70001D01*
X145491Y-71001D01*
Y-74000D01*
X88002Y-110501D02*
X87002Y-111501D01*
Y-113500D01*
X88002Y-114500D01*
X92000D01*
X93000Y-113500D01*
Y-111501D01*
X92000Y-110501D01*
X93000Y-108502D02*
Y-106503D01*
Y-107502D01*
X87002D01*
Y-108502D01*
X93000Y-102504D02*
Y-100505D01*
X92000Y-99505D01*
X90001D01*
X89001Y-100505D01*
Y-102504D01*
X90001Y-103504D01*
X92000D01*
X93000Y-102504D01*
X89001Y-93507D02*
Y-96506D01*
X90001Y-97505D01*
X92000D01*
X93000Y-96506D01*
Y-93507D01*
Y-91507D02*
X87002D01*
X91001D02*
X89001Y-88508D01*
X91001Y-91507D02*
X93000Y-88508D01*
X181250Y-73250D02*
X177251D01*
X175252Y-71251D01*
X177251Y-69251D01*
X181250D01*
X178251D01*
Y-73250D01*
X181250Y-67252D02*
Y-65253D01*
Y-66252D01*
X175252D01*
Y-67252D01*
X177251Y-61254D02*
Y-59254D01*
X178251Y-58255D01*
X181250D01*
Y-61254D01*
X180250Y-62253D01*
X179251Y-61254D01*
Y-58255D01*
X177251Y-56256D02*
X181250D01*
X179251D01*
X178251Y-55256D01*
X177251Y-54256D01*
Y-53256D01*
X181250Y-50257D02*
X177251D01*
Y-49258D01*
X178251Y-48258D01*
X181250D01*
X178251D01*
X177251Y-47258D01*
X178251Y-46259D01*
X181250D01*
X175252Y-35262D02*
Y-37262D01*
X176252Y-38261D01*
X180250D01*
X181250Y-37262D01*
Y-35262D01*
X180250Y-34263D01*
X176252D01*
X175252Y-35262D01*
X181250Y-32263D02*
X175252D01*
X181250Y-28264D01*
X175252D01*
X181250Y-26265D02*
X177251Y-22266D01*
X175252Y-17268D02*
Y-19267D01*
X176252Y-20267D01*
X180250D01*
X181250Y-19267D01*
Y-17268D01*
X180250Y-16268D01*
X176252D01*
X175252Y-17268D01*
Y-10270D02*
Y-14269D01*
X178251D01*
Y-12270D01*
Y-14269D01*
X181250D01*
X175252Y-4272D02*
Y-8271D01*
X178251D01*
Y-6272D01*
Y-8271D01*
X181250D01*
X136250Y-57750D02*
X132251D01*
X130252Y-55751D01*
X132251Y-53751D01*
X136250D01*
X133251D01*
Y-57750D01*
X136250Y-51752D02*
Y-49753D01*
Y-50752D01*
X130252D01*
Y-51752D01*
X131252Y-45754D02*
X132251D01*
Y-46754D01*
Y-44754D01*
Y-45754D01*
X135250D01*
X136250Y-44754D01*
Y-38756D02*
Y-40756D01*
X135250Y-41755D01*
X133251D01*
X132251Y-40756D01*
Y-38756D01*
X133251Y-37756D01*
X134251D01*
Y-41755D01*
X132251Y-35757D02*
X136250D01*
X134251D01*
X133251Y-34757D01*
X132251Y-33758D01*
Y-32758D01*
X136250Y-29759D02*
X132251D01*
Y-26760D01*
X133251Y-25760D01*
X136250D01*
X132251Y-22761D02*
Y-20762D01*
X133251Y-19762D01*
X136250D01*
Y-22761D01*
X135250Y-23761D01*
X134251Y-22761D01*
Y-19762D01*
X131252Y-16763D02*
X132251D01*
Y-17763D01*
Y-15764D01*
Y-16763D01*
X135250D01*
X136250Y-15764D01*
Y-9765D02*
Y-11765D01*
X135250Y-12765D01*
X133251D01*
X132251Y-11765D01*
Y-9765D01*
X133251Y-8766D01*
X134251D01*
Y-12765D01*
X274750Y-8753D02*
Y-14751D01*
X277749D01*
X278749Y-13751D01*
Y-12751D01*
X277749Y-11752D01*
X274750D01*
X277749D01*
X278749Y-10752D01*
Y-9752D01*
X277749Y-8753D01*
X274750D01*
X280748Y-10752D02*
Y-13751D01*
X281748Y-14751D01*
X284747D01*
Y-15750D01*
X283747Y-16750D01*
X282747D01*
X284747Y-14751D02*
Y-10752D01*
X286746Y-16750D02*
Y-10752D01*
X289745D01*
X290745Y-11752D01*
Y-13751D01*
X289745Y-14751D01*
X286746D01*
X293744Y-10752D02*
X295743D01*
X296743Y-11752D01*
Y-14751D01*
X293744D01*
X292744Y-13751D01*
X293744Y-12751D01*
X296743D01*
X298742Y-14751D02*
X301741D01*
X302741Y-13751D01*
X301741Y-12751D01*
X299742D01*
X298742Y-11752D01*
X299742Y-10752D01*
X302741D01*
X304740Y-14751D02*
X307739D01*
X308739Y-13751D01*
X307739Y-12751D01*
X305740D01*
X304740Y-11752D01*
X305740Y-10752D01*
X308739D01*
X320735Y-9752D02*
X319735Y-8753D01*
X317736D01*
X316736Y-9752D01*
Y-13751D01*
X317736Y-14751D01*
X319735D01*
X320735Y-13751D01*
X323734Y-10752D02*
X325733D01*
X326733Y-11752D01*
Y-14751D01*
X323734D01*
X322734Y-13751D01*
X323734Y-12751D01*
X326733D01*
X328732Y-16750D02*
Y-10752D01*
X331732D01*
X332731Y-11752D01*
Y-13751D01*
X331732Y-14751D01*
X328732D01*
X338729Y-10752D02*
X335730D01*
X334731Y-11752D01*
Y-13751D01*
X335730Y-14751D01*
X338729D01*
X340729D02*
X342728D01*
X341728D01*
Y-10752D01*
X340729D01*
X346727Y-9752D02*
Y-10752D01*
X345727D01*
X347726D01*
X346727D01*
Y-13751D01*
X347726Y-14751D01*
X351725D02*
X353724D01*
X354724Y-13751D01*
Y-11752D01*
X353724Y-10752D01*
X351725D01*
X350725Y-11752D01*
Y-13751D01*
X351725Y-14751D01*
X356723Y-10752D02*
Y-14751D01*
Y-12751D01*
X357723Y-11752D01*
X358723Y-10752D01*
X359722D01*
X362721Y-14751D02*
X365721D01*
X366720Y-13751D01*
X365721Y-12751D01*
X363721D01*
X362721Y-11752D01*
X363721Y-10752D01*
X366720D01*
X390250Y-13250D02*
Y-7252D01*
X393249D01*
X394249Y-8252D01*
Y-10251D01*
X393249Y-11251D01*
X390250D01*
X397248Y-13250D02*
X399247D01*
X400247Y-12250D01*
Y-10251D01*
X399247Y-9251D01*
X397248D01*
X396248Y-10251D01*
Y-12250D01*
X397248Y-13250D01*
X402246Y-9251D02*
Y-12250D01*
X403246Y-13250D01*
X404246Y-12250D01*
X405245Y-13250D01*
X406245Y-12250D01*
Y-9251D01*
X411243Y-13250D02*
X409244D01*
X408244Y-12250D01*
Y-10251D01*
X409244Y-9251D01*
X411243D01*
X412243Y-10251D01*
Y-11251D01*
X408244D01*
X414242Y-9251D02*
Y-13250D01*
Y-11251D01*
X415242Y-10251D01*
X416242Y-9251D01*
X417241D01*
X217749Y-7252D02*
X216749Y-6252D01*
X214750D01*
X213750Y-7252D01*
Y-8251D01*
X214750Y-9251D01*
X216749D01*
X217749Y-10251D01*
Y-11250D01*
X216749Y-12250D01*
X214750D01*
X213750Y-11250D01*
X219748Y-12250D02*
Y-6252D01*
X223747Y-12250D01*
Y-6252D01*
X225746Y-12250D02*
Y-8251D01*
X227746Y-6252D01*
X229745Y-8251D01*
Y-12250D01*
Y-9251D01*
X225746D01*
X231744Y-12250D02*
Y-6252D01*
X234743D01*
X235743Y-7252D01*
Y-9251D01*
X234743Y-10251D01*
X231744D01*
X460250Y-238752D02*
Y-244750D01*
X464249D01*
X470247Y-239752D02*
X469247Y-238752D01*
X467248D01*
X466248Y-239752D01*
Y-243750D01*
X467248Y-244750D01*
X469247D01*
X470247Y-243750D01*
X472246Y-238752D02*
Y-244750D01*
X475245D01*
X476245Y-243750D01*
Y-239752D01*
X475245Y-238752D01*
X472246D01*
X154250Y-191250D02*
Y-185252D01*
X157249D01*
X158249Y-186252D01*
Y-188251D01*
X157249Y-189251D01*
X154250D01*
X161248Y-191250D02*
X163247D01*
X164247Y-190250D01*
Y-188251D01*
X163247Y-187251D01*
X161248D01*
X160248Y-188251D01*
Y-190250D01*
X161248Y-191250D01*
X167246Y-186252D02*
Y-187251D01*
X166246D01*
X168245D01*
X167246D01*
Y-190250D01*
X168245Y-191250D01*
X175243D02*
X171245D01*
X175243Y-187251D01*
Y-186252D01*
X174243Y-185252D01*
X172244D01*
X171245Y-186252D01*
X46250Y-107750D02*
Y-101752D01*
X49249D01*
X50249Y-102752D01*
Y-104751D01*
X49249Y-105751D01*
X46250D01*
X53248Y-107750D02*
X55247D01*
X56247Y-106750D01*
Y-104751D01*
X55247Y-103751D01*
X53248D01*
X52248Y-104751D01*
Y-106750D01*
X53248Y-107750D01*
X59246Y-102752D02*
Y-103751D01*
X58246D01*
X60246D01*
X59246D01*
Y-106750D01*
X60246Y-107750D01*
X63244D02*
X65244D01*
X64244D01*
Y-101752D01*
X63244Y-102752D01*
X390249Y-193253D02*
X388249D01*
X389249D01*
Y-198251D01*
X388249Y-199251D01*
X387250D01*
X386250Y-198251D01*
X393248Y-199251D02*
X395247D01*
X396247Y-198251D01*
Y-196252D01*
X395247Y-195252D01*
X393248D01*
X392248Y-196252D01*
Y-198251D01*
X393248Y-199251D01*
X398246Y-193253D02*
Y-199251D01*
Y-196252D01*
X399246Y-195252D01*
X401245D01*
X402245Y-196252D01*
Y-199251D01*
X404244D02*
Y-195252D01*
X407243D01*
X408243Y-196252D01*
Y-199251D01*
X410242D02*
Y-195252D01*
X413241D01*
X414241Y-196252D01*
Y-199251D01*
X416240Y-195252D02*
Y-198251D01*
X417240Y-199251D01*
X420239D01*
Y-200250D01*
X419239Y-201250D01*
X418240D01*
X420239Y-199251D02*
Y-195252D01*
X423238Y-192253D02*
Y-194252D01*
X422238Y-195252D01*
X426237Y-199251D02*
X429236D01*
X430236Y-198251D01*
X429236Y-197251D01*
X427237D01*
X426237Y-196252D01*
X427237Y-195252D01*
X430236D01*
X438233Y-193253D02*
Y-199251D01*
X441232D01*
X442232Y-198251D01*
Y-197251D01*
Y-196252D01*
X441232Y-195252D01*
X438233D01*
X445231Y-199251D02*
X447230D01*
X448230Y-198251D01*
Y-196252D01*
X447230Y-195252D01*
X445231D01*
X444231Y-196252D01*
Y-198251D01*
X445231Y-199251D01*
X451229Y-195252D02*
X453228D01*
X454228Y-196252D01*
Y-199251D01*
X451229D01*
X450229Y-198251D01*
X451229Y-197251D01*
X454228D01*
X456227Y-195252D02*
Y-199251D01*
Y-197251D01*
X457227Y-196252D01*
X458227Y-195252D01*
X459226D01*
X466224Y-193253D02*
Y-199251D01*
X463225D01*
X462225Y-198251D01*
Y-196252D01*
X463225Y-195252D01*
X466224D01*
D18*
X60500Y-159000D02*
D03*
Y-144500D02*
D03*
Y-130000D02*
D03*
X147250Y-206250D02*
D03*
Y-220750D02*
D03*
Y-235250D02*
D03*
D19*
X300805Y-214683D02*
D03*
Y-168226D02*
D03*
D20*
X110750Y-113640D02*
D03*
Y-99860D02*
D03*
X131250Y-113140D02*
D03*
Y-99360D02*
D03*
X151250Y-113030D02*
D03*
Y-99250D02*
D03*
X377750Y-40250D02*
D03*
X329750Y-119750D02*
D03*
X301750Y-204250D02*
D03*
X353250Y-241250D02*
D03*
X470000Y-145000D02*
D03*
D21*
X368014Y-128250D02*
D03*
Y-123250D02*
D03*
Y-118250D02*
D03*
Y-113250D02*
D03*
X388486D02*
D03*
Y-118250D02*
D03*
Y-123250D02*
D03*
Y-128250D02*
D03*
D38*
X300805Y-214683D02*
Y-209950D01*
X301750Y-209005D01*
Y-204250D01*
X150750Y-132750D02*
Y-123150D01*
X151250Y-122650D01*
Y-113030D01*
X130250Y-133750D02*
Y-123950D01*
X131250Y-122950D01*
Y-113140D01*
X110750Y-134750D02*
Y-113640D01*
X131250Y-99360D02*
X141150D01*
X141260Y-99250D01*
X151250D01*
X110750Y-99860D02*
X120750D01*
X121250Y-99360D01*
X131250D01*
X301750Y-178659D02*
Y-173950D01*
X300805Y-173005D02*
X301750Y-173950D01*
X300805Y-173005D02*
Y-168226D01*
X282750Y-75250D02*
X285750Y-78250D01*
Y-131250D02*
Y-78250D01*
X280750Y-136250D02*
X285750Y-131250D01*
X196750Y-262250D02*
Y-163998D01*
X192002Y-159250D02*
X196750Y-163998D01*
X381250Y-123250D02*
X388486D01*
X378250Y-126250D02*
X381250Y-123250D01*
X378250Y-160250D02*
Y-126250D01*
Y-160250D02*
X386250Y-168250D01*
Y-138250D02*
X388486Y-136014D01*
Y-128250D01*
X246750Y-155250D02*
X252750Y-149250D01*
X246750Y-262250D02*
Y-155250D01*
X362950Y-128250D02*
X368014D01*
X360950Y-130250D02*
X362950Y-128250D01*
X360950Y-233550D02*
Y-130250D01*
X353250Y-241250D02*
X360950Y-233550D01*
X300805Y-126195D02*
X310750Y-116250D01*
X192002Y-30998D02*
X202750Y-20250D01*
X192002Y-49250D02*
Y-30998D01*
X397450Y-67550D02*
X411500Y-53500D01*
X397450Y-110250D02*
Y-67550D01*
X394450Y-113250D02*
X397450Y-110250D01*
X388486Y-113250D02*
X394450D01*
X17250Y-154500D02*
Y-74750D01*
Y-154500D02*
X21750Y-159000D01*
X232750Y-29250D02*
X252750Y-49250D01*
X232750Y-29250D02*
Y-20250D01*
X377750Y-30250D02*
X407950D01*
X415950Y-38250D01*
Y-69050D02*
Y-38250D01*
X411500Y-73500D02*
X415950Y-69050D01*
X60500Y-130000D02*
X77750D01*
X81050Y-126700D01*
Y-28450D01*
X87000Y-22500D01*
Y-16000D01*
X158500Y-220750D02*
X158750Y-221000D01*
X147250Y-220750D02*
X158500D01*
X201250Y-267750D02*
X206750Y-262250D01*
X189650Y-267750D02*
X201250D01*
X184150Y-262250D02*
X189650Y-267750D01*
X184150Y-262250D02*
Y-211850D01*
X178550Y-206250D02*
X184150Y-211850D01*
X192002Y-149250D02*
X212750Y-128502D01*
Y-20250D01*
X399750Y-118250D02*
X429250Y-147750D01*
X388486Y-118250D02*
X399750D01*
X252750Y-139250D02*
X255419Y-141919D01*
X284619D01*
X300805Y-158105D01*
X192002Y-79250D02*
X196350Y-74902D01*
Y-66250D01*
X194350Y-64250D02*
X196350Y-66250D01*
X188350Y-64250D02*
X194350D01*
X186350Y-66250D02*
X188350Y-64250D01*
X186350Y-73607D02*
Y-66250D01*
X183707Y-76250D02*
X186350Y-73607D01*
X166950Y-76250D02*
X183707D01*
X142550Y-51850D02*
X166950Y-76250D01*
X142550Y-51850D02*
Y-9750D01*
X137750Y-4950D02*
X142550Y-9750D01*
X87450Y-4950D02*
X137750D01*
X82150Y-10250D02*
X87450Y-4950D01*
X82150Y-20850D02*
Y-10250D01*
X61500Y-41500D02*
X82150Y-20850D01*
X192002Y-72198D02*
Y-69250D01*
X185850Y-78350D02*
X192002Y-72198D01*
X185850Y-127650D02*
Y-78350D01*
X150750Y-162750D02*
X185850Y-127650D01*
X252750Y-109250D02*
X269750Y-126250D01*
X280750D01*
X252750Y-89250D02*
X267750Y-104250D01*
X268750D01*
X280750Y-116250D01*
X242750Y-20250D02*
X257550Y-35050D01*
Y-54450D02*
Y-35050D01*
X252750Y-59250D02*
X257550Y-54450D01*
X252750Y-209250D02*
X258183Y-214683D01*
X300805D01*
X252750Y-219250D02*
X261850Y-228350D01*
X315050D01*
X331850Y-211550D01*
X338750D01*
X345450Y-218250D01*
Y-223450D02*
Y-218250D01*
Y-223450D02*
X353250Y-231250D01*
X226750Y-262250D02*
Y-165250D01*
X247081Y-144919D01*
X255819D01*
X257150Y-146250D01*
Y-174850D02*
Y-146250D01*
X252750Y-179250D02*
X257150Y-174850D01*
X33750Y-26250D02*
X39250Y-31750D01*
X33750Y-26250D02*
Y-17750D01*
X310750Y-116250D02*
X324050Y-102950D01*
Y-63950D01*
X337000Y-51000D01*
X461000Y-126000D02*
X470000Y-135000D01*
X461000Y-126000D02*
Y-77500D01*
X110750Y-28750D02*
X118250Y-21250D01*
X110750Y-99860D02*
Y-28750D01*
X310750Y-126250D02*
X319650Y-135150D01*
X345350D01*
X352250Y-128250D01*
X179350Y-149250D02*
X192002D01*
X147250Y-181350D02*
X179350Y-149250D01*
X147250Y-206250D02*
Y-181350D01*
X123550Y-206250D02*
X147250D01*
X119550Y-202250D02*
X123550Y-206250D01*
X119550Y-202250D02*
Y-163950D01*
X85600Y-130000D02*
X119550Y-163950D01*
X49000Y-144500D02*
Y-144250D01*
Y-144500D02*
X60500D01*
X21750Y-159000D02*
X60500D01*
X147250Y-235250D02*
X158750D01*
Y-236000D02*
Y-235250D01*
X300805Y-168226D02*
Y-158105D01*
Y-126195D01*
X49000Y-130000D02*
X60500D01*
X49000D02*
Y-129250D01*
X77750Y-130000D02*
X85600D01*
X147250Y-206250D02*
X178550D01*
X352250Y-128250D02*
X362950D01*
D39*
X71500Y-21500D02*
D03*
X51500D02*
D03*
X71500Y-41500D02*
D03*
X61500D02*
D03*
X206750Y-262250D02*
D03*
X216750D02*
D03*
X226750D02*
D03*
X236750D02*
D03*
X246750D02*
D03*
X256750D02*
D03*
X266750D02*
D03*
X276750D02*
D03*
X286750D02*
D03*
X296750D02*
D03*
X306750D02*
D03*
X316750D02*
D03*
X326750D02*
D03*
X336750D02*
D03*
X346750D02*
D03*
D40*
X51500Y-41500D02*
D03*
X196750Y-262250D02*
D03*
D41*
X446500Y-14000D02*
D03*
X57500Y-79500D02*
D03*
X94000Y-202000D02*
D03*
X415500Y-234500D02*
D03*
D42*
X429250Y-147750D02*
D03*
Y-127750D02*
D03*
X411500Y-53500D02*
D03*
Y-73500D02*
D03*
X337000Y-51000D02*
D03*
Y-71000D02*
D03*
X461000Y-47500D02*
D03*
Y-77500D02*
D03*
X282750Y-75250D02*
D03*
Y-45250D02*
D03*
X17250Y-44750D02*
D03*
Y-74750D02*
D03*
D43*
X377750Y-30250D02*
D03*
Y-20250D02*
D03*
X242750D02*
D03*
X232750D02*
D03*
X222750D02*
D03*
X212750D02*
D03*
X280750Y-116250D02*
D03*
Y-126250D02*
D03*
Y-136250D02*
D03*
X310750Y-106250D02*
D03*
Y-116250D02*
D03*
Y-126250D02*
D03*
Y-136250D02*
D03*
X329750Y-129750D02*
D03*
X301750Y-178659D02*
D03*
X353250Y-201250D02*
D03*
Y-211250D02*
D03*
Y-221250D02*
D03*
Y-231250D02*
D03*
X470000Y-135000D02*
D03*
D44*
X202750Y-20250D02*
D03*
X280750Y-106250D02*
D03*
D45*
X39250Y-61750D02*
D03*
Y-31750D02*
D03*
X33750Y-17750D02*
D03*
X3750D02*
D03*
X87000Y-46000D02*
D03*
Y-16000D02*
D03*
X99750Y-46250D02*
D03*
Y-16250D02*
D03*
X149250Y-44750D02*
D03*
Y-14750D02*
D03*
X110750Y-164750D02*
D03*
Y-134750D02*
D03*
X365750Y-139250D02*
D03*
Y-169250D02*
D03*
X386250Y-168250D02*
D03*
Y-138250D02*
D03*
X130250Y-163750D02*
D03*
Y-133750D02*
D03*
X150750Y-162750D02*
D03*
Y-132750D02*
D03*
D46*
X192002Y-49250D02*
D03*
D47*
Y-59250D02*
D03*
Y-69250D02*
D03*
Y-79250D02*
D03*
Y-89250D02*
D03*
Y-99250D02*
D03*
Y-109250D02*
D03*
Y-119250D02*
D03*
Y-129250D02*
D03*
Y-139250D02*
D03*
Y-149250D02*
D03*
Y-159250D02*
D03*
Y-169250D02*
D03*
Y-179250D02*
D03*
Y-189250D02*
D03*
Y-199250D02*
D03*
Y-209250D02*
D03*
Y-219250D02*
D03*
Y-229250D02*
D03*
Y-239250D02*
D03*
X252750D02*
D03*
Y-229250D02*
D03*
Y-219250D02*
D03*
Y-209250D02*
D03*
Y-199250D02*
D03*
Y-189250D02*
D03*
Y-179250D02*
D03*
Y-169250D02*
D03*
Y-159250D02*
D03*
Y-149250D02*
D03*
Y-139250D02*
D03*
Y-129250D02*
D03*
Y-119250D02*
D03*
Y-109250D02*
D03*
Y-99250D02*
D03*
Y-89250D02*
D03*
Y-79250D02*
D03*
Y-69250D02*
D03*
Y-59250D02*
D03*
Y-49250D02*
D03*
D48*
X118250Y-21250D02*
D03*
X164750Y-18750D02*
D03*
D49*
X118250Y-41250D02*
D03*
X164750Y-38750D02*
D03*
D50*
X49000Y-159250D02*
D03*
Y-144250D02*
D03*
Y-129250D02*
D03*
X158750Y-206000D02*
D03*
Y-221000D02*
D03*
Y-236000D02*
D03*
M02*
