G04*
G04 #@! TF.GenerationSoftware,Altium Limited,Altium Designer,20.0.9 (164)*
G04*
G04 Layer_Color=8388736*
%FSLAX25Y25*%
%MOIN*%
G70*
G01*
G75*
%ADD22R,0.38300X0.11800*%
%ADD23R,0.12611X0.20485*%
%ADD24R,0.06706X0.06706*%
%ADD25R,0.09461X0.03162*%
%ADD26C,0.07800*%
%ADD27R,0.07800X0.07800*%
%ADD28C,0.17300*%
%ADD29C,0.05524*%
%ADD30C,0.06706*%
%ADD31R,0.06706X0.06706*%
%ADD32C,0.06312*%
%ADD33R,0.05461X0.05461*%
%ADD34C,0.05461*%
%ADD35R,0.08083X0.08083*%
%ADD36C,0.08083*%
%ADD37C,0.07300*%
D22*
X60500Y-159000D02*
D03*
Y-144500D02*
D03*
Y-130000D02*
D03*
X147250Y-206250D02*
D03*
Y-220750D02*
D03*
Y-235250D02*
D03*
D23*
X300805Y-214683D02*
D03*
Y-168226D02*
D03*
D24*
X110750Y-113640D02*
D03*
Y-99860D02*
D03*
X131250Y-113140D02*
D03*
Y-99360D02*
D03*
X151250Y-113030D02*
D03*
Y-99250D02*
D03*
X377750Y-40250D02*
D03*
X329750Y-119750D02*
D03*
X301750Y-204250D02*
D03*
X353250Y-241250D02*
D03*
X470000Y-145000D02*
D03*
D25*
X368014Y-128250D02*
D03*
Y-123250D02*
D03*
Y-118250D02*
D03*
Y-113250D02*
D03*
X388486D02*
D03*
Y-118250D02*
D03*
Y-123250D02*
D03*
Y-128250D02*
D03*
D26*
X71500Y-21500D02*
D03*
X51500D02*
D03*
X71500Y-41500D02*
D03*
X61500D02*
D03*
X206750Y-262250D02*
D03*
X216750D02*
D03*
X226750D02*
D03*
X236750D02*
D03*
X246750D02*
D03*
X256750D02*
D03*
X266750D02*
D03*
X276750D02*
D03*
X286750D02*
D03*
X296750D02*
D03*
X306750D02*
D03*
X316750D02*
D03*
X326750D02*
D03*
X336750D02*
D03*
X346750D02*
D03*
D27*
X51500Y-41500D02*
D03*
X196750Y-262250D02*
D03*
D28*
X446500Y-14000D02*
D03*
X57500Y-79500D02*
D03*
X94000Y-202000D02*
D03*
X415500Y-234500D02*
D03*
D29*
X429250Y-147750D02*
D03*
Y-127750D02*
D03*
X411500Y-53500D02*
D03*
Y-73500D02*
D03*
X337000Y-51000D02*
D03*
Y-71000D02*
D03*
X461000Y-47500D02*
D03*
Y-77500D02*
D03*
X282750Y-75250D02*
D03*
Y-45250D02*
D03*
X17250Y-44750D02*
D03*
Y-74750D02*
D03*
D30*
X377750Y-30250D02*
D03*
Y-20250D02*
D03*
X242750D02*
D03*
X232750D02*
D03*
X222750D02*
D03*
X212750D02*
D03*
X280750Y-116250D02*
D03*
Y-126250D02*
D03*
Y-136250D02*
D03*
X310750Y-106250D02*
D03*
Y-116250D02*
D03*
Y-126250D02*
D03*
Y-136250D02*
D03*
X329750Y-129750D02*
D03*
X301750Y-178659D02*
D03*
X353250Y-201250D02*
D03*
Y-211250D02*
D03*
Y-221250D02*
D03*
Y-231250D02*
D03*
X470000Y-135000D02*
D03*
D31*
X202750Y-20250D02*
D03*
X280750Y-106250D02*
D03*
D32*
X39250Y-61750D02*
D03*
Y-31750D02*
D03*
X33750Y-17750D02*
D03*
X3750D02*
D03*
X87000Y-46000D02*
D03*
Y-16000D02*
D03*
X99750Y-46250D02*
D03*
Y-16250D02*
D03*
X149250Y-44750D02*
D03*
Y-14750D02*
D03*
X110750Y-164750D02*
D03*
Y-134750D02*
D03*
X365750Y-139250D02*
D03*
Y-169250D02*
D03*
X386250Y-168250D02*
D03*
Y-138250D02*
D03*
X130250Y-163750D02*
D03*
Y-133750D02*
D03*
X150750Y-162750D02*
D03*
Y-132750D02*
D03*
D33*
X192002Y-49250D02*
D03*
D34*
Y-59250D02*
D03*
Y-69250D02*
D03*
Y-79250D02*
D03*
Y-89250D02*
D03*
Y-99250D02*
D03*
Y-109250D02*
D03*
Y-119250D02*
D03*
Y-129250D02*
D03*
Y-139250D02*
D03*
Y-149250D02*
D03*
Y-159250D02*
D03*
Y-169250D02*
D03*
Y-179250D02*
D03*
Y-189250D02*
D03*
Y-199250D02*
D03*
Y-209250D02*
D03*
Y-219250D02*
D03*
Y-229250D02*
D03*
Y-239250D02*
D03*
X252750D02*
D03*
Y-229250D02*
D03*
Y-219250D02*
D03*
Y-209250D02*
D03*
Y-199250D02*
D03*
Y-189250D02*
D03*
Y-179250D02*
D03*
Y-169250D02*
D03*
Y-159250D02*
D03*
Y-149250D02*
D03*
Y-139250D02*
D03*
Y-129250D02*
D03*
Y-119250D02*
D03*
Y-109250D02*
D03*
Y-99250D02*
D03*
Y-89250D02*
D03*
Y-79250D02*
D03*
Y-69250D02*
D03*
Y-59250D02*
D03*
Y-49250D02*
D03*
D35*
X118250Y-21250D02*
D03*
X164750Y-18750D02*
D03*
D36*
X118250Y-41250D02*
D03*
X164750Y-38750D02*
D03*
D37*
X49000Y-159250D02*
D03*
Y-144250D02*
D03*
Y-129250D02*
D03*
X158750Y-206000D02*
D03*
Y-221000D02*
D03*
Y-236000D02*
D03*
M02*
