G04*
G04 #@! TF.GenerationSoftware,Altium Limited,Altium Designer,20.0.9 (164)*
G04*
G04 Layer_Color=255*
%FSLAX25Y25*%
%MOIN*%
G70*
G01*
G75*
%ADD29C,0.04724*%
%ADD30R,0.04724X0.04724*%
%ADD31C,0.05906*%
%ADD32R,0.05906X0.05906*%
%ADD33R,0.05906X0.05906*%
%ADD34C,0.12992*%
%ADD35O,0.07874X0.03937*%
%ADD36O,0.07874X0.03937*%
%ADD37C,0.05512*%
%ADD38C,0.16500*%
%ADD39R,0.04724X0.04724*%
D29*
X55500Y39000D02*
D03*
X252500Y174000D02*
D03*
X308000Y157000D02*
D03*
X244000Y23000D02*
D03*
X41500Y138000D02*
D03*
D30*
X55500Y69000D02*
D03*
X308000Y187000D02*
D03*
X244000Y53000D02*
D03*
D31*
X313500Y98500D02*
D03*
Y108500D02*
D03*
X306421Y41421D02*
D03*
X186000Y70500D02*
D03*
D32*
X313500Y118500D02*
D03*
X186000Y60500D02*
D03*
D33*
X306421Y31579D02*
D03*
D34*
X326500Y51657D02*
D03*
Y11500D02*
D03*
D35*
X129500Y159500D02*
D03*
D36*
Y164500D02*
D03*
Y169500D02*
D03*
D37*
X8000Y141000D02*
D03*
Y171000D02*
D03*
X284500Y96500D02*
D03*
Y126500D02*
D03*
X254500Y126000D02*
D03*
Y96000D02*
D03*
X165000Y121500D02*
D03*
Y91500D02*
D03*
X163500Y45500D02*
D03*
Y15500D02*
D03*
X162500Y143500D02*
D03*
X192500D02*
D03*
X131500Y106500D02*
D03*
Y76500D02*
D03*
X105500Y116000D02*
D03*
Y86000D02*
D03*
D38*
X370000Y90000D02*
D03*
X361500Y195000D02*
D03*
X59000Y194000D02*
D03*
X13000Y13000D02*
D03*
D39*
X222500Y174000D02*
D03*
X71500Y138000D02*
D03*
M02*
