M48
;Layer_Color=9474304
;FILE_FORMAT=2:5
INCH,LZ
;TYPE=PLATED
T1F00S00C0.02756
T2F00S00C0.03346
T3F00S00C0.03543
T4F00S00C0.07874
T5F00S00C0.11811
%
T01
X00555Y0039
X0244Y0023
Y0053
X02525Y0174
X02225
X0308Y0187
Y0157
X00715Y0138
X00555Y0069
X00415Y0138
T02
X01635Y00155
Y00455
X02545Y0096
Y0126
X02845Y01265
Y00965
X0165Y00915
Y01215
X01625Y01435
X01925
X01315Y01065
Y00765
X01055Y0086
Y0116
X0008Y0141
Y0171
T03
X0306421Y0031579
Y0041421
X03135Y00985
Y01085
Y01185
X0186Y00705
Y00605
X01295Y01595
Y01645
Y01695
T04
X03265Y00115
Y0051657
T05
X0013Y0013
X037Y009
X03615Y0195
X0059Y0194
M30
