G04*
G04 #@! TF.GenerationSoftware,Altium Limited,Altium Designer,20.0.9 (164)*
G04*
G04 Layer_Physical_Order=2*
G04 Layer_Color=16711680*
%FSLAX25Y25*%
%MOIN*%
G70*
G01*
G75*
%ADD13C,0.01000*%
%ADD28C,0.00800*%
%ADD29C,0.04724*%
%ADD30R,0.04724X0.04724*%
%ADD31C,0.05906*%
%ADD32R,0.05906X0.05906*%
%ADD33R,0.05906X0.05906*%
%ADD34C,0.12992*%
%ADD35O,0.07874X0.03937*%
%ADD36O,0.07874X0.03937*%
%ADD37C,0.05512*%
%ADD38C,0.16500*%
%ADD39R,0.04724X0.04724*%
D13*
X313500Y98500D02*
Y102453D01*
Y98500D02*
X317453D01*
X309547D02*
X313500D01*
Y94547D02*
Y98500D01*
X284500Y96500D02*
X306500Y118500D01*
X313500D01*
X11000Y138000D02*
X41500D01*
X8000Y141000D02*
X11000Y138000D01*
X115000Y76500D02*
X131500D01*
X105500Y86000D02*
X115000Y76500D01*
X131500D02*
X180000D01*
X186000Y70500D01*
X277342D01*
X306421Y41421D01*
X316264D01*
X326500Y51657D01*
X313500Y108500D02*
X318000Y113000D01*
Y156500D01*
X300500Y174000D02*
X318000Y156500D01*
X252500Y174000D02*
X300500D01*
X254500Y126000D02*
X269200D01*
X269700Y126500D01*
X284500D01*
X35500Y143500D02*
X162500D01*
X8000Y171000D02*
X35500Y143500D01*
X162500D02*
X176000Y157000D01*
X308000D01*
X244000Y23000D02*
X297842D01*
X306421Y31579D01*
X129500Y164500D02*
X213000D01*
X222500Y174000D01*
X55500Y69000D02*
X79000Y45500D01*
X163500D01*
X105500Y116000D02*
X125500Y96000D01*
X254500D01*
D28*
X371150Y195000D02*
G03*
X371150Y195000I-9650J0D01*
G01*
X319900Y156500D02*
G03*
X319343Y157843I-1900J0D01*
G01*
X319900Y156500D02*
G03*
X319341Y157846I-1900J0D01*
G01*
X306500Y120400D02*
G03*
X305156Y119843I0J-1900D01*
G01*
X306500Y120400D02*
G03*
X305154Y119841I0J-1900D01*
G01*
X319343Y111656D02*
G03*
X319900Y113000I-1343J1343D01*
G01*
X319341Y111654D02*
G03*
X319900Y113000I-1341J1346D01*
G01*
X314926Y112613D02*
G03*
X317853Y108500I-1426J-4113D01*
G01*
D02*
G03*
X317613Y109926I-4353J0D01*
G01*
X311762Y157000D02*
G03*
X304753Y158900I-3762J0D01*
G01*
Y155100D02*
G03*
X311762Y157000I3247J1900D01*
G01*
X301846Y175341D02*
G03*
X300500Y175900I-1346J-1341D01*
G01*
X301844Y175344D02*
G03*
X300500Y175900I-1343J-1343D01*
G01*
X255747D02*
G03*
X255747Y172100I-3247J-1900D01*
G01*
X288656Y126500D02*
G03*
X280804Y128400I-4156J0D01*
G01*
X269700D02*
G03*
X268415Y127900I0J-1900D01*
G01*
X269700Y128400D02*
G03*
X268415Y127900I0J-1900D01*
G01*
X280804Y124600D02*
G03*
X288656Y126500I3696J1900D01*
G01*
X269200Y124100D02*
G03*
X270484Y124600I0J1900D01*
G01*
X269200Y124100D02*
G03*
X270484Y124600I0J1900D01*
G01*
X258196Y127900D02*
G03*
X258196Y124100I-3696J-1900D01*
G01*
X213000Y162600D02*
G03*
X214346Y163159I0J1900D01*
G01*
X213000Y162600D02*
G03*
X214344Y163156I0J1900D01*
G01*
X196656Y143500D02*
G03*
X196656Y143500I-4156J0D01*
G01*
X317853Y98500D02*
G03*
X317853Y98500I-4353J0D01*
G01*
X379650Y90000D02*
G03*
X379650Y90000I-9650J0D01*
G01*
X322424Y44895D02*
G03*
X334396Y51657I4076J6763D01*
G01*
D02*
G03*
X319737Y47582I-7896J0D01*
G01*
X334396Y11500D02*
G03*
X334396Y11500I-7896J0D01*
G01*
X316264Y39521D02*
G03*
X317610Y40080I0J1900D01*
G01*
X316264Y39521D02*
G03*
X317607Y40078I0J1900D01*
G01*
X310337Y43321D02*
G03*
X304995Y45534I-3916J-1900D01*
G01*
X302309Y42847D02*
G03*
X310337Y39521I4113J-1426D01*
G01*
X288656Y96500D02*
G03*
X288457Y97770I-4156J0D01*
G01*
X285770Y100457D02*
G03*
X288656Y96500I-1270J-3957D01*
G01*
X258656Y96000D02*
G03*
X250804Y97900I-4156J0D01*
G01*
Y94100D02*
G03*
X258656Y96000I3696J1900D01*
G01*
X278689Y71841D02*
G03*
X277342Y72400I-1346J-1341D01*
G01*
X278686Y71843D02*
G03*
X277342Y72400I-1343J-1343D01*
G01*
X181887Y71926D02*
G03*
X189916Y68600I4113J-1426D01*
G01*
Y72400D02*
G03*
X184574Y74613I-3916J-1900D01*
G01*
X297842Y21100D02*
G03*
X299189Y21659I0J1900D01*
G01*
X297842Y21100D02*
G03*
X299186Y21656I0J1900D01*
G01*
X247247Y24900D02*
G03*
X247247Y21100I-3247J-1900D01*
G01*
X133726Y167000D02*
G03*
X134837Y169500I-2258J2500D01*
G01*
D02*
G03*
X131468Y172869I-3368J0D01*
G01*
X134250Y166400D02*
G03*
X133726Y167000I-2781J-1900D01*
G01*
Y162000D02*
G03*
X134250Y162600I-2258J2500D01*
G01*
X176000Y158900D02*
G03*
X174654Y158341I0J-1900D01*
G01*
X176000Y158900D02*
G03*
X174656Y158344I0J-1900D01*
G01*
X166656Y143500D02*
G03*
X166457Y144770I-4156J0D01*
G01*
X163770Y147457D02*
G03*
X158804Y145400I-1270J-3957D01*
G01*
Y141600D02*
G03*
X166656Y143500I3696J1900D01*
G01*
X169156Y121500D02*
G03*
X169156Y121500I-4156J0D01*
G01*
X131468Y156131D02*
G03*
X134837Y159500I0J3368D01*
G01*
D02*
G03*
X133726Y162000I-3368J0D01*
G01*
X135656Y106500D02*
G03*
X135656Y106500I-4156J0D01*
G01*
X68650Y194000D02*
G03*
X68650Y194000I-9650J0D01*
G01*
X12156Y171000D02*
G03*
X9270Y167043I-4156J0D01*
G01*
X127532Y172869D02*
G03*
X125274Y167000I0J-3368D01*
G01*
D02*
G03*
X125274Y162000I2258J-2500D01*
G01*
D02*
G03*
X127532Y156131I2258J-2500D01*
G01*
X34154Y142159D02*
G03*
X35500Y141600I1346J1341D01*
G01*
X40407D02*
G03*
X38253Y139900I1093J-3600D01*
G01*
X34157Y142157D02*
G03*
X35500Y141600I1343J1343D01*
G01*
X109457Y114730D02*
G03*
X109656Y116000I-3957J1270D01*
G01*
D02*
G03*
X106770Y112043I-4156J0D01*
G01*
X45262Y138000D02*
G03*
X42593Y141600I-3762J0D01*
G01*
X38253Y136100D02*
G03*
X45262Y138000I3247J1900D01*
G01*
X11957Y169730D02*
G03*
X12156Y171000I-3957J1270D01*
G01*
X12008Y139900D02*
G03*
X12156Y141000I-4008J1100D01*
G01*
D02*
G03*
X9270Y137043I-4156J0D01*
G01*
X9654Y136659D02*
G03*
X11000Y136100I1346J1341D01*
G01*
X9657Y136656D02*
G03*
X11000Y136100I1343J1343D01*
G01*
X169156Y91500D02*
G03*
X168242Y94100I-4156J0D01*
G01*
X161758D02*
G03*
X169156Y91500I3242J-2600D01*
G01*
X181346Y77841D02*
G03*
X180000Y78400I-1346J-1341D01*
G01*
X181343Y77843D02*
G03*
X180000Y78400I-1343J-1343D01*
G01*
X124154Y94659D02*
G03*
X125500Y94100I1346J1341D01*
G01*
X124156Y94656D02*
G03*
X125500Y94100I1343J1343D01*
G01*
X135196Y78400D02*
G03*
X127804Y78400I-3696J-1900D01*
G01*
X167656Y45500D02*
G03*
X159804Y47400I-4156J0D01*
G01*
Y43600D02*
G03*
X167656Y45500I3696J1900D01*
G01*
Y15500D02*
G03*
X167656Y15500I-4156J0D01*
G01*
X127804Y74600D02*
G03*
X135196Y74600I3696J1900D01*
G01*
X113654Y75159D02*
G03*
X115000Y74600I1346J1341D01*
G01*
X113656Y75156D02*
G03*
X115000Y74600I1343J1343D01*
G01*
X109656Y86000D02*
G03*
X106770Y82043I-4156J0D01*
G01*
X109457Y84730D02*
G03*
X109656Y86000I-3957J1270D01*
G01*
X77654Y44159D02*
G03*
X79000Y43600I1346J1341D01*
G01*
X77657Y44157D02*
G03*
X79000Y43600I1343J1343D01*
G01*
X59262Y39000D02*
G03*
X59262Y39000I-3762J0D01*
G01*
X22650Y13000D02*
G03*
X22650Y13000I-9650J0D01*
G01*
X382000Y209100D02*
X389100D01*
X370410Y198705D02*
X380806Y209100D01*
X371062Y193699D02*
X386463Y209100D01*
X371033Y196499D02*
X383634Y209100D01*
X369408Y200531D02*
X377977Y209100D01*
X368094Y202045D02*
X375149Y209100D01*
X366374D02*
X389100Y186374D01*
X383345Y209100D02*
X389100Y203345D01*
X386174Y209100D02*
X389100Y206173D01*
X377688Y209100D02*
X389100Y197688D01*
X380517Y209100D02*
X389100Y200517D01*
X372031Y209100D02*
X389100Y192031D01*
X374860Y209100D02*
X389100Y194860D01*
X369203Y209100D02*
X389100Y189203D01*
X352232Y209100D02*
X357535Y203798D01*
X349404Y209100D02*
X355752Y202752D01*
X346575Y209100D02*
X354277Y201399D01*
X343747Y209100D02*
X353099Y199748D01*
X340919Y209100D02*
X352254Y197764D01*
X338090Y209100D02*
X351856Y195334D01*
X335262Y209100D02*
X352312Y192050D01*
X364548Y204156D02*
X369492Y209100D01*
X362189Y204625D02*
X366664Y209100D01*
X366484Y203263D02*
X372321Y209100D01*
X360718D02*
X366668Y203149D01*
X357889Y209100D02*
X362379Y204610D01*
X355061Y209100D02*
X359683Y204478D01*
X359076Y204341D02*
X363835Y209100D01*
X369649Y200168D02*
X389100Y180718D01*
X363546Y209100D02*
X389100Y183546D01*
X370977Y193183D02*
X389100Y175061D01*
X371110Y195879D02*
X389100Y177889D01*
X323948Y209100D02*
X389100Y143948D01*
X332433Y209100D02*
X389100Y152433D01*
X319900Y125567D02*
X389100Y194767D01*
X369252Y189252D02*
X389100Y169404D01*
X370298Y191035D02*
X389100Y172232D01*
X366248Y186599D02*
X389100Y163747D01*
X367899Y187777D02*
X389100Y166576D01*
X361834Y185356D02*
X389100Y158090D01*
X364264Y185754D02*
X389100Y160919D01*
X358550Y185812D02*
X389100Y155262D01*
X329605Y209100D02*
X389100Y149605D01*
X321120Y209100D02*
X389100Y141120D01*
X326777Y209100D02*
X389100Y146776D01*
X319900Y128395D02*
X389100Y197595D01*
X319900Y131224D02*
X389100Y200424D01*
X319900Y119910D02*
X389100Y189110D01*
X319900Y145366D02*
X360001Y185467D01*
X319900Y148194D02*
X357795Y186090D01*
X319900Y142537D02*
X362801Y185438D01*
X319900Y151023D02*
X355969Y187092D01*
X319900Y153851D02*
X354455Y188406D01*
X319900Y117081D02*
X389100Y186282D01*
X311556Y190762D02*
X329894Y209100D01*
X308728Y190762D02*
X327066Y209100D01*
X311762Y185311D02*
X335551Y209100D01*
X311762Y188140D02*
X332722Y209100D01*
X305899Y190762D02*
X324237Y209100D01*
X288209Y175900D02*
X321409Y209100D01*
X303233Y173954D02*
X338379Y209100D01*
X304238Y190762D02*
X311762D01*
X292835Y209100D02*
X311173Y190762D01*
X311762Y183238D02*
Y190762D01*
X311173D02*
X311762Y190173D01*
X282552Y175900D02*
X315752Y209100D01*
X279724Y175900D02*
X312924Y209100D01*
X285380Y175900D02*
X318580Y209100D01*
X290007D02*
X308345Y190762D01*
X287178Y209100D02*
X305516Y190762D01*
X276895Y175900D02*
X310095Y209100D01*
X278693D02*
X304238Y183555D01*
X271238Y175900D02*
X304438Y209100D01*
X268410Y175900D02*
X301610Y209100D01*
X274067Y175900D02*
X307267Y209100D01*
X293866Y175900D02*
X304238Y186272D01*
Y183238D02*
Y190762D01*
X291037Y175900D02*
X304238Y189101D01*
X281522Y209100D02*
X304238Y186384D01*
X284350Y209100D02*
X304238Y189212D01*
X267379Y209100D02*
X300581Y175898D01*
X315463Y209100D02*
X389100Y135463D01*
X318291Y209100D02*
X389100Y138291D01*
X309806Y209100D02*
X389100Y129806D01*
X312634Y209100D02*
X389100Y132634D01*
X304149Y209100D02*
X389100Y124149D01*
X306978Y209100D02*
X389100Y126978D01*
X295664Y209100D02*
X389100Y115664D01*
X319900Y136881D02*
X389100Y206081D01*
X319900Y139709D02*
X389100Y208909D01*
X319900Y122738D02*
X389100Y191938D01*
X319900Y134052D02*
X389100Y203252D01*
X311762Y190173D02*
X389100Y112835D01*
X298492Y209100D02*
X389100Y118492D01*
X311762Y187345D02*
X389100Y110007D01*
X311719Y165469D02*
X355350Y209100D01*
X310304Y166883D02*
X352521Y209100D01*
X314547Y162640D02*
X361007Y209100D01*
X313133Y164054D02*
X358178Y209100D01*
X306062Y171125D02*
X344036Y209100D01*
X304647Y172540D02*
X341208Y209100D01*
X301321D02*
X389100Y121321D01*
X318790Y158397D02*
X352344Y191952D01*
X317375Y159812D02*
X351875Y194311D01*
X319892Y156672D02*
X353237Y190016D01*
X308890Y168297D02*
X349693Y209100D01*
X307476Y169711D02*
X346865Y209100D01*
X315961Y161226D02*
X352160Y197424D01*
X319900Y114253D02*
X389100Y183453D01*
X319900Y113000D02*
Y156500D01*
X310742Y154424D02*
X316100Y149066D01*
X311696Y156298D02*
X316100Y151894D01*
Y122853D02*
Y155713D01*
X311529Y122853D02*
X316100Y127424D01*
X309147Y122853D02*
X316100D01*
Y113787D02*
Y114147D01*
X314358Y122853D02*
X316100Y124595D01*
X306228Y120380D02*
X316100Y130252D01*
X308972Y153366D02*
X316100Y146237D01*
X309147Y114147D02*
X316100D01*
X311075Y159168D02*
X311860Y159953D01*
X309520Y160442D02*
X310446Y161367D01*
X311762Y157027D02*
X313274Y158539D01*
X309147Y120400D02*
Y122853D01*
X306823Y160573D02*
X309032Y162782D01*
X314249Y114147D02*
X315355Y113042D01*
X312784Y112793D02*
X314137Y114147D01*
X311420D02*
X312776Y112792D01*
X307287Y116600D02*
X309147D01*
X306500Y120400D02*
X309147D01*
Y114147D02*
Y116600D01*
X314113Y102809D02*
X389100Y177796D01*
X317778Y109303D02*
X389100Y180625D01*
X317398Y100437D02*
X389100Y172139D01*
X316113Y101981D02*
X389100Y174968D01*
X310212Y183238D02*
X389100Y104350D01*
X311762Y184516D02*
X389100Y107178D01*
X307384Y183238D02*
X389100Y101522D01*
X372772Y99243D02*
X389100Y115571D01*
X370345Y99644D02*
X389100Y118399D01*
X374755Y98397D02*
X389100Y112742D01*
X367065Y99193D02*
X389100Y121228D01*
X319900Y150923D02*
X371254Y99568D01*
X319900Y148094D02*
X368467Y99527D01*
X317828Y98039D02*
X389100Y169311D01*
X314926Y112613D02*
X316100Y113787D01*
X319900Y145266D02*
X366267Y98899D01*
X306713Y116026D02*
X310814Y111925D01*
X305299Y114612D02*
X309560Y110351D01*
X317613Y109926D02*
X319341Y111654D01*
X312893Y104190D02*
X314305Y102778D01*
X304238Y183238D02*
X311762D01*
X301819Y175368D02*
X309689Y183238D01*
X301846Y175341D02*
X319341Y157846D01*
X299713Y172100D02*
X316100Y155713D01*
X295894Y172100D02*
X307298Y160696D01*
X299522Y175900D02*
X306860Y183238D01*
X298723Y172100D02*
X316100Y154723D01*
X302322Y158900D02*
X307617Y164196D01*
X304409Y155100D02*
X316100Y143409D01*
X298752Y155100D02*
X316100Y137752D01*
X301580Y155100D02*
X316100Y140580D01*
X295924Y155100D02*
X316100Y134924D01*
X304238Y183555D02*
X304555Y183238D01*
X296694Y175900D02*
X304238Y183444D01*
X293066Y172100D02*
X305424Y159742D01*
X255747Y175900D02*
X300500D01*
X290237Y172100D02*
X303437Y158900D01*
X296665D02*
X304789Y167024D01*
X293836Y158900D02*
X303375Y168438D01*
X299493Y158900D02*
X306203Y165610D01*
X287409Y172100D02*
X300609Y158900D01*
X288179D02*
X300546Y171267D01*
X291008Y158900D02*
X301960Y169853D01*
X290267Y155100D02*
X316100Y129267D01*
X293095Y155100D02*
X316100Y132095D01*
X304555Y183238D02*
X389100Y98693D01*
X288380Y127988D02*
X316100Y155708D01*
X287438Y155100D02*
X316100Y126438D01*
X287212Y129649D02*
X314688Y157125D01*
X284610Y155100D02*
X316100Y123610D01*
X288460Y125240D02*
X316100Y152880D01*
X302470Y111784D02*
X311763Y102491D01*
X301056Y110369D02*
X310148Y101277D01*
X299642Y108955D02*
X309234Y99363D01*
X281781Y155100D02*
X314029Y122853D01*
X278953Y155100D02*
X311200Y122853D01*
X283570Y100550D02*
X316100Y133080D01*
X277478Y128400D02*
X304178Y155100D01*
X274650Y128400D02*
X301350Y155100D01*
X276125D02*
X309147Y122077D01*
X273296Y155100D02*
X307996Y120400D01*
X270468Y155100D02*
X305471Y120097D01*
X267639Y155100D02*
X304026Y118713D01*
X261982Y155100D02*
X301198Y115885D01*
X303885Y113198D02*
X309190Y107893D01*
X288574Y125680D02*
X299783Y114471D01*
X285770Y100457D02*
X305154Y119841D01*
X285311Y130576D02*
X307973Y153238D01*
X280307Y128400D02*
X305832Y153925D01*
X264811Y155100D02*
X302612Y117299D01*
X262753Y175900D02*
X295953Y209100D01*
X261723D02*
X294923Y175900D01*
X265581D02*
X298781Y209100D01*
X264551D02*
X297751Y175900D01*
X257096D02*
X290296Y209100D01*
X255093Y176726D02*
X287468Y209100D01*
X259925Y175900D02*
X293125Y209100D01*
X278924Y172100D02*
X292124Y158900D01*
X258894Y209100D02*
X292094Y175900D01*
X281752Y172100D02*
X294952Y158900D01*
X279694D02*
X292894Y172100D01*
X256066Y209100D02*
X289266Y175900D01*
X253237Y209100D02*
X286437Y175900D01*
X255747Y172100D02*
X299713D01*
X253230Y177691D02*
X284639Y209100D01*
X250409D02*
X283609Y175900D01*
X247580Y209100D02*
X280780Y175900D01*
X244752Y209100D02*
X277952Y175900D01*
X233438Y209100D02*
X266638Y175900D01*
X230610Y209100D02*
X263810Y175900D01*
X241924Y209100D02*
X275124Y175900D01*
X265552Y158900D02*
X278752Y172100D01*
X264781D02*
X277981Y158900D01*
X268380D02*
X281580Y172100D01*
X267610D02*
X280810Y158900D01*
X239095Y209100D02*
X272295Y175900D01*
X236267Y209100D02*
X269467Y175900D01*
X276866Y158900D02*
X290066Y172100D01*
X276095D02*
X289295Y158900D01*
X284580Y172100D02*
X297780Y158900D01*
X282523D02*
X295723Y172100D01*
X231611Y158900D02*
X281811Y209100D01*
X228782Y158900D02*
X278982Y209100D01*
X274037Y158900D02*
X287237Y172100D01*
X271209Y158900D02*
X284409Y172100D01*
X270438D02*
X283638Y158900D01*
X285351D02*
X298551Y172100D01*
X273267D02*
X286467Y158900D01*
X261953Y172100D02*
X275153Y158900D01*
X259895D02*
X273095Y172100D01*
X262723Y158900D02*
X275923Y172100D01*
X256296D02*
X269496Y158900D01*
X254238D02*
X267438Y172100D01*
X259125D02*
X272325Y158900D01*
X257067D02*
X270267Y172100D01*
X242924Y158900D02*
X256124Y172100D01*
X234439Y158900D02*
X248809Y173270D01*
X251410Y158900D02*
X264610Y172100D01*
X252502Y170238D02*
X263839Y158900D01*
X248581D02*
X261781Y172100D01*
X254653Y170915D02*
X266668Y158900D01*
X240096D02*
X251555Y170359D01*
X237268Y158900D02*
X249774Y171407D01*
X245753Y158900D02*
X258953Y172100D01*
X222189Y177762D02*
X253526Y209100D01*
X219360Y177762D02*
X250698Y209100D01*
X219296D02*
X250962Y177434D01*
X216468Y209100D02*
X249415Y176153D01*
X213639Y209100D02*
X248738Y174002D01*
X193856Y166400D02*
X236556Y209100D01*
X191027Y166400D02*
X233727Y209100D01*
X227781D02*
X260981Y175900D01*
X226262Y176179D02*
X259183Y209100D01*
X226262Y170522D02*
X264840Y209100D01*
X226262Y173351D02*
X262012Y209100D01*
X225017Y177762D02*
X256355Y209100D01*
X222125D02*
X253639Y177586D01*
X224953Y209100D02*
X258153Y175900D01*
X193840Y209100D02*
X225178Y177762D01*
X191012Y209100D02*
X222350Y177762D01*
X185371Y166400D02*
X228071Y209100D01*
X188183D02*
X219521Y177762D01*
X185355Y209100D02*
X218738Y175717D01*
X182527Y209100D02*
X218720Y172907D01*
X182542Y166400D02*
X225242Y209100D01*
X225978Y170238D02*
X226262Y170522D01*
X221425Y170238D02*
X226262D01*
Y177762D01*
X218738D02*
X226262D01*
X218738Y177140D02*
X219360Y177762D01*
X218738Y172925D02*
Y177762D01*
X220297Y158900D02*
X270497Y209100D01*
X217469Y158900D02*
X267669Y209100D01*
X225954Y158900D02*
X276154Y209100D01*
X223126Y158900D02*
X273325Y209100D01*
X207982D02*
X258182Y158900D01*
X205154Y209100D02*
X255354Y158900D01*
X210811Y209100D02*
X261011Y158900D01*
X205170Y166400D02*
X247870Y209100D01*
X202341Y166400D02*
X245041Y209100D01*
X202326D02*
X252526Y158900D01*
X226262Y176678D02*
X244040Y158900D01*
X199497Y209100D02*
X249697Y158900D01*
X199513Y166400D02*
X242213Y209100D01*
X196669D02*
X246869Y158900D01*
X212213Y166400D02*
X218738Y172925D01*
X210826Y166400D02*
X218738Y174311D01*
X226262Y173850D02*
X241212Y158900D01*
X226262Y171021D02*
X238383Y158900D01*
X196684Y166400D02*
X239384Y209100D01*
X188199Y166400D02*
X230899Y209100D01*
X207998Y166400D02*
X218738Y177140D01*
X221407Y170220D02*
X232727Y158900D01*
X219993Y168806D02*
X229899Y158900D01*
X224217Y170238D02*
X235555Y158900D01*
X214640D02*
X225978Y170238D01*
X214346Y163159D02*
X221425Y170238D01*
X211812Y158900D02*
X223149Y170238D01*
X271821Y128400D02*
X298521Y155100D01*
X268722Y128129D02*
X295693Y155100D01*
X265665Y127900D02*
X292865Y155100D01*
X262836Y127900D02*
X290036Y155100D01*
X257802Y128523D02*
X284379Y155100D01*
X259154D02*
X283680Y130574D01*
X260008Y127900D02*
X287208Y155100D01*
X256326D02*
X281782Y129644D01*
X256230Y129779D02*
X281551Y155100D01*
X269700Y128400D02*
X280804D01*
X253497Y155100D02*
X280197Y128400D01*
X253701Y130078D02*
X278723Y155100D01*
X250669D02*
X277369Y128400D01*
X247840Y155100D02*
X274540Y128400D01*
X245012Y155100D02*
X271712Y128400D01*
X242183Y155100D02*
X269012Y128271D01*
X239355Y155100D02*
X266555Y127900D01*
X228042Y155100D02*
X253196Y129946D01*
X225213Y155100D02*
X251469Y128844D01*
X236526Y155100D02*
X263726Y127900D01*
X258196D02*
X268415D01*
X233699Y155100D02*
X260898Y127900D01*
X230870Y155100D02*
X256160Y129810D01*
X222385Y155100D02*
X250470Y127015D01*
X278340Y124600D02*
X294127Y108814D01*
X275512Y124600D02*
X292712Y107399D01*
X272683Y124600D02*
X291298Y105985D01*
X270118Y124337D02*
X289884Y104571D01*
X261870Y124100D02*
X285417Y100554D01*
X259042Y124100D02*
X282834Y100308D01*
X287644Y123782D02*
X298369Y113056D01*
X285980Y122617D02*
X296955Y111642D01*
X283224Y122545D02*
X295541Y110228D01*
X267527Y124100D02*
X288470Y103157D01*
X264699Y124100D02*
X287056Y101743D01*
X256933Y99369D02*
X281351Y123788D01*
X257344Y122969D02*
X281238Y99075D01*
X270484Y124600D02*
X280804D01*
X254874Y100139D02*
X279335Y124600D01*
X246978Y97900D02*
X273678Y124600D01*
X244150Y97900D02*
X270850Y124600D01*
X258196Y124100D02*
X269200D01*
X241321Y97900D02*
X267522Y124100D01*
X235665Y97900D02*
X261865Y124100D01*
X230008Y97900D02*
X253984Y121876D01*
X224351Y97900D02*
X250721Y124270D01*
X232836Y97900D02*
X259036Y124100D01*
X215750Y164563D02*
X221413Y158900D01*
X214336Y163149D02*
X218585Y158900D01*
X218579Y167392D02*
X227070Y158900D01*
X217164Y165977D02*
X224242Y158900D01*
X203571Y162600D02*
X207271Y158900D01*
X208983D02*
X212683Y162600D01*
X206399D02*
X210100Y158900D01*
X212056Y162600D02*
X215756Y158900D01*
X209228Y162600D02*
X212928Y158900D01*
X203327D02*
X207027Y162600D01*
X200743D02*
X204443Y158900D01*
X206155D02*
X209855Y162600D01*
X189184Y158900D02*
X192884Y162600D01*
X186600D02*
X190301Y158900D01*
X192013D02*
X195713Y162600D01*
X189429D02*
X193129Y158900D01*
X183772Y162600D02*
X187472Y158900D01*
X183527D02*
X187227Y162600D01*
X186356Y158900D02*
X190056Y162600D01*
X197914D02*
X201614Y158900D01*
X197670D02*
X201370Y162600D01*
X200498Y158900D02*
X204198Y162600D01*
X194841Y158900D02*
X198541Y162600D01*
X192257D02*
X195957Y158900D01*
X195086Y162600D02*
X198786Y158900D01*
X213037Y97900D02*
X270237Y155100D01*
X210209Y97900D02*
X267409Y155100D01*
X218694Y97900D02*
X275894Y155100D01*
X215866Y97900D02*
X273066Y155100D01*
X204552Y97900D02*
X261752Y155100D01*
X201724Y97900D02*
X258924Y155100D01*
X207380Y97900D02*
X264580Y155100D01*
X199757D02*
X254707Y100151D01*
X219556Y155100D02*
X251264Y123392D01*
X196929Y155100D02*
X252427Y99602D01*
X221522Y97900D02*
X250422Y126799D01*
X196067Y97900D02*
X253267Y155100D01*
X194100D02*
X250984Y98216D01*
X193238Y97900D02*
X250438Y155100D01*
X195930Y145847D02*
X205183Y155100D01*
X194434Y147179D02*
X202355Y155100D01*
X191272D02*
X248472Y97900D01*
X196649Y143737D02*
X208012Y155100D01*
X185615D02*
X193103Y147612D01*
X182787Y155100D02*
X190660Y147227D01*
X184753Y97900D02*
X241953Y155100D01*
X196227Y141660D02*
X239987Y97900D01*
X194930Y140129D02*
X237158Y97900D01*
X196612Y144103D02*
X242815Y97900D01*
X192059Y147632D02*
X199527Y155100D01*
X192869Y139360D02*
X234330Y97900D01*
X377756Y95741D02*
X389100Y107085D01*
X376405Y97218D02*
X389100Y109914D01*
X379479Y91808D02*
X389100Y101429D01*
X378801Y93958D02*
X389100Y104257D01*
X319900Y153751D02*
X389100Y84551D01*
X319898Y156581D02*
X389100Y87379D01*
X324278Y59234D02*
X389100Y124056D01*
X378131Y84802D02*
X389100Y95772D01*
X379609Y89109D02*
X389100Y98600D01*
X379527Y88467D02*
X389100Y78894D01*
X379568Y91255D02*
X389100Y81723D01*
X374959Y81722D02*
X389100Y67580D01*
X376574Y82935D02*
X389100Y70409D01*
X373018Y80834D02*
X389100Y64752D01*
X319900Y142437D02*
X364446Y97891D01*
X319900Y139609D02*
X362935Y96574D01*
X319900Y136780D02*
X361722Y94959D01*
X319900Y133952D02*
X360834Y93018D01*
X319900Y131124D02*
X360372Y90652D01*
X319900Y128295D02*
X360674Y87521D01*
X378899Y86267D02*
X389100Y76066D01*
X377891Y84446D02*
X389100Y73237D01*
X331388Y57859D02*
X360757Y87227D01*
X327377Y59505D02*
X360807Y92935D01*
X329614Y58913D02*
X360356Y89655D01*
X319900Y122638D02*
X389100Y53438D01*
X319900Y125467D02*
X389100Y56267D01*
X307774Y45558D02*
X389100Y126884D01*
X319900Y119810D02*
X389100Y50610D01*
X303544Y46985D02*
X389100Y132541D01*
X302130Y48400D02*
X389100Y135370D01*
X304958Y45571D02*
X389100Y129713D01*
X319900Y114153D02*
X389100Y44953D01*
X319900Y116981D02*
X389100Y47781D01*
X323407Y18765D02*
X389100Y84458D01*
X326858Y19388D02*
X389100Y81630D01*
X318042Y110355D02*
X389100Y39296D01*
X319451Y111774D02*
X389100Y42125D01*
X317792Y107776D02*
X389100Y36468D01*
X317778Y99305D02*
X389100Y27982D01*
X316925Y105814D02*
X389100Y33639D01*
Y1900D02*
Y209100D01*
X317491Y96763D02*
X389100Y25154D01*
X316277Y95148D02*
X389100Y22326D01*
X315351Y104560D02*
X389100Y30811D01*
X314363Y94234D02*
X389100Y19497D01*
X334366Y52351D02*
X364259Y82244D01*
X333816Y54629D02*
X362782Y83596D01*
X333984Y49141D02*
X366042Y81199D01*
X303714Y1900D02*
X389100Y87286D01*
X332789Y56432D02*
X361603Y85245D01*
X300885Y1900D02*
X389100Y90115D01*
X287988Y62542D02*
X389100Y163654D01*
X286574Y63956D02*
X389100Y166482D01*
X290816Y59713D02*
X389100Y157997D01*
X289402Y61128D02*
X389100Y160826D01*
X273036Y209100D02*
X389100Y93036D01*
X275865Y209100D02*
X389100Y95865D01*
X270208Y209100D02*
X389100Y90208D01*
X249763Y72400D02*
X316100Y138737D01*
X252591Y72400D02*
X316100Y135909D01*
X288554Y97417D02*
X326417Y59553D01*
X288307Y94834D02*
X323996Y59146D01*
X241277Y72400D02*
X316100Y147223D01*
X238449Y72400D02*
X316100Y150051D01*
X244106Y72400D02*
X316100Y144394D01*
X288611Y97107D02*
X308105Y116600D01*
X288457Y97770D02*
X307287Y116600D01*
X275219Y72400D02*
X309531Y106713D01*
X272390Y72400D02*
X309207Y109216D01*
X246934Y72400D02*
X316100Y141566D01*
X266733Y72400D02*
X309147Y114814D01*
X269562Y72400D02*
X311309Y114147D01*
X283745Y66784D02*
X311563Y94602D01*
X282331Y68199D02*
X310019Y95887D01*
X285159Y65370D02*
X313961Y94172D01*
X279502Y71027D02*
X312697Y104222D01*
X277948Y72301D02*
X310763Y105116D01*
X280917Y69613D02*
X309191Y97887D01*
X297887Y52642D02*
X389100Y143855D01*
X296473Y54056D02*
X389100Y146683D01*
X300716Y49814D02*
X389100Y138198D01*
X299301Y51228D02*
X389100Y141027D01*
X293644Y56885D02*
X389100Y152340D01*
X292230Y58299D02*
X389100Y155169D01*
X295059Y55471D02*
X389100Y149512D01*
X296814Y106127D02*
X389100Y13840D01*
X298228Y107541D02*
X389100Y16669D01*
X298057Y1900D02*
X389100Y92943D01*
X295399Y104712D02*
X389100Y11012D01*
X292571Y101884D02*
X389100Y5355D01*
X293985Y103298D02*
X389100Y8183D01*
X291157Y100470D02*
X389100Y2527D01*
X251892Y122764D02*
X319448Y55209D01*
X216728Y155100D02*
X318735Y53092D01*
X211071Y155100D02*
X319163Y47008D01*
X213899Y155100D02*
X318726Y50273D01*
X208243Y155100D02*
X317749Y45594D01*
X205414Y155100D02*
X316335Y44179D01*
X202586Y155100D02*
X314365Y43321D01*
X289743Y99056D02*
X330128Y58671D01*
X287075Y93238D02*
X322100Y58214D01*
X295228Y1900D02*
X375198Y81869D01*
X285098Y92387D02*
X320590Y56894D01*
X258102Y93927D02*
X306258Y45771D01*
X258651Y96207D02*
X311536Y43321D01*
X367521Y80674D02*
X389100Y59095D01*
X370652Y80372D02*
X389100Y61924D01*
X334306Y12693D02*
X389100Y67487D01*
X333645Y14861D02*
X389100Y70316D01*
X331068Y17941D02*
X389100Y75973D01*
X329214Y18915D02*
X389100Y78801D01*
X332541Y16585D02*
X389100Y73144D01*
X354625Y1900D02*
X389100Y36375D01*
X351797Y1900D02*
X389100Y39203D01*
X388566Y1900D02*
X389100Y2434D01*
X385738Y1900D02*
X389100Y5262D01*
X337655Y1900D02*
X389100Y53345D01*
X334202Y9761D02*
X389100Y64659D01*
X348969Y1900D02*
X389100Y42031D01*
X343312Y1900D02*
X389100Y47688D01*
X340483Y1900D02*
X389100Y50517D01*
X360282Y1900D02*
X389100Y30718D01*
X346140Y1900D02*
X389100Y44860D01*
X334826Y1900D02*
X389100Y56174D01*
X380081Y1900D02*
X389100Y10919D01*
X377253Y1900D02*
X389100Y13747D01*
X382910Y1900D02*
X389100Y8090D01*
X363111Y1900D02*
X389100Y27889D01*
X374424Y1900D02*
X389100Y16576D01*
X333513Y55285D02*
X386898Y1900D01*
X333056Y47257D02*
X378413Y1900D01*
X334396Y51574D02*
X384070Y1900D01*
X333988Y49153D02*
X381242Y1900D01*
X329170D02*
X389100Y61831D01*
X331737Y45748D02*
X375585Y1900D01*
X331998D02*
X389100Y59002D01*
X365939Y1900D02*
X389100Y25061D01*
X357454Y1900D02*
X389100Y33546D01*
X371596Y1900D02*
X389100Y19404D01*
X368767Y1900D02*
X389100Y22232D01*
X327935Y43893D02*
X369928Y1900D01*
X325116Y43884D02*
X367099Y1900D01*
X330051Y44605D02*
X372756Y1900D01*
X333273Y7442D02*
X338815Y1900D01*
X332027Y5860D02*
X335987Y1900D01*
X334381Y11991D02*
X344472Y1900D01*
X334119Y9425D02*
X341644Y1900D01*
X320436Y42906D02*
X361443Y1900D01*
X319022Y41492D02*
X358614Y1900D01*
X321850Y44321D02*
X364271Y1900D01*
X328395Y3835D02*
X330330Y1900D01*
X326341D02*
X328239Y3798D01*
X330415Y4643D02*
X333158Y1900D01*
X323513D02*
X325307Y3695D01*
X320684Y1900D02*
X323139Y4355D01*
X325763Y3638D02*
X327502Y1900D01*
X314022Y43321D02*
X319244Y48543D01*
X311194Y43321D02*
X318653Y50780D01*
X317610Y40080D02*
X322424Y44895D01*
X315477Y43321D02*
X319737Y47582D01*
X310774Y31588D02*
X323528Y44342D01*
X309521Y44477D02*
X318923Y53879D01*
X310774Y28759D02*
X325806Y43792D01*
X310774Y32770D02*
X324425Y19119D01*
X310774Y34416D02*
X315879Y39521D01*
X310337D02*
X316264D01*
X310337Y43321D02*
X315477D01*
X310774Y35598D02*
X326991Y19381D01*
X306632Y35932D02*
X308110Y37410D01*
X309461Y35932D02*
X313051Y39521D01*
X308675Y37697D02*
X310440Y35932D01*
X278689Y71841D02*
X304995Y45534D01*
X272115Y68600D02*
X304784Y35932D01*
X310440D02*
X310774Y35598D01*
X306475Y37069D02*
X307612Y35932D01*
X310774Y27226D02*
Y35932D01*
X302068D02*
X310774D01*
X303804D02*
X305135Y37263D01*
X304755Y27226D02*
X310774D01*
X312508Y39521D02*
X350129Y1900D01*
X310102Y39098D02*
X347301Y1900D01*
X317608Y40078D02*
X355786Y1900D01*
X315336Y39521D02*
X352957Y1900D01*
X289571D02*
X368192Y80521D01*
X286743Y1900D02*
X329016Y44173D01*
X292400Y1900D02*
X370891Y80391D01*
X310774Y29941D02*
X322442Y18273D01*
X310661Y27226D02*
X320860Y17027D01*
X317856Y1900D02*
X321415Y5459D01*
X315027Y1900D02*
X320059Y6932D01*
X302051Y24522D02*
X324673Y1900D01*
X307832Y27226D02*
X319643Y15415D01*
X300637Y23108D02*
X321845Y1900D01*
X305004Y27226D02*
X318835Y13395D01*
X303466Y25936D02*
X318638Y10763D01*
X299223Y21693D02*
X319016Y1900D01*
X296988Y21100D02*
X316188Y1900D01*
X283915D02*
X309241Y27226D01*
X281086Y1900D02*
X306412Y27226D01*
X288503Y21100D02*
X307702Y1900D01*
X306542D02*
X319235Y14593D01*
X309370Y1900D02*
X318612Y11142D01*
X312199Y1900D02*
X319085Y8786D01*
X291331Y21100D02*
X310531Y1900D01*
X285674Y21100D02*
X304874Y1900D01*
X294159Y21100D02*
X313359Y1900D01*
X258228Y97836D02*
X283012Y122620D01*
X258611Y95390D02*
X285760Y122540D01*
X255515Y121970D02*
X280387Y97097D01*
X249807Y97900D02*
X276507Y124600D01*
X255419Y72400D02*
X280450Y97430D01*
X258248Y72400D02*
X280689Y94841D01*
X256716Y92484D02*
X276800Y72400D01*
X263905D02*
X283893Y92389D01*
X261076Y72400D02*
X281919Y93243D01*
X249444Y94100D02*
X271144Y72400D01*
X246615Y94100D02*
X268315Y72400D01*
X254528Y91844D02*
X273972Y72400D01*
X238493Y97900D02*
X264693Y124100D01*
X243787Y94100D02*
X265487Y72400D01*
X232473Y94100D02*
X254173Y72400D01*
X227179Y97900D02*
X251977Y122698D01*
X221478Y72400D02*
X243178Y94100D01*
X229645D02*
X251345Y72400D01*
X229964D02*
X251131Y93567D01*
X232792Y72400D02*
X252664Y92272D01*
X226816Y94100D02*
X248516Y72400D01*
X223988Y94100D02*
X245688Y72400D01*
X227135D02*
X248835Y94100D01*
X252316Y68600D02*
X296016Y24900D01*
X249488Y68600D02*
X293188Y24900D01*
X246659Y68600D02*
X290359Y24900D01*
X241002Y68600D02*
X284702Y24900D01*
X238174Y68600D02*
X281874Y24900D01*
X243831Y68600D02*
X287531Y24900D01*
X276555Y68600D02*
X302309Y42847D01*
X269287Y68600D02*
X302068Y35818D01*
X263630Y68600D02*
X302068Y30161D01*
X266458Y68600D02*
X302068Y32990D01*
X260802Y68600D02*
X300779Y28623D01*
X257973Y68600D02*
X299364Y27209D01*
X255145Y68600D02*
X297950Y25795D01*
X240958Y94100D02*
X262658Y72400D01*
X238130Y94100D02*
X259830Y72400D01*
X247762Y50600D02*
X265762Y68600D01*
X235301Y94100D02*
X257001Y72400D01*
X224307D02*
X246007Y94100D01*
X235620Y72400D02*
X255110Y91889D01*
X247762Y56257D02*
X260105Y68600D01*
X245439Y56762D02*
X257276Y68600D01*
X247762Y53429D02*
X262933Y68600D01*
X232517D02*
X244355Y56762D01*
X229689Y68600D02*
X241527Y56762D01*
X235346Y68600D02*
X247183Y56762D01*
X198895Y97900D02*
X256095Y155100D01*
X190410Y97900D02*
X247610Y155100D01*
X221159Y94100D02*
X242859Y72400D01*
X218650D02*
X240350Y94100D01*
X187581Y97900D02*
X244781Y155100D01*
X181924Y97900D02*
X239124Y155100D01*
X188444D02*
X245644Y97900D01*
X215503Y94100D02*
X237203Y72400D01*
X212993D02*
X234693Y94100D01*
X218331D02*
X240031Y72400D01*
X215822D02*
X237522Y94100D01*
X210165Y72400D02*
X231865Y94100D01*
X209846D02*
X231546Y72400D01*
X212674Y94100D02*
X234374Y72400D01*
X196022D02*
X217723Y94100D01*
X188891Y73754D02*
X209237Y94100D01*
X198851Y72400D02*
X220551Y94100D01*
X198532D02*
X220232Y72400D01*
X184334Y74853D02*
X203580Y94100D01*
X182920Y76267D02*
X200752Y94100D01*
X187036Y74728D02*
X206409Y94100D01*
X207017D02*
X228717Y72400D01*
X204508D02*
X226208Y94100D01*
X207336Y72400D02*
X229036Y94100D01*
X201679Y72400D02*
X223379Y94100D01*
X201360D02*
X223060Y72400D01*
X204189Y94100D02*
X225889Y72400D01*
X207547Y1900D02*
X274247Y68600D01*
X218375D02*
X262075Y24900D01*
X204718Y1900D02*
X271418Y68600D01*
X201890Y1900D02*
X268590Y68600D01*
X189916Y72400D02*
X277342D01*
X189916Y68600D02*
X276555D01*
X192919D02*
X259619Y1900D01*
X204233Y68600D02*
X247933Y24900D01*
X201405Y68600D02*
X243307Y26698D01*
X215547Y68600D02*
X259247Y24900D01*
X212718Y68600D02*
X256418Y24900D01*
X190091Y68600D02*
X256791Y1900D01*
X198576Y68600D02*
X241429Y25747D01*
X182091Y1900D02*
X248791Y68600D01*
X192875Y94100D02*
X214575Y72400D01*
X190366D02*
X212066Y94100D01*
X195703D02*
X217404Y72400D01*
X193194D02*
X214894Y94100D01*
X187218D02*
X208918Y72400D01*
X184390Y94100D02*
X206090Y72400D01*
X190047Y94100D02*
X211747Y72400D01*
X190353Y61073D02*
X197879Y68600D01*
X190353Y63902D02*
X195051Y68600D01*
X190353Y58245D02*
X200708Y68600D01*
X188475Y64853D02*
X192222Y68600D01*
X281459Y24900D02*
X300857Y44298D01*
X278630Y24900D02*
X299443Y45713D01*
X287116Y24900D02*
X302284Y40068D01*
X284287Y24900D02*
X302271Y42884D01*
X274944Y68600D02*
X302069Y41475D01*
X275802Y24900D02*
X298029Y47127D01*
X272973Y24900D02*
X296614Y48541D01*
X297055Y24900D02*
X302068Y29913D01*
Y35932D01*
X299189Y21659D02*
X304755Y27226D01*
X295601Y24900D02*
X302068Y31368D01*
X289944Y24900D02*
X303365Y38321D01*
X247247Y24900D02*
X297055D01*
X292772D02*
X302068Y34196D01*
X253174Y24900D02*
X286715Y58441D01*
X250346Y24900D02*
X285301Y59855D01*
X258831Y24900D02*
X289543Y55612D01*
X256003Y24900D02*
X288129Y57026D01*
X247762Y56183D02*
X279046Y24900D01*
X247762Y49238D02*
Y56762D01*
X247517Y24900D02*
X283887Y61269D01*
X267317Y24900D02*
X293786Y51369D01*
X264488Y24900D02*
X292372Y52784D01*
X270145Y24900D02*
X295200Y49955D01*
X247762Y53355D02*
X276217Y24900D01*
X247762Y50526D02*
X273389Y24900D01*
X261660D02*
X290957Y54198D01*
X282846Y21100D02*
X302046Y1900D01*
X280017Y21100D02*
X299217Y1900D01*
X247247Y21100D02*
X297842D01*
X277189D02*
X296389Y1900D01*
X278258D02*
X297458Y21100D01*
X272601Y1900D02*
X291801Y21100D01*
X271532D02*
X290732Y1900D01*
X275429D02*
X294629Y21100D01*
X274360D02*
X293560Y1900D01*
X268704Y21100D02*
X287903Y1900D01*
X266944D02*
X286144Y21100D01*
X269772Y1900D02*
X288972Y21100D01*
X254561D02*
X273761Y1900D01*
X252802D02*
X272002Y21100D01*
X257390D02*
X276590Y1900D01*
X255630D02*
X274830Y21100D01*
X249973Y1900D02*
X269173Y21100D01*
X248904D02*
X268105Y1900D01*
X251733Y21100D02*
X270933Y1900D01*
X264116D02*
X283316Y21100D01*
X263047D02*
X282247Y1900D01*
X265875Y21100D02*
X285075Y1900D01*
X260218Y21100D02*
X279418Y1900D01*
X258459D02*
X277659Y21100D01*
X261287Y1900D02*
X280487Y21100D01*
X242610Y56762D02*
X254448Y68600D01*
X247183Y56762D02*
X247762Y56183D01*
X245985Y26196D02*
X282472Y62683D01*
X243712Y26751D02*
X281058Y64097D01*
X209890Y68600D02*
X253590Y24900D01*
X240238Y56762D02*
X247762D01*
X207061Y68600D02*
X250761Y24900D01*
X240566Y49238D02*
X264903Y24900D01*
X240238Y49566D02*
X240566Y49238D01*
X246222D02*
X270560Y24900D01*
X243394Y49238D02*
X267732Y24900D01*
X240238Y49238D02*
X247762D01*
X235831Y1900D02*
X255031Y21100D01*
X224032Y68600D02*
X240238Y52394D01*
X226860Y68600D02*
X240238Y55222D01*
X195748Y68600D02*
X240368Y23980D01*
X221203Y68600D02*
X240238Y49566D01*
X185647Y64853D02*
X187076Y66282D01*
X182818Y64853D02*
X184413Y66447D01*
X186811Y66223D02*
X188181Y64853D01*
X240238Y49238D02*
Y56762D01*
X190353Y56147D02*
Y64853D01*
X185573Y56147D02*
X239820Y1900D01*
X181647Y56147D02*
X190353D01*
X181647Y64853D02*
X190353D01*
X181647Y56147D02*
Y64853D01*
X213204Y1900D02*
X278230Y66926D01*
X210375Y1900D02*
X276815Y68340D01*
X216032Y1900D02*
X279644Y65512D01*
X244317Y1900D02*
X263517Y21100D01*
X188742Y67120D02*
X253962Y1900D01*
X184920D02*
X251620Y68600D01*
X190353Y62681D02*
X251134Y1900D01*
X244980Y19368D02*
X262448Y1900D01*
X241488D02*
X260688Y21100D01*
X247145Y1900D02*
X266345Y21100D01*
X246747Y20429D02*
X265276Y1900D01*
X233003D02*
X252203Y21100D01*
X230174Y1900D02*
X249374Y21100D01*
X238660Y1900D02*
X257860Y21100D01*
X190353Y59853D02*
X248306Y1900D01*
X190353Y57024D02*
X245477Y1900D01*
X196233D02*
X243571Y49238D01*
X190576Y1900D02*
X240238Y51561D01*
X187748Y1900D02*
X240238Y54390D01*
X182745Y56147D02*
X236992Y1900D01*
X188401Y56147D02*
X242649Y1900D01*
X224517D02*
X242274Y19657D01*
X221689Y1900D02*
X240804Y21015D01*
X227346Y1900D02*
X244762Y19316D01*
X199062Y1900D02*
X246399Y49238D01*
X193405Y1900D02*
X240743Y49238D01*
X218861Y1900D02*
X240249Y23288D01*
X171213Y209100D02*
X213063Y167250D01*
X168400Y166400D02*
X211100Y209100D01*
X168385D02*
X211085Y166400D01*
X165572D02*
X208272Y209100D01*
X165556D02*
X208256Y166400D01*
X162743D02*
X205443Y209100D01*
X165572Y166400D02*
X208272Y209100D01*
X179699D02*
X217306Y171493D01*
X176870Y209100D02*
X215892Y170079D01*
X179714Y166400D02*
X222414Y209100D01*
X176885Y166400D02*
X219585Y209100D01*
X174057Y166400D02*
X216757Y209100D01*
X174042D02*
X214477Y168664D01*
X171228Y166400D02*
X213928Y209100D01*
X148601Y166400D02*
X191301Y209100D01*
X145773Y166400D02*
X188473Y209100D01*
X151429Y166400D02*
X194129Y209100D01*
X151414D02*
X194114Y166400D01*
X142929Y209100D02*
X185629Y166400D01*
X140116D02*
X182816Y209100D01*
X142944Y166400D02*
X185644Y209100D01*
X159899D02*
X202600Y166400D01*
X157086D02*
X199786Y209100D01*
X162728D02*
X205428Y166400D01*
X159915D02*
X202615Y209100D01*
X154258Y166400D02*
X196958Y209100D01*
X154243D02*
X196943Y166400D01*
X157071Y209100D02*
X199771Y166400D01*
X178115Y162600D02*
X181815Y158900D01*
X177871D02*
X181571Y162600D01*
X180944D02*
X184644Y158900D01*
X180699D02*
X184399Y162600D01*
X145757Y209100D02*
X188457Y166400D01*
X140101Y209100D02*
X182800Y166400D01*
X148586Y209100D02*
X191286Y166400D01*
X175287Y162600D02*
X178987Y158900D01*
X172458Y162600D02*
X176158Y158900D01*
X169630Y162600D02*
X174272Y157958D01*
X166802Y162600D02*
X172857Y156544D01*
X163639Y147497D02*
X178742Y162600D01*
X160400Y147086D02*
X175914Y162600D01*
X155885Y145400D02*
X173085Y162600D01*
X152659D02*
X165786Y149473D01*
X149831Y162600D02*
X164372Y148059D01*
X147400Y145400D02*
X164600Y162600D01*
X144174D02*
X159974Y146800D01*
X141346Y162600D02*
X158546Y145400D01*
X138915D02*
X156115Y162600D01*
X141743Y145400D02*
X158943Y162600D01*
X163973D02*
X171443Y155130D01*
X161145Y162600D02*
X170029Y153716D01*
X158316Y162600D02*
X168615Y152302D01*
X153057Y145400D02*
X170257Y162600D01*
X155488D02*
X167200Y150887D01*
X150228Y145400D02*
X167428Y162600D01*
X137287Y166400D02*
X179987Y209100D01*
X134835Y169605D02*
X174330Y209100D01*
X137272D02*
X179972Y166400D01*
X134459D02*
X177159Y209100D01*
X1400D02*
X382000D01*
X131615D02*
X174315Y166400D01*
X134444Y209100D02*
X177144Y166400D01*
X132330Y172757D02*
X168674Y209100D01*
X129614Y172869D02*
X165845Y209100D01*
X134250Y166400D02*
X212213D01*
X134057Y171655D02*
X171502Y209100D01*
X125958D02*
X168658Y166400D01*
X123130Y209100D02*
X165830Y166400D01*
X128787Y209100D02*
X171487Y166400D01*
X126674Y172758D02*
X163017Y209100D01*
X120301D02*
X163002Y166400D01*
X117473Y209100D02*
X160173Y166400D01*
X106159Y209100D02*
X148859Y166400D01*
X97674Y209100D02*
X140374Y166400D01*
X94846Y209100D02*
X131077Y172869D01*
X103331Y209100D02*
X146031Y166400D01*
X133924Y167194D02*
X134717Y166400D01*
X134817Y169129D02*
X137546Y166400D01*
X127532Y172869D02*
X131468D01*
X114645Y209100D02*
X157345Y166400D01*
X111816Y209100D02*
X154516Y166400D01*
X96488Y145400D02*
X160188Y209100D01*
X93660Y145400D02*
X157360Y209100D01*
X88003Y145400D02*
X151703Y209100D01*
X85175Y145400D02*
X148874Y209100D01*
X90831Y145400D02*
X154531Y209100D01*
X134250Y162600D02*
X213000D01*
X138517D02*
X155717Y145400D01*
X136086D02*
X153286Y162600D01*
X130429Y145400D02*
X147629Y162600D01*
X108988Y209100D02*
X151688Y166400D01*
X127601Y145400D02*
X144801Y162600D01*
X82346Y145400D02*
X146046Y209100D01*
X100503D02*
X143202Y166400D01*
X76689Y145400D02*
X140389Y209100D01*
X73861Y145400D02*
X137561Y209100D01*
X72218D02*
X135918Y145400D01*
X68204D02*
X131904Y209100D01*
X66561D02*
X130261Y145400D01*
X71032D02*
X134732Y209100D01*
X134558Y160842D02*
X136316Y162600D01*
X134419Y157875D02*
X139144Y162600D01*
X79518Y145400D02*
X143218Y209100D01*
X69390D02*
X133090Y145400D01*
X124773D02*
X141973Y162600D01*
X176000Y158900D02*
X304753D01*
X176787Y155100D02*
X304753D01*
X179958D02*
X189128Y145930D01*
X166830Y125232D02*
X196698Y155100D01*
X164379Y125609D02*
X193870Y155100D01*
X170611Y97900D02*
X227811Y155100D01*
X168365Y123939D02*
X188368Y143941D01*
X177130Y155100D02*
X188361Y143869D01*
X169887Y148200D02*
X220188Y97900D01*
X169138Y121883D02*
X188821Y141566D01*
X166483Y144685D02*
X176899Y155100D01*
X166457Y144770D02*
X176787Y155100D01*
X166162Y141534D02*
X179727Y155100D01*
X163770Y147457D02*
X174654Y158341D01*
X147002Y162600D02*
X161979Y147623D01*
X144572Y145400D02*
X161772Y162600D01*
X144572Y145400D02*
X161772Y162600D01*
X148204Y141600D02*
X164221Y125582D01*
X145375Y141600D02*
X162309Y124667D01*
X142547Y141600D02*
X161130Y123016D01*
X139718Y141600D02*
X161022Y120296D01*
X173439Y97900D02*
X230639Y155100D01*
X167782Y97900D02*
X224982Y155100D01*
X179096Y97900D02*
X236296Y155100D01*
X176268Y97900D02*
X233468Y155100D01*
X159297Y97900D02*
X216497Y155100D01*
X156469Y97900D02*
X213669Y155100D01*
X164954Y97900D02*
X222154Y155100D01*
X172716Y151029D02*
X225845Y97900D01*
X171302Y149615D02*
X223016Y97900D01*
X175544Y153857D02*
X231502Y97900D01*
X174130Y152443D02*
X228673Y97900D01*
X162126D02*
X219325Y155100D01*
X167059Y145372D02*
X214531Y97900D01*
X168473Y146786D02*
X217359Y97900D01*
X164226Y139719D02*
X206046Y97900D01*
X161694Y139423D02*
X203217Y97900D01*
X166623Y142979D02*
X211702Y97900D01*
X165800Y140974D02*
X208874Y97900D01*
X153860Y141600D02*
X197560Y97900D01*
X147983D02*
X190153Y140070D01*
X156689Y141600D02*
X200389Y97900D01*
X168167Y118808D02*
X189075Y97900D01*
X166516Y117631D02*
X186247Y97900D01*
X169082Y120721D02*
X191903Y97900D01*
X142326D02*
X162561Y118135D01*
X139498Y97900D02*
X161268Y119670D01*
X145155Y97900D02*
X164617Y117362D01*
X135689Y162600D02*
X152889Y145400D01*
X134532Y158100D02*
X147232Y145400D01*
X135398Y107942D02*
X182556Y155100D01*
X134508Y160953D02*
X150060Y145400D01*
X133196Y156608D02*
X144404Y145400D01*
X130843Y156131D02*
X141575Y145400D01*
X133258D02*
X150458Y162600D01*
X132364Y110565D02*
X161316Y139516D01*
X114508Y109679D02*
X146428Y141600D01*
X134247Y109619D02*
X164466Y139839D01*
X115922Y108265D02*
X149257Y141600D01*
X75262D02*
X158804D01*
X36287Y145400D02*
X158804D01*
X113093Y111093D02*
X143600Y141600D01*
X128015Y156131D02*
X138747Y145400D01*
X127532Y156131D02*
X131468D01*
X121944Y145400D02*
X133094Y156549D01*
X119116Y145400D02*
X129847Y156131D01*
X110265Y113922D02*
X137943Y141600D01*
X111679Y112508D02*
X140772Y141600D01*
X109654Y116139D02*
X135115Y141600D01*
X111679Y112508D02*
X140772Y141600D01*
X108971Y118285D02*
X132286Y141600D01*
X107501Y119643D02*
X129458Y141600D01*
X100120D02*
X131085Y110635D01*
X135429Y105144D02*
X185384Y155100D01*
X136890Y141600D02*
X180590Y97900D01*
X133841D02*
X191041Y155100D01*
X134061Y141600D02*
X177761Y97900D01*
X131013D02*
X188213Y155100D01*
X128404Y141600D02*
X172105Y97900D01*
X131233Y141600D02*
X174933Y97900D01*
X121579Y102608D02*
X159547Y140576D01*
X120165Y104022D02*
X157742Y141600D01*
X122748D02*
X166448Y97900D01*
X136670D02*
X160891Y122121D01*
X114262Y141600D02*
X157962Y97900D01*
X111434Y141600D02*
X155134Y97900D01*
X119919Y141600D02*
X163619Y97900D01*
X118750Y105437D02*
X154914Y141600D01*
X117336Y106851D02*
X152085Y141600D01*
X108605D02*
X152305Y97900D01*
X105777Y141600D02*
X149477Y97900D01*
X88806Y141600D02*
X132506Y97900D01*
X85978Y141600D02*
X129678Y97900D01*
X102949Y141600D02*
X146649Y97900D01*
X134851Y104041D02*
X140992Y97900D01*
X133306Y102757D02*
X138163Y97900D01*
X135635Y106085D02*
X143820Y97900D01*
X125821Y98366D02*
X130058Y102602D01*
X130838Y102397D02*
X135335Y97900D01*
X68336Y196443D02*
X80992Y209100D01*
X67546Y198482D02*
X78164Y209100D01*
X67956Y190407D02*
X86649Y209100D01*
X68650Y193929D02*
X83821Y209100D01*
X66413Y200178D02*
X75335Y209100D01*
X64980Y201573D02*
X72507Y209100D01*
X31032Y150655D02*
X89477Y209100D01*
X92017D02*
X128249Y172869D01*
X89189Y209100D02*
X125863Y172426D01*
X86360Y209100D02*
X124497Y170963D01*
X83532Y209100D02*
X124418Y168214D01*
X77875Y209100D02*
X125122Y161854D01*
X80704Y209100D02*
X124312Y165491D01*
X75047Y209100D02*
X124194Y159953D01*
X58562Y203640D02*
X64022Y209100D01*
X55248D02*
X60883Y203465D01*
X63245Y202666D02*
X69678Y209100D01*
X61156Y203406D02*
X66850Y209100D01*
X52419D02*
X57929Y203590D01*
X49591Y209100D02*
X55643Y203047D01*
X54764Y202670D02*
X61193Y209100D01*
X46762D02*
X53759Y202103D01*
X43934Y209100D02*
X52193Y200840D01*
X41105Y209100D02*
X50924Y199282D01*
X38277Y209100D02*
X49971Y197406D01*
X35449Y209100D02*
X49417Y195132D01*
X32620Y209100D02*
X49519Y192201D01*
X62547Y145400D02*
X126247Y209100D01*
X60905D02*
X124604Y145400D01*
X65376D02*
X129076Y209100D01*
X63733D02*
X127433Y145400D01*
X58076Y209100D02*
X121776Y145400D01*
X56890D02*
X120590Y209100D01*
X59719Y145400D02*
X123419Y209100D01*
X68047Y190643D02*
X113291Y145400D01*
X67103Y188759D02*
X110462Y145400D01*
X68464Y195883D02*
X118948Y145400D01*
X68590Y192929D02*
X116119Y145400D01*
X51233D02*
X114933Y209100D01*
X48405Y145400D02*
X112105Y209100D01*
X54062Y145400D02*
X117762Y209100D01*
X39920Y145400D02*
X103620Y209100D01*
X37091Y145400D02*
X100791Y209100D01*
X45577Y145400D02*
X109276Y209100D01*
X42748Y145400D02*
X106448Y209100D01*
X35275Y146412D02*
X97963Y209100D01*
X33861Y147826D02*
X95134Y209100D01*
X29792D02*
X93492Y145400D01*
X64282Y185924D02*
X104805Y145400D01*
X62406Y184971D02*
X101977Y145400D01*
X65841Y187193D02*
X107634Y145400D01*
X57201Y184519D02*
X96320Y145400D01*
X32447Y149241D02*
X92306Y209100D01*
X60132Y184417D02*
X99149Y145400D01*
X12648Y169039D02*
X52708Y209100D01*
X12140Y171361D02*
X49880Y209100D01*
X15476Y166211D02*
X58365Y209100D01*
X14062Y167625D02*
X55536Y209100D01*
X9846Y174723D02*
X44223Y209100D01*
X1400Y174763D02*
X35737Y209100D01*
X11376Y173424D02*
X47051Y209100D01*
X7408Y175113D02*
X41394Y209100D01*
X1400Y177591D02*
X32909Y209100D01*
X16890Y164797D02*
X50330Y198236D01*
X18304Y163383D02*
X49360Y194438D01*
X1400Y180420D02*
X30081Y209100D01*
X1400Y183248D02*
X27252Y209100D01*
X1400Y171934D02*
X38566Y209100D01*
X1400Y191733D02*
X18767Y209100D01*
X1400Y205875D02*
X4625Y209100D01*
X1400Y186076D02*
X24424Y209100D01*
X1400Y188905D02*
X21595Y209100D01*
X1400Y197390D02*
X13110Y209100D01*
X1400Y200219D02*
X10282Y209100D01*
X1400Y194562D02*
X15938Y209100D01*
X1400Y178095D02*
X5319Y174176D01*
X1400Y175266D02*
X4136Y172530D01*
X1400Y203047D02*
X7453Y209100D01*
X1400Y208704D02*
X1796Y209100D01*
X1400Y180923D02*
X7238Y175085D01*
X21306Y209100D02*
X85006Y145400D01*
X18478Y209100D02*
X82178Y145400D01*
X26963Y209100D02*
X90663Y145400D01*
X24135Y209100D02*
X87835Y145400D01*
X12821Y209100D02*
X76521Y145400D01*
X9993Y209100D02*
X73693Y145400D01*
X15650Y209100D02*
X79350Y145400D01*
X29618Y152069D02*
X62593Y185044D01*
X28204Y153483D02*
X59071Y184350D01*
X7164Y209100D02*
X70864Y145400D01*
X4336Y209100D02*
X68036Y145400D01*
X1400Y206379D02*
X62379Y145400D01*
X1400Y203551D02*
X59551Y145400D01*
X1507Y209100D02*
X65207Y145400D01*
X21133Y160554D02*
X50334Y189755D01*
X19718Y161969D02*
X49594Y191844D01*
X1400Y200722D02*
X56722Y145400D01*
X1400Y197894D02*
X53894Y145400D01*
X1400Y192237D02*
X48237Y145400D01*
X1400Y189408D02*
X45408Y145400D01*
X1400Y195065D02*
X51065Y145400D01*
X25375Y156312D02*
X54518Y185454D01*
X23961Y157726D02*
X52822Y186587D01*
X26790Y154897D02*
X56557Y184664D01*
X22547Y159140D02*
X51427Y188020D01*
X1400Y183752D02*
X39752Y145400D01*
X1400Y186580D02*
X42580Y145400D01*
X107802D02*
X124856Y162454D01*
X102145Y145400D02*
X124595Y167850D01*
X99317Y145400D02*
X124274Y170357D01*
X104974Y145400D02*
X124164Y164591D01*
X116287Y145400D02*
X127053Y156166D01*
X113459Y145400D02*
X125163Y157105D01*
X110630Y145400D02*
X124204Y158974D01*
X75262Y141145D02*
X75718Y141600D01*
X42593D02*
X67738D01*
X43901Y140896D02*
X44605Y141600D01*
X66179D02*
X67738Y140041D01*
X28763Y139900D02*
X32588Y143725D01*
X25934Y139900D02*
X31174Y145139D01*
X23106Y139900D02*
X29759Y146554D01*
X17449Y139900D02*
X26931Y149382D01*
X14621Y139900D02*
X25517Y150796D01*
X20278Y139900D02*
X28345Y147968D01*
X37895Y141600D02*
X38837Y140658D01*
X37248Y139900D02*
X38948Y141600D01*
X35500D02*
X40407D01*
X34999Y141667D02*
X36766Y139900D01*
X97292Y141600D02*
X129041Y109851D01*
X105172Y120143D02*
X126629Y141600D01*
X94463D02*
X127757Y108306D01*
X91635Y141600D02*
X127397Y105838D01*
X83150Y141600D02*
X104676Y120073D01*
X80321Y141600D02*
X102779Y119142D01*
X77493Y141600D02*
X101616Y117477D01*
X122993Y101194D02*
X127435Y105636D01*
X124407Y99780D02*
X128381Y103753D01*
X109573Y115176D02*
X126850Y97900D01*
X75262Y141002D02*
X101547Y114717D01*
X109457Y114730D02*
X126287Y97900D01*
X75262Y135488D02*
X81375Y141600D01*
X75262Y138316D02*
X78546Y141600D01*
X75262Y134238D02*
Y141600D01*
X67738Y134238D02*
Y141600D01*
X63351D02*
X67738Y137213D01*
X31591Y139900D02*
X34002Y142311D01*
X60522Y141600D02*
X67738Y134384D01*
X44726Y136064D02*
X50262Y141600D01*
X45057Y139224D02*
X47433Y141600D01*
X67738Y134238D02*
X75262D01*
X34420Y139900D02*
X36120Y141600D01*
X12085Y170238D02*
X36923Y145400D01*
X11957Y169730D02*
X36287Y145400D01*
X9270Y167043D02*
X34154Y142159D01*
X6824Y167014D02*
X33938Y139900D01*
X1400Y146478D02*
X15617Y160696D01*
X1400Y149307D02*
X14203Y162110D01*
X1400Y166781D02*
X28281Y139900D01*
X11783Y142720D02*
X22688Y153625D01*
X10531Y144296D02*
X21274Y155039D01*
X12008Y139900D02*
X38253D01*
X12075Y140182D02*
X24103Y152210D01*
X8529Y145122D02*
X19860Y156453D01*
X1400Y143650D02*
X17031Y159282D01*
X1400Y140822D02*
X18446Y157867D01*
X1400Y172438D02*
X4014Y169824D01*
X1400Y166277D02*
X4277Y169154D01*
X1400Y169106D02*
X3887Y171592D01*
X1400Y160620D02*
X7639Y166860D01*
X1400Y163449D02*
X5576Y167624D01*
X1400Y157792D02*
X9961Y166352D01*
X1400Y149810D02*
X6382Y144828D01*
X1400Y146982D02*
X4769Y143613D01*
X1400Y144153D02*
X3896Y141657D01*
X1400Y152135D02*
X12789Y163524D01*
X1400Y154964D02*
X11375Y164938D01*
X1400Y152639D02*
X9007Y145032D01*
X1400Y169609D02*
X31109Y139900D01*
X1400Y163953D02*
X25453Y139900D01*
X11000Y136100D02*
X38253D01*
X1400Y161124D02*
X22624Y139900D01*
X1400Y158296D02*
X19796Y139900D01*
X1400Y155467D02*
X16967Y139900D01*
X1400Y101224D02*
X36277Y136100D01*
X1400Y112537D02*
X24963Y136100D01*
X1400Y118194D02*
X19306Y136100D01*
X1400Y98395D02*
X38604Y135599D01*
X1400Y109709D02*
X27791Y136100D01*
X1400Y106880D02*
X30620Y136100D01*
X1400Y115366D02*
X22134Y136100D01*
X1400Y104052D02*
X33448Y136100D01*
X12032Y142007D02*
X14139Y139900D01*
X9270Y137043D02*
X9654Y136659D01*
X1400Y135165D02*
X4704Y138469D01*
X1400Y137993D02*
X3878Y140471D01*
X1400Y132336D02*
X6280Y137217D01*
X1400Y129508D02*
X8817Y136925D01*
X1400Y123851D02*
X13649Y136100D01*
X1400Y126679D02*
X10828Y136108D01*
X1400Y121022D02*
X16477Y136100D01*
X168242Y94100D02*
X250804D01*
X163796Y117522D02*
X183418Y97900D01*
X179395Y78400D02*
X195095Y94100D01*
X176567Y78400D02*
X192267Y94100D01*
X151032Y141600D02*
X194732Y97900D01*
X150812D02*
X192263Y139351D01*
X153640Y97900D02*
X210840Y155100D01*
X168081Y78400D02*
X183781Y94100D01*
X167603Y88260D02*
X177462Y78400D01*
X173738D02*
X189438Y94100D01*
X170910Y78400D02*
X186610Y94100D01*
X162425Y78400D02*
X178124Y94100D01*
X159596Y78400D02*
X175296Y94100D01*
X165253Y78400D02*
X180953Y94100D01*
X168776Y93237D02*
X169639Y94100D01*
X169081Y90713D02*
X172468Y94100D01*
X150449D02*
X166149Y78400D01*
X147620Y94100D02*
X163320Y78400D01*
X153277Y94100D02*
X168977Y78400D01*
X165640Y87394D02*
X174634Y78400D01*
X158934Y94100D02*
X160894Y92140D01*
X151111Y78400D02*
X161693Y88983D01*
X148282Y78400D02*
X160875Y90993D01*
X144792Y94100D02*
X160492Y78400D01*
X141963Y94100D02*
X157663Y78400D01*
X145454D02*
X161154Y94100D01*
X181561D02*
X203261Y72400D01*
X181505Y77682D02*
X197924Y94100D01*
X178733D02*
X200433Y72400D01*
X175905Y94100D02*
X197605Y72400D01*
X170248Y94100D02*
X191948Y72400D01*
X169039Y92481D02*
X186728Y74792D01*
X173076Y94100D02*
X194776Y72400D01*
X175605Y74600D02*
X185353Y64853D01*
X181346Y77841D02*
X184574Y74613D01*
X161463Y74600D02*
X234163Y1900D01*
X172777Y74600D02*
X182524Y64853D01*
X155806Y74600D02*
X228506Y1900D01*
X152978Y74600D02*
X225678Y1900D01*
X158635Y74600D02*
X231335Y1900D01*
X168822Y89868D02*
X180317Y78373D01*
X156768Y78400D02*
X165787Y87419D01*
X153939Y78400D02*
X163263Y87724D01*
X142625Y78400D02*
X158326Y94100D01*
X156105D02*
X171805Y78400D01*
X179213Y74600D02*
X181887Y71926D01*
X178434Y74600D02*
X181723Y71311D01*
X151224Y47400D02*
X178424Y74600D01*
X145567Y47400D02*
X172767Y74600D01*
X142738Y47400D02*
X169938Y74600D01*
X148395Y47400D02*
X175595Y74600D01*
X126287Y97900D02*
X250804D01*
X136969Y78400D02*
X152669Y94100D01*
X139797Y78400D02*
X155497Y94100D01*
X139135D02*
X154835Y78400D01*
X125576Y141600D02*
X169276Y97900D01*
X117091Y141600D02*
X160791Y97900D01*
X125500Y94100D02*
X161758D01*
X134785Y79045D02*
X149840Y94100D01*
X133203Y80291D02*
X147012Y94100D01*
X135196Y78400D02*
X180000D01*
X136306Y94100D02*
X152006Y78400D01*
X130650Y94100D02*
X146350Y78400D01*
X130652Y80568D02*
X144183Y94100D01*
X127821D02*
X143521Y78400D01*
X128184Y97900D02*
X132856Y102571D01*
X106770Y112043D02*
X124154Y94659D01*
X75262Y138174D02*
X133100Y80335D01*
X75262Y135345D02*
X130170Y80437D01*
X73541Y134238D02*
X128453Y79326D01*
X125655Y78400D02*
X141355Y94100D01*
X124893Y94200D02*
X140693Y78400D01*
X113650Y80537D02*
X127213Y94100D01*
X112236Y81951D02*
X124607Y94323D01*
X115064Y79123D02*
X130041Y94100D01*
X135196Y74600D02*
X179213D01*
X138836D02*
X163790Y49646D01*
X137081Y47400D02*
X164281Y74600D01*
X136007D02*
X161477Y49130D01*
X133478Y94100D02*
X149178Y78400D01*
X122827D02*
X138526Y94100D01*
X106093Y81887D02*
X140580Y47400D01*
X119037Y74600D02*
X146237Y47400D01*
X117282D02*
X144482Y74600D01*
X139910Y47400D02*
X167110Y74600D01*
X134253Y47400D02*
X161453Y74600D01*
X114454Y47400D02*
X141654Y74600D01*
X111626Y47400D02*
X138826Y74600D01*
X116208D02*
X143408Y47400D01*
X104217Y112047D02*
X137864Y78400D01*
X70713Y134238D02*
X126551Y78400D01*
X45167Y137157D02*
X134923Y47400D01*
X44158Y135337D02*
X132095Y47400D01*
X42335Y134332D02*
X129266Y47400D01*
X37738Y136100D02*
X126438Y47400D01*
X43552Y141600D02*
X137752Y47400D01*
X117170Y78400D02*
X132870Y94100D01*
X115787Y78400D02*
X127804D01*
X119998D02*
X135698Y94100D01*
X115000Y74600D02*
X127804D01*
X100312Y47400D02*
X127512Y74600D01*
X97483Y47400D02*
X124683Y74600D01*
X167649Y15742D02*
X220507Y68600D01*
X166928Y17850D02*
X217678Y68600D01*
X179263Y1900D02*
X245963Y68600D01*
X170777Y1900D02*
X237477Y68600D01*
X161388Y49079D02*
X181772Y69464D01*
X164292Y74600D02*
X181647Y57244D01*
X165120Y1900D02*
X231821Y68600D01*
X167949Y1900D02*
X234649Y68600D01*
X167167Y43545D02*
X181647Y58025D01*
X167646Y45790D02*
X211536Y1900D01*
X165764Y42015D02*
X205879Y1900D01*
X163053Y19632D02*
X212021Y68600D01*
X164635Y49498D02*
X182746Y67609D01*
X165430Y19180D02*
X214850Y68600D01*
X167120Y74600D02*
X181647Y60073D01*
X169949Y74600D02*
X181647Y62901D01*
X167482Y46688D02*
X181647Y60853D01*
X166421Y48456D02*
X181647Y63682D01*
X156880Y47400D02*
X181647Y72166D01*
X154052Y47400D02*
X180233Y73580D01*
X165030Y11636D02*
X174766Y1900D01*
X167585Y14738D02*
X180423Y1900D01*
X138723Y43600D02*
X162738Y19585D01*
X135895Y43600D02*
X160819Y18676D01*
X156635Y1900D02*
X223335Y68600D01*
X150150Y74600D02*
X222850Y1900D01*
X162292D02*
X228992Y68600D01*
X159464Y1900D02*
X226164Y68600D01*
X144493Y74600D02*
X217193Y1900D01*
X141664Y74600D02*
X214364Y1900D01*
X147321Y74600D02*
X220021Y1900D01*
X167130Y43477D02*
X208707Y1900D01*
X163605Y41345D02*
X203051Y1900D01*
X176434D02*
X243134Y68600D01*
X173606Y1900D02*
X240306Y68600D01*
X139665Y1900D02*
X206365Y68600D01*
X136836Y1900D02*
X203536Y68600D01*
X142493Y1900D02*
X209193Y68600D01*
X152865Y43600D02*
X194565Y1900D01*
X150037Y43600D02*
X191737Y1900D01*
X158522Y43600D02*
X200222Y1900D01*
X155694Y43600D02*
X197394Y1900D01*
X144380Y43600D02*
X186080Y1900D01*
X141552Y43600D02*
X183252Y1900D01*
X147208Y43600D02*
X188908Y1900D01*
X162324Y11514D02*
X171938Y1900D01*
X153807D02*
X163258Y11351D01*
X166676Y12819D02*
X177595Y1900D01*
X148150D02*
X159820Y13570D01*
X145322Y1900D02*
X159368Y15947D01*
X150978Y1900D02*
X161150Y12072D01*
X134008Y1900D02*
X188255Y56147D01*
X134326Y73453D02*
X160015Y47764D01*
X128351Y1900D02*
X182598Y56147D01*
X127409Y43600D02*
X169109Y1900D01*
X118924Y43600D02*
X160624Y1900D01*
X79787Y47400D02*
X159804D01*
X121753Y43600D02*
X163452Y1900D01*
X133066Y43600D02*
X159636Y17030D01*
X130238Y43600D02*
X159514Y14324D01*
X125522Y1900D02*
X165455Y41833D01*
X122694Y1900D02*
X162312Y41518D01*
X79000Y43600D02*
X159804D01*
X117037Y1900D02*
X158737Y43600D01*
X119866Y1900D02*
X160544Y42579D01*
X127522Y74600D02*
X154722Y47400D01*
X125768D02*
X152968Y74600D01*
X131424Y47400D02*
X158624Y74600D01*
X128596Y47400D02*
X155796Y74600D01*
X122939Y47400D02*
X150139Y74600D01*
X108797Y47400D02*
X135997Y74600D01*
X124694D02*
X151894Y47400D01*
X132487Y72463D02*
X157551Y47400D01*
X121865Y74600D02*
X149065Y47400D01*
X105969D02*
X130949Y72381D01*
X103140Y47400D02*
X128955Y73215D01*
X120111Y47400D02*
X147311Y74600D01*
X116096Y43600D02*
X157796Y1900D01*
X114209D02*
X155909Y43600D01*
X131179Y1900D02*
X185427Y56147D01*
X124581Y43600D02*
X166281Y1900D01*
X111380D02*
X153080Y43600D01*
X110439D02*
X152139Y1900D01*
X113267Y43600D02*
X154967Y1900D01*
X105724D02*
X147424Y43600D01*
X104782D02*
X146482Y1900D01*
X108552D02*
X150252Y43600D01*
X107610D02*
X149310Y1900D01*
X1728D02*
X389100D01*
X101953Y43600D02*
X143654Y1900D01*
X102895D02*
X144595Y43600D01*
X88753Y1900D02*
X130453Y43600D01*
X87811D02*
X129511Y1900D01*
X91581D02*
X133281Y43600D01*
X90640D02*
X132340Y1900D01*
X84983Y43600D02*
X126683Y1900D01*
X83096D02*
X124796Y43600D01*
X85925Y1900D02*
X127624Y43600D01*
X99125D02*
X140825Y1900D01*
X97238D02*
X138938Y43600D01*
X100067Y1900D02*
X141767Y43600D01*
X94410Y1900D02*
X136110Y43600D01*
X93468D02*
X135168Y1900D01*
X96297Y43600D02*
X137997Y1900D01*
X108162Y89191D02*
X118892Y99921D01*
X106233Y90091D02*
X117478Y101335D01*
X67884Y134238D02*
X123722Y78400D01*
X109354Y87555D02*
X120306Y98507D01*
X54963Y72762D02*
X123801Y141600D01*
X57694D02*
X120894Y78400D01*
X52135Y72762D02*
X120973Y141600D01*
X110821Y83366D02*
X123134Y95679D01*
X109555Y86910D02*
X118065Y78400D01*
X109500Y84873D02*
X121720Y97093D01*
X109457Y84730D02*
X115787Y78400D01*
X106770Y82043D02*
X113654Y75159D01*
X54865Y141600D02*
X106410Y90055D01*
X57792Y72762D02*
X101357Y116328D01*
X59262Y68576D02*
X103215Y112529D01*
X59262Y71404D02*
X101857Y113999D01*
X52037Y141600D02*
X103831Y89806D01*
X49208Y141600D02*
X102236Y88573D01*
X46380Y141600D02*
X101387Y86593D01*
X61765Y65422D02*
X107578Y111235D01*
X58649Y72762D02*
X59262Y72149D01*
X51738Y72365D02*
X52135Y72762D01*
X60351Y66836D02*
X105361Y111846D01*
X67422Y59765D02*
X113235Y105578D01*
X66008Y61179D02*
X111821Y106992D01*
X34909Y136100D02*
X123609Y47400D01*
X32081Y136100D02*
X120781Y47400D01*
X26424Y136100D02*
X115124Y47400D01*
X23596Y136100D02*
X112296Y47400D01*
X29253Y136100D02*
X117953Y47400D01*
X88998D02*
X116198Y74600D01*
X86170Y47400D02*
X113798Y75029D01*
X94655Y47400D02*
X121855Y74600D01*
X91826Y47400D02*
X119027Y74600D01*
X70250Y56937D02*
X116063Y102750D01*
X68836Y58351D02*
X114649Y104164D01*
X83341Y47400D02*
X112377Y76436D01*
X63179Y64008D02*
X108992Y109821D01*
X63179Y64008D02*
X108992Y109821D01*
X64593Y62594D02*
X110406Y108406D01*
X71665Y55522D02*
X101409Y85267D01*
X17939Y136100D02*
X106639Y47400D01*
X15110Y136100D02*
X103810Y47400D01*
X20767Y136100D02*
X109467Y47400D01*
X78736Y48451D02*
X109549Y79264D01*
X77321Y49866D02*
X108134Y80679D01*
X80513Y47400D02*
X110963Y77850D01*
X74493Y52694D02*
X103945Y82146D01*
X73079Y54108D02*
X102309Y83338D01*
X75907Y51280D02*
X106627Y82000D01*
X1400Y72939D02*
X67738Y139277D01*
X1400Y75768D02*
X67232Y141600D01*
X1400Y47483D02*
X95517Y141600D01*
X1400Y50312D02*
X92688Y141600D01*
X1400Y55969D02*
X87031Y141600D01*
X1400Y58797D02*
X84203Y141600D01*
X1400Y53140D02*
X89860Y141600D01*
X12282Y136100D02*
X100982Y47400D01*
X1400Y70111D02*
X67738Y136449D01*
X1400Y138497D02*
X92497Y47400D01*
X1400Y135668D02*
X89668Y47400D01*
X1400Y64454D02*
X71184Y134238D01*
X1400Y67282D02*
X68356Y134238D01*
X1400Y61625D02*
X74012Y134238D01*
X1400Y92738D02*
X43436Y134774D01*
X1400Y95567D02*
X40276Y134442D01*
X1400Y78596D02*
X64404Y141600D01*
X1400Y81424D02*
X61576Y141600D01*
X1400Y87081D02*
X55919Y141600D01*
X1400Y89910D02*
X53090Y141600D01*
X1400Y84253D02*
X58747Y141600D01*
X1400Y118698D02*
X51738Y68360D01*
X1400Y121526D02*
X51738Y71188D01*
X1400Y115869D02*
X51738Y65531D01*
X1400Y130011D02*
X58649Y72762D01*
X1400Y127183D02*
X55821Y72762D01*
X1400Y124355D02*
X52992Y72762D01*
X1400Y36170D02*
X106830Y141600D01*
X1400Y44655D02*
X98345Y141600D01*
X1400Y24856D02*
X118144Y141600D01*
X1400Y27684D02*
X115316Y141600D01*
X1400Y33341D02*
X109659Y141600D01*
X1400Y38998D02*
X104002Y141600D01*
X1400Y30513D02*
X112487Y141600D01*
X1400Y107384D02*
X106884Y1900D01*
X1400Y104555D02*
X104056Y1900D01*
X1400Y101727D02*
X101227Y1900D01*
X1400Y98899D02*
X98399Y1900D01*
X1400Y113041D02*
X112541Y1900D01*
X1400Y41826D02*
X101174Y141600D01*
X1400Y110212D02*
X109712Y1900D01*
X8657Y136896D02*
X98154Y47400D01*
X1400Y141325D02*
X95325Y47400D01*
X1400Y132840D02*
X86840Y47400D01*
X1400Y2228D02*
Y209100D01*
Y96070D02*
X54778Y42692D01*
X1400Y93242D02*
X52912Y41730D01*
X1400Y90413D02*
X51860Y39953D01*
X1400Y79100D02*
X78600Y1900D01*
X1400Y76271D02*
X75771Y1900D01*
X1400Y73443D02*
X72943Y1900D01*
X1400Y87585D02*
X87085Y1900D01*
X1400Y84756D02*
X84257Y1900D01*
X1400Y81928D02*
X81428Y1900D01*
X59262Y72149D02*
X84011Y47400D01*
X59262Y69321D02*
X81183Y47400D01*
X59262Y67925D02*
X79787Y47400D01*
X56575Y65238D02*
X77654Y44159D01*
X59091Y40121D02*
X70392Y51421D01*
X58389Y36590D02*
X71806Y50007D01*
X82155Y43600D02*
X123854Y1900D01*
X79326Y43600D02*
X121026Y1900D01*
X77439D02*
X119139Y43600D01*
X59192Y38278D02*
X95570Y1900D01*
X58230Y36412D02*
X92742Y1900D01*
X74611D02*
X116311Y43600D01*
X59262Y67925D02*
Y72762D01*
X51738D02*
X59262D01*
X51738Y65531D02*
X52031Y65238D01*
X51738D02*
Y72762D01*
X20750Y18750D02*
X61906Y59907D01*
X51738Y65238D02*
X56575D01*
X21796Y16968D02*
X63321Y58492D01*
X57975Y41833D02*
X68978Y52835D01*
X56037Y42724D02*
X67563Y54250D01*
X22610Y12125D02*
X66149Y55664D01*
X22477Y14820D02*
X64735Y57078D01*
X21156Y7842D02*
X51776Y38463D01*
X68954Y1900D02*
X110654Y43600D01*
X66126Y1900D02*
X107826Y43600D01*
X80268Y1900D02*
X121968Y43600D01*
X71782Y1900D02*
X113482Y43600D01*
X54860Y65238D02*
X118198Y1900D01*
X52031Y65238D02*
X115369Y1900D01*
X63297D02*
X104997Y43600D01*
X54812Y1900D02*
X96512Y43600D01*
X56453Y35361D02*
X89913Y1900D01*
X60469D02*
X102169Y43600D01*
X57640Y1900D02*
X99340Y43600D01*
X49155Y1900D02*
X90855Y43600D01*
X46327Y1900D02*
X88026Y43600D01*
X51983Y1900D02*
X93683Y43600D01*
X37841Y1900D02*
X79541Y43600D01*
X35013Y1900D02*
X77463Y44350D01*
X43498Y1900D02*
X85198Y43600D01*
X40670Y1900D02*
X82370Y43600D01*
X29356Y1900D02*
X74634Y47179D01*
X26527Y1900D02*
X73220Y48593D01*
X32184Y1900D02*
X76049Y45764D01*
X22642Y12603D02*
X33345Y1900D01*
X22230Y10186D02*
X30516Y1900D01*
X23699D02*
X57910Y36111D01*
X20871Y1900D02*
X54379Y35409D01*
X21377Y8210D02*
X27688Y1900D01*
X22218Y15855D02*
X36173Y1900D01*
X15761Y22246D02*
X57664Y64149D01*
X13331Y22644D02*
X55924Y65238D01*
X17746Y21403D02*
X59078Y62735D01*
X10044Y22186D02*
X53096Y65238D01*
X1400Y19199D02*
X51738Y69537D01*
X1400Y22027D02*
X51738Y72365D01*
X1400Y16371D02*
X51738Y66708D01*
X19397Y20225D02*
X60492Y61321D01*
X19397Y20225D02*
X60492Y61321D01*
X6728Y1900D02*
X9032Y4204D01*
X1400Y33845D02*
X12603Y22642D01*
X1400Y31016D02*
X10186Y22230D01*
X1400Y36673D02*
X15855Y22218D01*
X1400Y19703D02*
X4182Y16920D01*
X1400Y16874D02*
X3512Y14762D01*
X1400Y13542D02*
X3814Y15956D01*
X1400Y14046D02*
X3397Y12049D01*
X1400Y28188D02*
X8210Y21377D01*
X1400Y25359D02*
X6567Y20193D01*
X1400Y22531D02*
X5221Y18710D01*
X1400Y2228D02*
X5775Y6603D01*
X1400Y5057D02*
X4597Y8254D01*
X1400Y2228D02*
X5775Y6603D01*
X1400Y7885D02*
X3754Y10239D01*
X1400Y10714D02*
X3356Y12669D01*
X1400Y11217D02*
X4972Y7646D01*
X1400Y62129D02*
X61629Y1900D01*
X1400Y59301D02*
X58801Y1900D01*
X1400Y56472D02*
X55972Y1900D01*
X1400Y53644D02*
X53144Y1900D01*
X1400Y70614D02*
X70114Y1900D01*
X1400Y67786D02*
X67286Y1900D01*
X1400Y64957D02*
X64457Y1900D01*
X1400Y42330D02*
X41830Y1900D01*
X1400Y39502D02*
X39002Y1900D01*
X18042D02*
X52667Y36525D01*
X20193Y6567D02*
X24859Y1900D01*
X1400Y50815D02*
X50315Y1900D01*
X1400Y47987D02*
X47487Y1900D01*
X1400Y45158D02*
X44658Y1900D01*
X15214D02*
X18158Y4844D01*
X7646Y4972D02*
X10717Y1900D01*
X18710Y5221D02*
X22031Y1900D01*
X16920Y4182D02*
X19203Y1900D01*
X1400Y8389D02*
X7889Y1900D01*
X1400Y5561D02*
X5060Y1900D01*
X3900D02*
X7250Y5250D01*
X12385Y1900D02*
X13875Y3390D01*
X12049Y3397D02*
X13546Y1900D01*
X14762Y3512D02*
X16374Y1900D01*
X1400Y2732D02*
X2232Y1900D01*
X1400Y2228D02*
X1728Y1900D01*
X9557D02*
X11180Y3523D01*
D29*
X55500Y39000D02*
D03*
X252500Y174000D02*
D03*
X308000Y157000D02*
D03*
X244000Y23000D02*
D03*
X41500Y138000D02*
D03*
D30*
X55500Y69000D02*
D03*
X308000Y187000D02*
D03*
X244000Y53000D02*
D03*
D31*
X313500Y98500D02*
D03*
Y108500D02*
D03*
X306421Y41421D02*
D03*
X186000Y70500D02*
D03*
D32*
X313500Y118500D02*
D03*
X186000Y60500D02*
D03*
D33*
X306421Y31579D02*
D03*
D34*
X326500Y51657D02*
D03*
Y11500D02*
D03*
D35*
X129500Y159500D02*
D03*
D36*
Y164500D02*
D03*
Y169500D02*
D03*
D37*
X8000Y141000D02*
D03*
Y171000D02*
D03*
X284500Y96500D02*
D03*
Y126500D02*
D03*
X254500Y126000D02*
D03*
Y96000D02*
D03*
X165000Y121500D02*
D03*
Y91500D02*
D03*
X163500Y45500D02*
D03*
Y15500D02*
D03*
X162500Y143500D02*
D03*
X192500D02*
D03*
X131500Y106500D02*
D03*
Y76500D02*
D03*
X105500Y116000D02*
D03*
Y86000D02*
D03*
D38*
X370000Y90000D02*
D03*
X361500Y195000D02*
D03*
X59000Y194000D02*
D03*
X13000Y13000D02*
D03*
D39*
X222500Y174000D02*
D03*
X71500Y138000D02*
D03*
M02*
