G04*
G04 #@! TF.GenerationSoftware,Altium Limited,Altium Designer,20.0.9 (164)*
G04*
G04 Layer_Color=65535*
%FSLAX25Y25*%
%MOIN*%
G70*
G01*
G75*
%ADD10C,0.00787*%
%ADD11C,0.00098*%
%ADD12C,0.00098*%
%ADD13C,0.01000*%
%ADD14C,0.00591*%
D10*
X85500Y54000D02*
G03*
X85500Y54000I-30000J0D01*
G01*
X267500Y174000D02*
G03*
X267500Y174000I-30000J0D01*
G01*
X338000Y172000D02*
G03*
X338000Y172000I-30000J0D01*
G01*
X274000Y38000D02*
G03*
X274000Y38000I-30000J0D01*
G01*
X86500Y138000D02*
G03*
X86500Y138000I-30000J0D01*
G01*
X150071Y48169D02*
Y58406D01*
X148299Y60177D02*
X150071Y58406D01*
X133909D02*
X135701Y60177D01*
X133929Y18839D02*
Y29469D01*
X150071Y18839D02*
Y29469D01*
X133929Y18839D02*
X150071D01*
X135701Y60177D02*
X148299D01*
X133929Y48169D02*
Y58406D01*
X308500Y123500D02*
X318500D01*
Y93500D02*
Y123500D01*
X308500Y93500D02*
X318500D01*
X308500D02*
Y123500D01*
X389492Y12681D02*
Y50476D01*
X354453Y6972D02*
Y56185D01*
X298941Y2445D02*
X354453D01*
Y6972D01*
X389492D01*
Y12681D01*
X436343D01*
Y50476D01*
X389492D02*
X436343D01*
X389492D02*
Y56185D01*
X354453D02*
X389492D01*
X354453D02*
Y60713D01*
X298941D02*
X354453D01*
X298941Y2445D02*
Y60713D01*
X181000Y55500D02*
Y75500D01*
Y55500D02*
X191000D01*
Y75500D01*
X181000D02*
X191000D01*
X8000Y166000D02*
Y166900D01*
Y145100D02*
Y146000D01*
Y166000D02*
X11000D01*
Y146000D02*
Y166000D01*
X5000Y146000D02*
X11000D01*
X5000D02*
Y166000D01*
X8000D01*
X284500Y101500D02*
X287500D01*
Y121500D01*
X281500D02*
X287500D01*
X281500Y101500D02*
Y121500D01*
Y101500D02*
X284500D01*
Y121500D02*
Y122400D01*
Y100600D02*
Y101500D01*
X251500Y121000D02*
X254500D01*
X251500Y101000D02*
Y121000D01*
Y101000D02*
X257500D01*
Y121000D01*
X254500D02*
X257500D01*
X254500Y100100D02*
Y101000D01*
Y121000D02*
Y121900D01*
X162000Y116500D02*
X165000D01*
X162000Y96500D02*
Y116500D01*
Y96500D02*
X168000D01*
Y116500D01*
X165000D02*
X168000D01*
X165000Y95600D02*
Y96500D01*
Y116500D02*
Y117400D01*
X160500Y40500D02*
X163500D01*
X160500Y20500D02*
Y40500D01*
Y20500D02*
X166500D01*
Y40500D01*
X163500D02*
X166500D01*
X163500Y19600D02*
Y20500D01*
Y40500D02*
Y41400D01*
X218071Y90232D02*
Y100469D01*
X203701Y88461D02*
X216299D01*
X201929Y129799D02*
X218071D01*
X201929Y119169D02*
Y129799D01*
X218071Y119169D02*
Y129799D01*
X216299Y88461D02*
X218091Y90232D01*
X201929D02*
X203701Y88461D01*
X201929Y90232D02*
Y100469D01*
X167500Y140500D02*
Y143500D01*
Y140500D02*
X187500D01*
Y146500D01*
X167500D02*
X187500D01*
X167500Y143500D02*
Y146500D01*
X187500Y143500D02*
X188400D01*
X166600D02*
X167500D01*
X120071Y20594D02*
Y30831D01*
X105701Y18823D02*
X118299D01*
X103929Y60161D02*
X120071D01*
X103929Y49531D02*
Y60161D01*
X120071Y49531D02*
Y60161D01*
X118299Y18823D02*
X120091Y20594D01*
X103929D02*
X105701Y18823D01*
X103929Y20594D02*
Y30831D01*
X128500Y101500D02*
X131500D01*
X128500Y81500D02*
Y101500D01*
Y81500D02*
X134500D01*
Y101500D01*
X131500D02*
X134500D01*
X131500Y80600D02*
Y81500D01*
Y101500D02*
Y102400D01*
X102500Y111000D02*
X105500D01*
X102500Y91000D02*
Y111000D01*
Y91000D02*
X108500D01*
Y111000D01*
X105500D02*
X108500D01*
X105500Y90100D02*
Y91000D01*
Y111000D02*
Y111900D01*
D11*
X424138Y31579D02*
G03*
X424138Y31579I-3937J0D01*
G01*
X349728Y8350D02*
Y54807D01*
X357996Y56185D02*
X361933Y6972D01*
Y56185D02*
X365870Y6972D01*
Y56185D02*
X369807Y6972D01*
Y56185D02*
X373744Y6972D01*
Y56185D02*
X377681Y6972D01*
Y56185D02*
X381618Y6972D01*
Y56185D02*
X385555Y6972D01*
Y56185D02*
X389492Y6972D01*
D12*
X436343Y12681D02*
Y50476D01*
X389492D02*
X436343D01*
X389492Y12681D02*
Y50476D01*
Y12681D02*
X436343D01*
X389492Y6972D02*
Y12681D01*
X354453Y6972D02*
X389492D01*
X354453D02*
Y56185D01*
X389492D01*
Y50476D02*
Y56185D01*
X354453Y2445D02*
Y6972D01*
X298941Y2445D02*
X354453D01*
X298941D02*
Y60713D01*
X354453D01*
Y56185D02*
Y60713D01*
X318232Y54807D02*
X349728D01*
X318232Y8350D02*
Y54807D01*
Y8350D02*
X349728D01*
D13*
X30099Y98498D02*
X29099Y99498D01*
X27100D01*
X26100Y98498D01*
Y94500D01*
X27100Y93500D01*
X29099D01*
X30099Y94500D01*
X36097Y99498D02*
X32098D01*
Y96499D01*
X34097Y97499D01*
X35097D01*
X36097Y96499D01*
Y94500D01*
X35097Y93500D01*
X33098D01*
X32098Y94500D01*
X134500Y69536D02*
Y63538D01*
X137499D01*
X138499Y64538D01*
Y68536D01*
X137499Y69536D01*
X134500D01*
X140498Y68536D02*
X141498Y69536D01*
X143497D01*
X144497Y68536D01*
Y67536D01*
X143497Y66537D01*
X142497D01*
X143497D01*
X144497Y65537D01*
Y64538D01*
X143497Y63538D01*
X141498D01*
X140498Y64538D01*
X309100Y84100D02*
Y90098D01*
X312099D01*
X313099Y89098D01*
Y87099D01*
X312099Y86099D01*
X309100D01*
X316098Y84100D02*
X318097D01*
X319097Y85100D01*
Y87099D01*
X318097Y88099D01*
X316098D01*
X315098Y87099D01*
Y85100D01*
X316098Y84100D01*
X321096Y88099D02*
Y85100D01*
X322096Y84100D01*
X323095Y85100D01*
X324095Y84100D01*
X325095Y85100D01*
Y88099D01*
X330093Y84100D02*
X328094D01*
X327094Y85100D01*
Y87099D01*
X328094Y88099D01*
X330093D01*
X331093Y87099D01*
Y86099D01*
X327094D01*
X333092Y88099D02*
Y84100D01*
Y86099D01*
X334092Y87099D01*
X335092Y88099D01*
X336091D01*
X309100Y126900D02*
Y132898D01*
X312099D01*
X313099Y131898D01*
Y129899D01*
X312099Y128899D01*
X309100D01*
X315098Y126900D02*
X317097D01*
X316098D01*
Y132898D01*
X315098Y131898D01*
X283001Y10004D02*
Y8005D01*
X284001Y7005D01*
X288000D01*
X288999Y8005D01*
Y10004D01*
X288000Y11004D01*
X284001D01*
X283001Y10004D01*
X285001Y13003D02*
X288000D01*
X288999Y14003D01*
Y17002D01*
X285001D01*
X284001Y20001D02*
X285001D01*
Y19001D01*
Y21001D01*
Y20001D01*
X288000D01*
X288999Y21001D01*
X290999Y24000D02*
X285001D01*
Y26999D01*
X286000Y27998D01*
X288000D01*
X288999Y26999D01*
Y24000D01*
X285001Y29998D02*
X288000D01*
X288999Y30997D01*
Y33996D01*
X285001D01*
X284001Y36995D02*
X285001D01*
Y35996D01*
Y37995D01*
Y36995D01*
X288000D01*
X288999Y37995D01*
X299500Y64100D02*
Y70098D01*
X302499D01*
X303499Y69098D01*
Y67099D01*
X302499Y66099D01*
X299500D01*
X309497Y64100D02*
X305498D01*
X309497Y68099D01*
Y69098D01*
X308497Y70098D01*
X306498D01*
X305498Y69098D01*
X181600Y52098D02*
X183599D01*
X182600D01*
Y46100D01*
X181600D01*
X183599D01*
X186598D02*
Y50099D01*
X189597D01*
X190597Y49099D01*
Y46100D01*
X192596Y44101D02*
Y50099D01*
X195596D01*
X196595Y49099D01*
Y47100D01*
X195596Y46100D01*
X192596D01*
X198594Y50099D02*
Y47100D01*
X199594Y46100D01*
X202593D01*
Y50099D01*
X205592Y51098D02*
Y50099D01*
X204593D01*
X206592D01*
X205592D01*
Y47100D01*
X206592Y46100D01*
X181600Y78900D02*
Y84898D01*
X184599D01*
X185599Y83898D01*
Y81899D01*
X184599Y80899D01*
X181600D01*
X187598Y83898D02*
X188598Y84898D01*
X190597D01*
X191597Y83898D01*
Y82899D01*
X190597Y81899D01*
X189597D01*
X190597D01*
X191597Y80899D01*
Y79900D01*
X190597Y78900D01*
X188598D01*
X187598Y79900D01*
X5650Y177150D02*
Y183148D01*
X8649D01*
X9649Y182148D01*
Y180149D01*
X8649Y179149D01*
X5650D01*
X7649D02*
X9649Y177150D01*
X11648Y182148D02*
X12648Y183148D01*
X14647D01*
X15647Y182148D01*
Y181149D01*
X14647Y180149D01*
X15647Y179149D01*
Y178150D01*
X14647Y177150D01*
X12648D01*
X11648Y178150D01*
Y179149D01*
X12648Y180149D01*
X11648Y181149D01*
Y182148D01*
X12648Y180149D02*
X14647D01*
X362350Y107648D02*
Y101650D01*
Y104649D01*
X366349D01*
Y107648D01*
Y101650D01*
X371347D02*
Y107648D01*
X368348Y104649D01*
X372347D01*
X381497Y198501D02*
Y200501D01*
Y199501D01*
X376499D01*
X375499Y200501D01*
Y201500D01*
X376499Y202500D01*
X375499Y195502D02*
Y193503D01*
X376499Y192503D01*
X378498D01*
X379498Y193503D01*
Y195502D01*
X378498Y196502D01*
X376499D01*
X375499Y195502D01*
X381497Y190504D02*
X375499D01*
X378498D01*
X379498Y189504D01*
Y187505D01*
X378498Y186505D01*
X375499D01*
Y184506D02*
X379498D01*
Y181507D01*
X378498Y180507D01*
X375499D01*
Y178508D02*
X379498D01*
Y175509D01*
X378498Y174509D01*
X375499D01*
X379498Y172510D02*
X376499D01*
X375499Y171510D01*
Y168511D01*
X374500D01*
X373500Y169511D01*
Y170510D01*
X375499Y168511D02*
X379498D01*
X382497Y165512D02*
X380498D01*
X379498Y166512D01*
X375499Y162513D02*
Y159514D01*
X376499Y158514D01*
X377499Y159514D01*
Y161513D01*
X378498Y162513D01*
X379498Y161513D01*
Y158514D01*
X381497Y150517D02*
X375499D01*
Y147518D01*
X376499Y146518D01*
X377499D01*
X378498D01*
X379498Y147518D01*
Y150517D01*
X375499Y143519D02*
Y141520D01*
X376499Y140520D01*
X378498D01*
X379498Y141520D01*
Y143519D01*
X378498Y144519D01*
X376499D01*
X375499Y143519D01*
X379498Y137521D02*
Y135522D01*
X378498Y134522D01*
X375499D01*
Y137521D01*
X376499Y138521D01*
X377499Y137521D01*
Y134522D01*
X379498Y132523D02*
X375499D01*
X377499D01*
X378498Y131523D01*
X379498Y130523D01*
Y129524D01*
X381497Y122526D02*
X375499D01*
Y125525D01*
X376499Y126525D01*
X378498D01*
X379498Y125525D01*
Y122526D01*
X353850Y212648D02*
Y206650D01*
Y209649D01*
X357849D01*
Y212648D01*
Y206650D01*
X359848Y211648D02*
X360848Y212648D01*
X362847D01*
X363847Y211648D01*
Y210649D01*
X362847Y209649D01*
X361847D01*
X362847D01*
X363847Y208649D01*
Y207650D01*
X362847Y206650D01*
X360848D01*
X359848Y207650D01*
X51350Y211648D02*
Y205650D01*
Y208649D01*
X55349D01*
Y211648D01*
Y205650D01*
X61347D02*
X57348D01*
X61347Y209649D01*
Y210648D01*
X60347Y211648D01*
X58348D01*
X57348Y210648D01*
X5350Y30648D02*
Y24650D01*
Y27649D01*
X9349D01*
Y30648D01*
Y24650D01*
X11348D02*
X13347D01*
X12348D01*
Y30648D01*
X11348Y29648D01*
X129100Y112700D02*
Y118698D01*
X132099D01*
X133099Y117698D01*
Y115699D01*
X132099Y114699D01*
X129100D01*
X131099D02*
X133099Y112700D01*
X135098Y118698D02*
X139097D01*
Y117698D01*
X135098Y113700D01*
Y112700D01*
X103150Y122150D02*
Y128148D01*
X106149D01*
X107149Y127148D01*
Y125149D01*
X106149Y124149D01*
X103150D01*
X105149D02*
X107149Y122150D01*
X113147Y128148D02*
X111147Y127148D01*
X109148Y125149D01*
Y123150D01*
X110148Y122150D01*
X112147D01*
X113147Y123150D01*
Y124149D01*
X112147Y125149D01*
X109148D01*
X160300Y149900D02*
Y155898D01*
X163299D01*
X164299Y154898D01*
Y152899D01*
X163299Y151899D01*
X160300D01*
X162299D02*
X164299Y149900D01*
X170297Y155898D02*
X166298D01*
Y152899D01*
X168297Y153899D01*
X169297D01*
X170297Y152899D01*
Y150900D01*
X169297Y149900D01*
X167298D01*
X166298Y150900D01*
X161150Y51650D02*
Y57648D01*
X164149D01*
X165149Y56648D01*
Y54649D01*
X164149Y53649D01*
X161150D01*
X163149D02*
X165149Y51650D01*
X170147D02*
Y57648D01*
X167148Y54649D01*
X171147D01*
X162650Y127650D02*
Y133648D01*
X165649D01*
X166649Y132648D01*
Y130649D01*
X165649Y129649D01*
X162650D01*
X164649D02*
X166649Y127650D01*
X168648Y132648D02*
X169648Y133648D01*
X171647D01*
X172647Y132648D01*
Y131649D01*
X171647Y130649D01*
X170647D01*
X171647D01*
X172647Y129649D01*
Y128650D01*
X171647Y127650D01*
X169648D01*
X168648Y128650D01*
X252150Y132150D02*
Y138148D01*
X255149D01*
X256149Y137148D01*
Y135149D01*
X255149Y134149D01*
X252150D01*
X254149D02*
X256149Y132150D01*
X262147D02*
X258148D01*
X262147Y136149D01*
Y137148D01*
X261147Y138148D01*
X259148D01*
X258148Y137148D01*
X282100Y132700D02*
Y138698D01*
X285099D01*
X286099Y137698D01*
Y135699D01*
X285099Y134699D01*
X282100D01*
X284099D02*
X286099Y132700D01*
X288098D02*
X290097D01*
X289098D01*
Y138698D01*
X288098Y137698D01*
X104500Y69598D02*
Y63600D01*
X107499D01*
X108499Y64600D01*
Y68598D01*
X107499Y69598D01*
X104500D01*
X114497Y63600D02*
X110498D01*
X114497Y67599D01*
Y68598D01*
X113497Y69598D01*
X111498D01*
X110498Y68598D01*
X202500Y139198D02*
Y133200D01*
X205499D01*
X206499Y134200D01*
Y138198D01*
X205499Y139198D01*
X202500D01*
X208498Y133200D02*
X210497D01*
X209498D01*
Y139198D01*
X208498Y138198D01*
X31149Y176348D02*
X30149Y177348D01*
X28150D01*
X27150Y176348D01*
Y172350D01*
X28150Y171350D01*
X30149D01*
X31149Y172350D01*
X36147Y171350D02*
Y177348D01*
X33148Y174349D01*
X37147D01*
X203500Y205499D02*
X202501Y206499D01*
X200501D01*
X199502Y205499D01*
Y201501D01*
X200501Y200501D01*
X202501D01*
X203500Y201501D01*
X205500Y205499D02*
X206499Y206499D01*
X208499D01*
X209498Y205499D01*
Y204500D01*
X208499Y203500D01*
X207499D01*
X208499D01*
X209498Y202500D01*
Y201501D01*
X208499Y200501D01*
X206499D01*
X205500Y201501D01*
X218599Y82498D02*
X217599Y83498D01*
X215600D01*
X214600Y82498D01*
Y78500D01*
X215600Y77500D01*
X217599D01*
X218599Y78500D01*
X224597Y77500D02*
X220598D01*
X224597Y81499D01*
Y82498D01*
X223597Y83498D01*
X221598D01*
X220598Y82498D01*
X279500Y204499D02*
X278500Y205499D01*
X276501D01*
X275501Y204499D01*
Y200501D01*
X276501Y199501D01*
X278500D01*
X279500Y200501D01*
X281499Y199501D02*
X283499D01*
X282499D01*
Y205499D01*
X281499Y204499D01*
D14*
X55449Y86015D02*
Y89951D01*
X53481Y87983D02*
X57417D01*
X205485Y173949D02*
X201549D01*
X203517Y171981D02*
Y175917D01*
X307949Y204015D02*
Y207951D01*
X305981Y205983D02*
X309917D01*
X243949Y70015D02*
Y73951D01*
X241981Y71983D02*
X245917D01*
X88515Y138051D02*
X92451D01*
X90483Y140019D02*
Y136083D01*
M02*
