G04*
G04 #@! TF.GenerationSoftware,Altium Limited,Altium Designer,20.0.9 (164)*
G04*
G04 Layer_Color=8388736*
%FSLAX25Y25*%
%MOIN*%
G70*
G01*
G75*
%ADD16R,0.13792X0.10249*%
%ADD17C,0.05524*%
%ADD18R,0.05524X0.05524*%
%ADD19C,0.06706*%
%ADD20R,0.06706X0.06706*%
%ADD21R,0.06706X0.06706*%
%ADD22C,0.13792*%
%ADD23O,0.08674X0.04737*%
%ADD24O,0.08674X0.04737*%
%ADD25C,0.06312*%
%ADD26C,0.17300*%
%ADD27R,0.05524X0.05524*%
D16*
X142000Y52500D02*
D03*
Y25138D02*
D03*
X210000Y123500D02*
D03*
Y96138D02*
D03*
X112000Y53862D02*
D03*
Y26500D02*
D03*
D17*
X55500Y39000D02*
D03*
X252500Y174000D02*
D03*
X308000Y157000D02*
D03*
X244000Y23000D02*
D03*
X41500Y138000D02*
D03*
D18*
X55500Y69000D02*
D03*
X308000Y187000D02*
D03*
X244000Y53000D02*
D03*
D19*
X313500Y98500D02*
D03*
Y108500D02*
D03*
X306421Y41421D02*
D03*
X186000Y70500D02*
D03*
D20*
X313500Y118500D02*
D03*
X186000Y60500D02*
D03*
D21*
X306421Y31579D02*
D03*
D22*
X326500Y51657D02*
D03*
Y11500D02*
D03*
D23*
X129500Y159500D02*
D03*
D24*
Y164500D02*
D03*
Y169500D02*
D03*
D25*
X8000Y141000D02*
D03*
Y171000D02*
D03*
X284500Y96500D02*
D03*
Y126500D02*
D03*
X254500Y126000D02*
D03*
Y96000D02*
D03*
X165000Y121500D02*
D03*
Y91500D02*
D03*
X163500Y45500D02*
D03*
Y15500D02*
D03*
X162500Y143500D02*
D03*
X192500D02*
D03*
X131500Y106500D02*
D03*
Y76500D02*
D03*
X105500Y116000D02*
D03*
Y86000D02*
D03*
D26*
X370000Y90000D02*
D03*
X361500Y195000D02*
D03*
X59000Y194000D02*
D03*
X13000Y13000D02*
D03*
D27*
X222500Y174000D02*
D03*
X71500Y138000D02*
D03*
M02*
