G04*
G04 #@! TF.GenerationSoftware,Altium Limited,Altium Designer,20.0.9 (164)*
G04*
G04 Layer_Physical_Order=2*
G04 Layer_Color=16711680*
%FSLAX25Y25*%
%MOIN*%
G70*
G01*
G75*
%ADD13C,0.01000*%
%ADD26C,0.00800*%
%ADD27C,0.01500*%
%ADD28C,0.04724*%
%ADD29R,0.04724X0.04724*%
%ADD30C,0.05906*%
%ADD31R,0.05906X0.05906*%
%ADD32R,0.05906X0.05906*%
%ADD33C,0.16500*%
%ADD34C,0.05512*%
%ADD35C,0.12992*%
%ADD36C,0.05000*%
D13*
X154750Y211250D02*
X158112D01*
X154750D02*
Y214612D01*
Y207888D02*
Y211250D01*
X153750Y166250D02*
X157112D01*
X153750D02*
Y169612D01*
Y162888D02*
Y166250D01*
X127250Y170750D02*
Y174112D01*
Y170750D02*
X130612D01*
X123888D02*
X127250D01*
Y167388D02*
Y170750D01*
X258750Y105907D02*
X266246D01*
X258750D02*
Y113403D01*
Y65750D02*
X266246D01*
X258750Y98411D02*
Y105907D01*
X193500Y105500D02*
Y108862D01*
Y102138D02*
Y105500D01*
X190138D02*
X193500D01*
X196862D01*
X238671Y95671D02*
Y99624D01*
Y95671D02*
X242624D01*
X238671Y91718D02*
Y95671D01*
X258750Y65750D02*
Y73246D01*
X251254Y65750D02*
X258750D01*
Y58254D02*
Y65750D01*
X115250Y235750D02*
X119203D01*
X115250D02*
Y239703D01*
Y231797D02*
Y235750D01*
X111297D02*
X115250D01*
X55000Y210500D02*
Y213862D01*
X51638Y210500D02*
X55000D01*
Y207138D02*
Y210500D01*
X115500Y77000D02*
X119453D01*
X115500Y73047D02*
Y77000D01*
X111547D02*
X115500D01*
X110750Y35250D02*
Y38612D01*
X107388Y35250D02*
X110750D01*
X114112D01*
X110750Y31888D02*
Y35250D01*
X33250Y73250D02*
Y77203D01*
Y69297D02*
Y73250D01*
X29297D02*
X33250D01*
X37203D01*
D26*
X310650Y219500D02*
G03*
X310650Y219500I-9650J0D01*
G01*
X187512Y166250D02*
G03*
X187512Y166250I-3762J0D01*
G01*
X197262Y135500D02*
G03*
X190413Y137650I-3762J0D01*
G01*
Y133350D02*
G03*
X197262Y135500I3087J2150D01*
G01*
X161770Y237270D02*
G03*
X160250Y237900I-1520J-1520D01*
G01*
X161770Y237270D02*
G03*
X160250Y237900I-1520J-1520D01*
G01*
X119447Y234594D02*
G03*
X119603Y235750I-4197J1156D01*
G01*
X158512Y211250D02*
G03*
X151663Y213400I-3762J0D01*
G01*
Y209100D02*
G03*
X158512Y211250I3087J2150D01*
G01*
X157512Y166250D02*
G03*
X150663Y168400I-3762J0D01*
G01*
Y164100D02*
G03*
X157512Y166250I3087J2150D01*
G01*
X151400Y143500D02*
G03*
X151400Y143500I-3900J0D01*
G01*
X154000Y137650D02*
G03*
X152480Y137020I0J-2150D01*
G01*
X154000Y137650D02*
G03*
X152480Y137020I0J-2150D01*
G01*
X138230Y209730D02*
G03*
X139750Y209100I1520J1520D01*
G01*
X138230Y209730D02*
G03*
X139750Y209100I1520J1520D01*
G01*
X131012Y170750D02*
G03*
X127913Y167047I-3762J0D01*
G01*
X130953Y170087D02*
G03*
X131012Y170750I-3703J663D01*
G01*
X130230Y164730D02*
G03*
X131750Y164100I1520J1520D01*
G01*
X130230Y164730D02*
G03*
X131750Y164100I1520J1520D01*
G01*
X142156Y137500D02*
G03*
X142156Y137500I-4156J0D01*
G01*
X266646Y105907D02*
G03*
X251152Y108057I-7896J0D01*
G01*
Y103757D02*
G03*
X266646Y105907I7598J2150D01*
G01*
X292150Y15000D02*
G03*
X292150Y15000I-9650J0D01*
G01*
X266646Y65750D02*
G03*
X266646Y65750I-7896J0D01*
G01*
X248907Y108057D02*
G03*
X247387Y107428I0J-2150D01*
G01*
X248907Y108057D02*
G03*
X247387Y107428I0J-2150D01*
G01*
X239827Y99868D02*
G03*
X234887Y97821I-1156J-4197D01*
G01*
X197262Y105500D02*
G03*
X194163Y101797I-3762J0D01*
G01*
X197203Y104837D02*
G03*
X197262Y105500I-3703J663D01*
G01*
X243024Y95671D02*
G03*
X242868Y96827I-4353J0D01*
G01*
X234887Y93521D02*
G03*
X243024Y95671I3785J2150D01*
G01*
X201809Y94151D02*
G03*
X203329Y93521I1520J1520D01*
G01*
X201809Y94151D02*
G03*
X203329Y93521I1520J1520D01*
G01*
X139853Y107000D02*
G03*
X139853Y107000I-4353J0D01*
G01*
X129853D02*
G03*
X129697Y108156I-4353J0D01*
G01*
X126656Y111196D02*
G03*
X129853Y107000I-1156J-4197D01*
G01*
X121303Y78156D02*
G03*
X129853Y77000I4197J-1156D01*
G01*
X144512Y35250D02*
G03*
X144512Y35250I-3762J0D01*
G01*
X122270Y83270D02*
G03*
X120750Y83900I-1520J-1520D01*
G01*
X129853Y77000D02*
G03*
X124344Y81196I-4353J0D01*
G01*
X122270Y83270D02*
G03*
X120750Y83900I-1520J-1520D01*
G01*
X119853Y77000D02*
G03*
X118991Y79600I-4353J0D01*
G01*
X109603Y235750D02*
G03*
X101465Y237900I-4353J0D01*
G01*
X114094Y231554D02*
G03*
X116406Y231554I1156J4197D01*
G01*
X119603Y235750D02*
G03*
X111054Y234594I-4353J0D01*
G01*
X101465Y233600D02*
G03*
X109603Y235750I3785J2150D01*
G01*
X90000Y208350D02*
G03*
X91520Y208980I0J2150D01*
G01*
X90000Y208350D02*
G03*
X91520Y208980I0J2150D01*
G01*
X101012Y170750D02*
G03*
X101012Y170750I-3762J0D01*
G01*
X112156Y137500D02*
G03*
X112156Y137500I-4156J0D01*
G01*
X119853Y107000D02*
G03*
X119853Y107000I-4353J0D01*
G01*
X109853D02*
G03*
X109853Y107000I-4353J0D01*
G01*
X50250Y237900D02*
G03*
X48730Y237270I0J-2150D01*
G01*
X50250Y237900D02*
G03*
X48730Y237270I0J-2150D01*
G01*
X28762Y210500D02*
G03*
X28703Y211163I-3762J0D01*
G01*
X25663Y214203D02*
G03*
X28762Y210500I-663J-3703D01*
G01*
X69406Y109750D02*
G03*
X61215Y108755I-4156J0D01*
G01*
X64255Y105715D02*
G03*
X69406Y109750I995J4035D01*
G01*
X46650Y145000D02*
G03*
X46650Y145000I-9650J0D01*
G01*
X109853Y77000D02*
G03*
X108991Y79600I-4353J0D01*
G01*
X112009D02*
G03*
X111303Y75844I3491J-2600D01*
G01*
X102009Y79600D02*
G03*
X109853Y77000I3491J-2600D01*
G01*
X114344Y72803D02*
G03*
X119853Y77000I1156J4197D01*
G01*
X105250Y64600D02*
G03*
X106770Y65230I0J2150D01*
G01*
X105250Y64600D02*
G03*
X106770Y65230I0J2150D01*
G01*
X114512Y35250D02*
G03*
X114512Y35250I-3762J0D01*
G01*
X67250Y83900D02*
G03*
X66426Y83736I0J-2150D01*
G01*
X67250Y83900D02*
G03*
X66426Y83736I0J-2150D01*
G01*
D02*
G03*
X69403Y79600I-1176J-3986D01*
G01*
X38750Y81100D02*
G03*
X40270Y81730I0J2150D01*
G01*
X38750Y81100D02*
G03*
X40270Y81730I0J2150D01*
G01*
X37603Y73250D02*
G03*
X34406Y69054I-4353J0D01*
G01*
X37446Y72094D02*
G03*
X37603Y73250I-4197J1156D01*
G01*
X38230Y65230D02*
G03*
X39750Y64600I1520J1520D01*
G01*
X38230Y65230D02*
G03*
X39750Y64600I1520J1520D01*
G01*
X33150Y23500D02*
G03*
X33150Y23500I-9650J0D01*
G01*
X305840Y247350D02*
X313970Y239221D01*
X308669Y247350D02*
X312821Y243198D01*
X303012Y247350D02*
X315119Y235243D01*
X297355Y247350D02*
X317417Y227288D01*
X300183Y247350D02*
X316268Y231266D01*
X294527Y247350D02*
X318566Y223311D01*
X288870Y247350D02*
X320864Y215356D01*
X291698Y247350D02*
X319715Y219333D01*
X311621Y247350D02*
X322850Y208481D01*
X257757Y247350D02*
X322850Y182257D01*
X254928Y247350D02*
X322850Y179429D01*
X271899Y247350D02*
X293580Y225669D01*
X269071Y247350D02*
X292449Y223972D01*
X266242Y247350D02*
X291661Y221931D01*
X263414Y247350D02*
X291350Y219413D01*
X260585Y247350D02*
X292054Y215881D01*
X283213Y247350D02*
X301422Y229141D01*
X280384Y247350D02*
X298831Y228903D01*
X286041Y247350D02*
X305206Y228185D01*
X277556Y247350D02*
X296745Y228161D01*
X274728Y247350D02*
X295011Y227067D01*
X249272Y247350D02*
X322850Y173772D01*
X252100Y247350D02*
X322850Y176600D01*
X246443Y247350D02*
X322850Y170943D01*
X240786Y247350D02*
X322850Y165286D01*
X243615Y247350D02*
X322850Y168115D01*
X223816Y247350D02*
X322850Y148316D01*
X235129Y247350D02*
X322850Y159629D01*
X237958Y247350D02*
X322850Y162458D01*
X232301Y247350D02*
X322850Y156801D01*
X229473Y247350D02*
X322850Y153973D01*
X226644Y247350D02*
X322850Y151144D01*
X218159Y247350D02*
X322850Y142659D01*
X220987Y247350D02*
X322850Y145487D01*
X215331Y247350D02*
X322850Y139831D01*
X212502Y247350D02*
X322850Y137002D01*
X197085Y134360D02*
X310075Y247350D01*
X206845D02*
X322850Y131345D01*
X209674Y247350D02*
X322850Y134174D01*
X204017Y247350D02*
X322850Y128517D01*
X201188Y247350D02*
X322850Y125688D01*
X198360Y247350D02*
X322850Y122860D01*
X184399Y215012D02*
X216737Y247350D01*
X182800Y216241D02*
X213909Y247350D01*
X188512Y207811D02*
X228051Y247350D01*
X155777Y169419D02*
X233708Y247350D01*
X153535Y170006D02*
X230879Y247350D01*
X147881Y147381D02*
X247850Y247350D01*
X186396Y168925D02*
X264821Y247350D01*
X184565Y169923D02*
X261992Y247350D01*
X187412Y167113D02*
X267649Y247350D01*
X147881Y147381D02*
X247850Y247350D01*
X149901Y146573D02*
X250678Y247350D01*
X172900Y226140D02*
X194110Y247350D01*
X171486Y227555D02*
X191281Y247350D01*
X174314Y224726D02*
X196938Y247350D01*
X170072Y228969D02*
X188453Y247350D01*
X155933D02*
X188271Y215012D01*
X179971Y219069D02*
X208252Y247350D01*
X178557Y220483D02*
X205423Y247350D01*
X181386Y217655D02*
X211080Y247350D01*
X175729Y223312D02*
X199767Y247350D01*
X177143Y221898D02*
X202595Y247350D01*
X195653Y138585D02*
X304419Y247350D01*
X193502Y139262D02*
X301590Y247350D01*
X196934Y137037D02*
X307247Y247350D01*
X186233Y137650D02*
X295933Y247350D01*
X183405Y137650D02*
X293105Y247350D01*
X189062Y137650D02*
X298762Y247350D01*
X192703D02*
X322850Y117203D01*
X195531Y247350D02*
X322850Y120031D01*
X189875Y247350D02*
X322850Y114375D01*
X187046Y247350D02*
X322850Y111546D01*
X184218Y247350D02*
X322850Y108718D01*
X163606Y137650D02*
X273306Y247350D01*
X160777Y137650D02*
X270477Y247350D01*
X166434Y137650D02*
X276134Y247350D01*
X151117Y144960D02*
X253507Y247350D01*
X151172Y142187D02*
X256335Y247350D01*
X177748Y137650D02*
X287448Y247350D01*
X174920Y137650D02*
X284620Y247350D01*
X180576Y137650D02*
X290277Y247350D01*
X169263Y137650D02*
X278963Y247350D01*
X172091Y137650D02*
X281791Y247350D01*
X320049Y231868D02*
X324750Y236569D01*
X319415Y234062D02*
X323827Y238474D01*
X318383Y237636D02*
X324750Y231269D01*
X316085Y245591D02*
X324750Y236926D01*
X315831Y246469D02*
X324750Y237550D01*
X317234Y241613D02*
X324750Y234097D01*
X321317Y227479D02*
X324750Y230912D01*
X320683Y229673D02*
X324750Y233740D01*
X321951Y225285D02*
X324750Y228083D01*
X319532Y233658D02*
X324750Y228440D01*
X320681Y229681D02*
X324750Y225612D01*
X318147Y238451D02*
X320998Y241302D01*
X317513Y240646D02*
X319584Y242716D01*
X318781Y236257D02*
X322412Y239888D01*
X316245Y245035D02*
X316755Y245545D01*
X316879Y242840D02*
X318170Y244130D01*
X308317Y225792D02*
X315712Y233188D01*
X306862Y227166D02*
X315078Y235382D01*
X309472Y224119D02*
X316346Y230994D01*
X302983Y228944D02*
X313811Y239771D01*
X305102Y228235D02*
X314444Y237577D01*
X322979Y221726D02*
X324750Y219955D01*
X323219Y220896D02*
X324750Y222427D01*
Y215596D02*
Y237550D01*
X321830Y225703D02*
X324750Y222783D01*
X322585Y223090D02*
X324750Y225255D01*
X315831Y246469D02*
X324750Y215596D01*
X324128Y217748D02*
X324750Y217127D01*
X323853Y218701D02*
X324750Y219598D01*
X324487Y216507D02*
X324750Y216770D01*
X308567Y213511D02*
X322850Y199227D01*
X300913Y209850D02*
X322850Y187914D01*
X310649Y219639D02*
X317614Y226605D01*
X310291Y222109D02*
X316980Y228799D01*
X310641Y219922D02*
X322850Y207713D01*
X310085Y216247D02*
X318248Y224410D01*
X309685Y223706D02*
X322013Y211378D01*
X309661Y215245D02*
X322850Y202056D01*
X310403Y217331D02*
X322850Y204884D01*
X307169Y212080D02*
X322850Y196399D01*
X305472Y210949D02*
X322850Y193571D01*
X303431Y210161D02*
X322850Y190742D01*
X188512Y213468D02*
X222394Y247350D01*
X187228Y215012D02*
X219566Y247350D01*
X157415Y165400D02*
X239365Y247350D01*
X139162Y141490D02*
X245022Y247350D01*
X157116Y167930D02*
X236536Y247350D01*
X135969Y141126D02*
X242193Y247350D01*
X300338Y229127D02*
X313177Y241966D01*
X296323Y227941D02*
X312543Y244160D01*
X297381Y210554D02*
X322850Y185085D01*
X188512Y210640D02*
X225223Y247350D01*
X188512Y207488D02*
Y215012D01*
X188271D02*
X188512Y214771D01*
X188189Y207488D02*
X188512Y207811D01*
X184028Y215012D02*
X188512D01*
X149101Y168400D02*
X188189Y207488D01*
X180988D02*
X188512D01*
X154000Y137650D02*
X190413D01*
X157497Y166591D02*
X186437Y137650D01*
X254454Y112533D02*
X322850Y180929D01*
X194484Y109131D02*
X296380Y211028D01*
X196249Y108068D02*
X298391Y210209D01*
X138571Y233600D02*
X258376Y113795D01*
X158491Y210851D02*
X256024Y113318D01*
X141399Y233600D02*
X261815Y113184D01*
X264526Y111291D02*
X322850Y169615D01*
X262981Y112574D02*
X322850Y172443D01*
X265707Y109643D02*
X322850Y166786D01*
X258551Y113801D02*
X322850Y178100D01*
X261042Y113463D02*
X322850Y175272D01*
X157655Y208859D02*
X254173Y112341D01*
X155988Y207697D02*
X252702Y110984D01*
X152860Y207997D02*
X251600Y109257D01*
X148929Y209100D02*
X249971Y108057D01*
X248907D02*
X251152D01*
X170939Y133350D02*
X195854Y108435D01*
X249979Y108057D02*
X252125Y110203D01*
X154891Y133350D02*
X190413D01*
X168110D02*
X192371Y109089D01*
X163001Y236040D02*
X174311Y247350D01*
X161575Y237443D02*
X171482Y247350D01*
X164415Y234626D02*
X177139Y247350D01*
X156376Y237900D02*
X165825Y247350D01*
X153547Y237900D02*
X162997Y247350D01*
X159204Y237900D02*
X168654Y247350D01*
X150719Y237900D02*
X160169Y247350D01*
X147890Y237900D02*
X157340Y247350D01*
X150277D02*
X159727Y237900D01*
X138963Y247350D02*
X148413Y237900D01*
X136576D02*
X146027Y247350D01*
X139405Y237900D02*
X148855Y247350D01*
X133748Y237900D02*
X143198Y247350D01*
X136135D02*
X145584Y237900D01*
X145062D02*
X154512Y247350D01*
X144620D02*
X154070Y237900D01*
X147448Y247350D02*
X156898Y237900D01*
X141791Y247350D02*
X151241Y237900D01*
X142233D02*
X151683Y247350D01*
X167243Y231797D02*
X182796Y247350D01*
X165829Y233211D02*
X179968Y247350D01*
X168658Y230383D02*
X185625Y247350D01*
X153105D02*
X185443Y215012D01*
X161770Y237270D02*
X184028Y215012D01*
X159359Y233600D02*
X180988Y211972D01*
X157617Y213686D02*
X168445Y224514D01*
X155927Y214824D02*
X167031Y225928D01*
X158370Y233600D02*
X180988Y210982D01*
X152638Y214364D02*
X165617Y227343D01*
X155541Y233600D02*
X180988Y208154D01*
X137672Y216368D02*
X154904Y233600D01*
X136258Y217782D02*
X152076Y233600D01*
X135742D02*
X154351Y214991D01*
X133430Y220611D02*
X146419Y233600D01*
X134844Y219197D02*
X149247Y233600D01*
X146018Y213400D02*
X162789Y230171D01*
X143189Y213400D02*
X161374Y231585D01*
X148846Y213400D02*
X164203Y228757D01*
X139086Y214954D02*
X157732Y233600D01*
X140501Y213540D02*
X159960Y232999D01*
X130920Y237900D02*
X140370Y247350D01*
X130478D02*
X139928Y237900D01*
X133306Y247350D02*
X142756Y237900D01*
X129603Y239411D02*
X137541Y247350D01*
X124637Y240103D02*
X131884Y247350D01*
X127649D02*
X137099Y237900D01*
X129603Y239740D02*
X131442Y237900D01*
X129240Y240103D02*
X129603Y239740D01*
Y237900D02*
X160250D01*
X127466Y240103D02*
X134713Y247350D01*
X124821D02*
X134271Y237900D01*
X121809Y240103D02*
X129056Y247350D01*
X119164D02*
X126411Y240103D01*
X121992Y247350D02*
X129240Y240103D01*
X116073Y240024D02*
X123399Y247350D01*
X118001Y239123D02*
X126227Y247350D01*
X129603Y237900D02*
Y240103D01*
X120897D02*
X129603D01*
X119538Y235004D02*
X120897Y236363D01*
X116335Y247350D02*
X123583Y240103D01*
X119226Y237521D02*
X120897Y239191D01*
X132015Y222025D02*
X143590Y233600D01*
X130601Y223439D02*
X140762Y233600D01*
X132914D02*
X152359Y214155D01*
X129603Y233600D02*
X159359D01*
X129187Y224854D02*
X137933Y233600D01*
X130086D02*
X150285Y213400D01*
X126631Y231397D02*
X144629Y213400D01*
X123803Y231397D02*
X141800Y213400D01*
X129460Y231397D02*
X147457Y213400D01*
X122643Y231397D02*
X140641Y213400D01*
X116406Y231554D02*
X138230Y209730D01*
X120897Y233143D02*
Y240103D01*
X119600Y235600D02*
X120897Y234303D01*
X129603Y231397D02*
Y233600D01*
X119447Y234594D02*
X120897Y233143D01*
X126358Y227682D02*
X132276Y233600D01*
X124944Y229096D02*
X127245Y231397D01*
X127773Y226268D02*
X135105Y233600D01*
X122643Y231397D02*
X129603D01*
X123530Y230510D02*
X124417Y231397D01*
X158482Y211723D02*
X169860Y223100D01*
X180988Y207488D02*
Y211972D01*
X143272Y209100D02*
X182554Y169817D01*
X146100Y209100D02*
X185787Y169413D01*
X146273Y168400D02*
X185360Y207488D01*
X180988Y208154D02*
X181653Y207488D01*
X143444Y168400D02*
X182532Y207488D01*
X140443Y209100D02*
X180871Y168672D01*
X140616Y168400D02*
X180988Y208772D01*
X140641Y213400D02*
X151663D01*
X140939Y140439D02*
X143619Y143119D01*
X155121Y137650D02*
X181075Y163604D01*
X148674Y164100D02*
X175124Y137650D01*
X156964Y164295D02*
X183609Y137650D01*
X143017Y164100D02*
X169467Y137650D01*
X140189Y164100D02*
X166639Y137650D01*
X145846Y164100D02*
X172296Y137650D01*
X155507Y162924D02*
X180781Y137650D01*
X153049Y162554D02*
X177953Y137650D01*
X157949D02*
X182887Y162588D01*
X151062Y141913D02*
X155325Y137650D01*
X151257Y144546D02*
X158153Y137650D01*
X141990Y138662D02*
X144427Y141099D01*
X149798Y140349D02*
X152838Y137309D01*
X140939Y140439D02*
X143619Y143119D01*
X141626Y135469D02*
X146040Y139883D01*
X147712Y139606D02*
X151389Y135929D01*
X142087Y136746D02*
X147146Y131687D01*
X141180Y134824D02*
X145732Y130272D01*
X132386Y168655D02*
X178345Y214615D01*
X130971Y170069D02*
X176931Y216029D01*
X134959Y168400D02*
X179759Y213200D01*
X129208Y173963D02*
X174102Y218857D01*
X126914Y174497D02*
X172688Y220271D01*
X130578Y172504D02*
X175516Y217443D01*
X139750Y209100D02*
X151663D01*
X137787Y168400D02*
X180988Y211600D01*
X132641Y168400D02*
X150663D01*
X131750Y164100D02*
X150663D01*
X131001Y170459D02*
X133060Y168400D01*
X130953Y170087D02*
X132641Y168400D01*
X127913Y167047D02*
X130230Y164730D01*
X134532Y164100D02*
X160982Y137650D01*
X131703Y164101D02*
X148547Y147257D01*
X137360Y164100D02*
X163810Y137650D01*
X125970Y111327D02*
X180077Y165435D01*
X126656Y111196D02*
X152480Y137020D01*
X118811Y109826D02*
X148813Y139828D01*
X138717Y109932D02*
X162134Y133350D01*
X137031Y111075D02*
X159306Y133350D01*
X139712Y108099D02*
X164963Y133350D01*
X134316Y111189D02*
X156477Y133350D01*
X129697Y108156D02*
X154891Y133350D01*
X125612Y167363D02*
X145913Y147062D01*
X117175Y111018D02*
X140031Y133874D01*
X139537Y133639D02*
X144318Y128858D01*
X136838Y133510D02*
X142903Y127444D01*
X134630Y113090D02*
X136479Y111241D01*
X133216Y111676D02*
X133860Y111032D01*
X131802Y110261D02*
X132211Y109852D01*
X225601Y97821D02*
X322850Y195071D01*
X217115Y97821D02*
X322850Y203556D01*
X228429Y97821D02*
X322850Y192242D01*
X211458Y97821D02*
X322686Y209049D01*
X208630Y97821D02*
X322052Y211243D01*
X214287Y97821D02*
X322850Y206384D01*
X266576Y104855D02*
X322850Y161129D01*
X266468Y107576D02*
X322850Y163958D01*
X239096Y100003D02*
X322850Y183757D01*
X231257Y97821D02*
X322850Y189414D01*
X234086Y97821D02*
X322850Y186585D01*
X203596Y98444D02*
X320784Y215632D01*
X202182Y99858D02*
X320150Y217827D01*
X205802Y97821D02*
X321418Y213438D01*
X199354Y102687D02*
X318882Y222216D01*
X200768Y101273D02*
X319516Y220021D01*
X197939Y104101D02*
X304253Y210415D01*
X262631Y72626D02*
X322850Y132845D01*
X260602Y73426D02*
X322850Y135674D01*
Y70506D02*
Y208481D01*
X222772Y97821D02*
X322850Y197899D01*
X219944Y97821D02*
X322850Y200728D01*
X257954Y73606D02*
X322850Y138502D01*
X266357Y67867D02*
X322850Y124360D01*
X265503Y69842D02*
X322850Y127188D01*
X266634Y65316D02*
X322850Y121531D01*
X264249Y71416D02*
X322850Y130017D01*
X264656Y60509D02*
X322850Y118703D01*
X216611Y1150D02*
X322850Y107389D01*
X266027Y108972D02*
X314750Y60250D01*
X213782Y1150D02*
X322850Y110218D01*
X208125Y1150D02*
X322850Y115875D01*
X210954Y1150D02*
X322850Y113046D01*
X266637Y105534D02*
X313335Y58835D01*
X266161Y103182D02*
X311921Y57421D01*
X249206Y103166D02*
X306000Y46372D01*
X247792Y101751D02*
X306000Y43543D01*
X219439Y1150D02*
X322850Y104561D01*
X170076Y247350D02*
X322850Y94576D01*
X178561Y247350D02*
X322850Y103061D01*
X167247Y247350D02*
X322850Y91747D01*
X161590Y247350D02*
X322850Y86090D01*
X164419Y247350D02*
X322850Y88919D01*
X158762Y247350D02*
X322850Y83262D01*
X188512Y214771D02*
X322850Y80433D01*
X181389Y247350D02*
X322850Y105889D01*
X187310Y207488D02*
X322850Y71948D01*
X175733Y247350D02*
X322850Y100233D01*
X172904Y247350D02*
X322850Y97404D01*
X152713Y233600D02*
X320407Y65907D01*
X149884Y233600D02*
X318992Y64492D01*
X147056Y233600D02*
X317578Y63078D01*
X119751Y107937D02*
X259164Y247350D01*
X139853Y74299D02*
X311909Y246355D01*
X188512Y211943D02*
X322850Y77605D01*
X197199Y106189D02*
X300861Y209851D01*
X188512Y209114D02*
X322850Y74777D01*
X184482Y207488D02*
X322551Y69419D01*
X181653Y207488D02*
X321821Y67321D01*
X174184Y1150D02*
X322850Y149816D01*
X171356Y1150D02*
X322850Y152644D01*
X177013Y1150D02*
X322850Y146987D01*
X165699Y1150D02*
X322850Y158301D01*
X144228Y233600D02*
X316164Y61664D01*
X168527Y1150D02*
X322850Y155473D01*
X182669Y1150D02*
X322850Y141331D01*
X194028Y101775D02*
X274881Y20922D01*
X179841Y1150D02*
X322850Y144159D01*
X150187Y128646D02*
X277683Y1150D01*
X151601Y130060D02*
X280511Y1150D01*
X159625Y133350D02*
X273800Y19175D01*
X156797Y133350D02*
X273075Y17072D01*
X154429Y132889D02*
X272866Y14453D01*
X153015Y131475D02*
X273935Y10555D01*
X148773Y127232D02*
X274854Y1150D01*
X145944Y124404D02*
X269198Y1150D01*
X144530Y122989D02*
X266369Y1150D01*
X147358Y125818D02*
X272026Y1150D01*
X141701Y120161D02*
X260712Y1150D01*
X143116Y121575D02*
X263541Y1150D01*
X322034Y67534D02*
X322850Y70506D01*
X306000Y51500D02*
X322034Y67534D01*
X279084Y24025D02*
X306000Y50941D01*
X266644Y65929D02*
X306000Y26573D01*
X265411Y69990D02*
X306000Y29401D01*
X266301Y63443D02*
X306000Y23744D01*
X288737Y22364D02*
X306000Y39628D01*
X287053Y23509D02*
X306000Y42456D01*
X290121Y20920D02*
X306000Y36799D01*
X282537Y24650D02*
X306000Y48113D01*
X285028Y24313D02*
X306000Y45284D01*
X292134Y14448D02*
X306000Y28314D01*
X291926Y17068D02*
X306000Y31142D01*
Y9155D02*
Y51500D01*
X265409Y61507D02*
X306000Y20916D01*
X291201Y19172D02*
X306000Y33971D01*
X291522Y18423D02*
X304878Y5068D01*
X292150Y14967D02*
X304268Y2849D01*
X291814Y12475D02*
X303139Y1150D01*
X291061Y10546D02*
X306000Y25485D01*
X292978Y1150D02*
X306000Y14172D01*
X291010Y10450D02*
X300310Y1150D01*
X295807D02*
X306000Y11343D01*
X287321Y1150D02*
X306000Y19829D01*
X284493Y1150D02*
X306000Y22657D01*
X290150Y1150D02*
X306000Y17000D01*
X298635Y1150D02*
X305758Y8273D01*
X301464Y1150D02*
X304687Y4373D01*
X303801Y1150D02*
X306000Y9155D01*
X288422Y7381D02*
X294654Y1150D01*
X289866Y8766D02*
X297482Y1150D01*
X281665D02*
X286954Y6439D01*
X278055Y6435D02*
X283340Y1150D01*
X286675Y6300D02*
X291825Y1150D01*
X267522D02*
X275136Y8764D01*
X270351Y1150D02*
X276580Y7379D01*
X281953Y5365D02*
X286168Y1150D01*
X278836D02*
X283052Y5366D01*
X284572Y5575D02*
X288997Y1150D01*
X273179D02*
X278328Y6299D01*
X276008Y1150D02*
X280432Y5574D01*
X265184Y101330D02*
X310507Y56007D01*
X263826Y99859D02*
X309093Y54593D01*
X262100Y98757D02*
X307679Y53179D01*
X246378Y100337D02*
X306000Y40715D01*
X256990Y98210D02*
X306000Y49200D01*
X244964Y98923D02*
X306000Y37887D01*
X259929Y98100D02*
X306264Y51764D01*
X264123Y59964D02*
X306000Y18088D01*
X262473Y58787D02*
X306000Y15259D01*
X243549Y97509D02*
X306000Y35058D01*
X243001Y95228D02*
X306000Y32230D01*
X213596Y93521D02*
X282467Y24650D01*
X210768Y93521D02*
X279975Y24314D01*
X216424Y93521D02*
X285923Y24022D01*
X207939Y93521D02*
X277950Y23510D01*
X205111Y93521D02*
X276266Y22366D01*
X260402Y58029D02*
X306000Y12431D01*
X243024Y89549D02*
X258929Y73644D01*
X242233Y93169D02*
X262990Y72411D01*
X233581Y1150D02*
X322850Y90419D01*
X230753Y1150D02*
X322850Y93247D01*
X236410Y1150D02*
X322850Y87590D01*
X225096Y1150D02*
X322850Y98904D01*
X222268Y1150D02*
X322850Y101733D01*
X227924Y1150D02*
X322850Y96076D01*
X250552Y1150D02*
X322850Y73448D01*
X244895Y1150D02*
X322850Y79105D01*
X253380Y1150D02*
X322850Y70620D01*
X239238Y1150D02*
X322850Y84762D01*
X242067Y1150D02*
X322850Y81933D01*
X257675Y57927D02*
X306000Y9602D01*
X219253Y93521D02*
X305487Y7287D01*
X247723Y1150D02*
X322850Y76277D01*
X162871Y1150D02*
X259802Y98082D01*
X205297Y1150D02*
X263991Y59844D01*
X261866Y1150D02*
X273187Y12472D01*
X259037Y1150D02*
X272850Y14963D01*
X264694Y1150D02*
X273991Y10447D01*
X202468Y1150D02*
X259184Y57866D01*
X256209Y1150D02*
X273475Y18416D01*
X187317Y165055D02*
X246166Y106206D01*
X186913Y168287D02*
X247592Y107608D01*
X186172Y163371D02*
X244751Y104792D01*
X184200Y162515D02*
X243337Y103378D01*
X249798Y103757D02*
X251152D01*
X239827Y99868D02*
X247387Y107428D01*
X204219Y97821D02*
X234887D01*
X197258Y135315D02*
X234752Y97821D01*
X185081Y133350D02*
X220610Y97821D01*
X187909Y133350D02*
X223438Y97821D01*
X197203Y104837D02*
X204219Y97821D01*
X243024Y89789D02*
X253366Y100131D01*
X243018Y95439D02*
X251194Y103615D01*
X243024Y86960D02*
X255014Y98951D01*
X242868Y96827D02*
X249798Y103757D01*
X240588Y90182D02*
X252083Y101676D01*
X243024Y84132D02*
X257082Y98190D01*
X192065Y132022D02*
X226266Y97821D01*
X182253Y133350D02*
X217781Y97821D01*
X196506Y133238D02*
X231923Y97821D01*
X176596Y133350D02*
X212124Y97821D01*
X179424Y133350D02*
X214953Y97821D01*
X196435Y107854D02*
X206468Y97821D01*
X194906Y132010D02*
X229095Y97821D01*
X194163Y101797D02*
X201809Y94151D01*
X165282Y133350D02*
X190662Y107970D01*
X162453Y133350D02*
X189775Y106028D01*
X173767Y133350D02*
X209296Y97821D01*
X132764Y81353D02*
X184762Y133350D01*
X121135Y83865D02*
X170620Y133350D01*
X135593Y81353D02*
X187590Y133350D01*
X139276Y104835D02*
X167791Y133350D01*
X138421Y81353D02*
X190415Y133346D01*
X122819Y82721D02*
X173448Y133350D01*
X124233Y81307D02*
X176276Y133350D01*
X130388Y108847D02*
X131258Y107977D01*
X129843Y106716D02*
X131311Y108184D01*
X119669Y108253D02*
X121153Y106768D01*
X129832Y106574D02*
X132017Y104390D01*
X118775Y104133D02*
X121173Y106530D01*
X118341Y83900D02*
X137665Y103224D01*
X115513Y83900D02*
X134401Y102788D01*
X116637Y102798D02*
X138083Y81353D01*
X139741Y107979D02*
X246570Y1150D01*
X139532Y105360D02*
X243742Y1150D01*
X140287Y118747D02*
X257884Y1150D01*
X137459Y115918D02*
X252227Y1150D01*
X136045Y114504D02*
X249399Y1150D01*
X138873Y117332D02*
X255055Y1150D01*
X136477Y102758D02*
X238085Y1150D01*
X132890Y103517D02*
X235256Y1150D01*
X138352Y103711D02*
X240913Y1150D01*
X127576Y103174D02*
X229600Y1150D01*
X129069Y104509D02*
X232428Y1150D01*
X139853Y79956D02*
X191963Y132066D01*
X128619Y80036D02*
X181933Y133350D01*
X139853Y77127D02*
X194640Y131915D01*
X126882Y81127D02*
X179105Y133350D01*
X119588Y105505D02*
X223943Y1150D01*
X143230Y38079D02*
X200556Y95404D01*
X141296Y38972D02*
X199142Y96818D01*
X144344Y36363D02*
X201978Y93998D01*
X118458Y103806D02*
X221114Y1150D01*
X125268Y102653D02*
X226771Y1150D01*
X243024Y86720D02*
X256443Y73302D01*
X243024Y81476D02*
Y90182D01*
Y83892D02*
X254507Y72409D01*
X234318Y90182D02*
X243024D01*
X240734Y91838D02*
X242391Y90182D01*
X243024Y89549D01*
X242611Y81476D02*
X252964Y71123D01*
X239783Y81476D02*
X251787Y69473D01*
X234318Y81476D02*
X243024D01*
X236955D02*
X251029Y67402D01*
X233395Y93521D02*
X236734Y90182D01*
X230566Y93521D02*
X234318Y89769D01*
X227738Y93521D02*
X234318Y86941D01*
X203329Y93521D02*
X234887D01*
X224910D02*
X234318Y84113D01*
X237760Y90182D02*
X238903Y91325D01*
X234931Y90182D02*
X236595Y91845D01*
X238419Y91326D02*
X239563Y90182D01*
X234318Y89569D02*
X234931Y90182D01*
X234318Y81476D02*
Y90182D01*
X222081Y93521D02*
X250927Y64675D01*
X160042Y1150D02*
X240368Y81476D01*
X157214Y1150D02*
X237540Y81476D01*
X185498Y1150D02*
X250894Y66546D01*
X196812Y1150D02*
X254658Y58997D01*
X193983Y1150D02*
X253084Y60251D01*
X199640Y1150D02*
X256633Y58143D01*
X188326Y1150D02*
X251074Y63898D01*
X191155Y1150D02*
X251874Y61869D01*
X145900Y1150D02*
X234318Y89569D01*
X143581Y32773D02*
X204330Y93521D01*
X148728Y1150D02*
X234318Y86740D01*
X140243Y1150D02*
X232614Y93521D01*
X143071Y1150D02*
X235102Y93180D01*
X151557Y1150D02*
X234318Y83912D01*
X144511Y35326D02*
X178688Y1150D01*
X154385D02*
X234711Y81476D01*
X142341Y31841D02*
X173031Y1150D01*
X143867Y33143D02*
X175859Y1150D01*
X139853Y72647D02*
Y81353D01*
X131147D02*
X139853D01*
X131147Y72647D02*
Y81353D01*
X129564Y78558D02*
X131147Y76975D01*
X129668Y78256D02*
X131147Y79735D01*
Y72647D02*
X139853D01*
Y73926D02*
X212629Y1150D01*
X129482Y75242D02*
X131147Y76907D01*
X129639Y75654D02*
X131147Y74146D01*
X122270Y83270D02*
X124344Y81196D01*
X119859Y79600D02*
X121303Y78156D01*
X119852Y76926D02*
X121193Y78267D01*
X119271Y79173D02*
X119698Y79600D01*
X119852Y76956D02*
X121482Y75327D01*
X118991Y79600D02*
X119859D01*
X134586Y1150D02*
X226957Y93521D01*
X131758Y1150D02*
X224129Y93521D01*
X137415Y1150D02*
X229786Y93521D01*
X126101Y1150D02*
X218472Y93521D01*
X128929Y1150D02*
X221301Y93521D01*
X139853Y79583D02*
X218286Y1150D01*
X123273D02*
X215644Y93521D01*
X139853Y76755D02*
X215457Y1150D01*
X117616D02*
X209987Y93521D01*
X120444Y1150D02*
X212815Y93521D01*
X126793Y72844D02*
X198487Y1150D01*
X123827Y72982D02*
X195658Y1150D01*
X128560Y73905D02*
X201315Y1150D01*
X117829Y73323D02*
X190002Y1150D01*
X119228Y74752D02*
X192830Y1150D01*
X138303Y72647D02*
X209801Y1150D01*
X135475Y72647D02*
X206972Y1150D01*
X139721Y31631D02*
X170203Y1150D01*
X115673Y72651D02*
X187173Y1150D01*
X132647Y72647D02*
X204144Y1150D01*
X110679Y247350D02*
X120897Y237131D01*
X113507Y247350D02*
X120897Y239960D01*
X109562Y236342D02*
X120571Y247350D01*
X107850D02*
X115100Y240100D01*
X104816Y240081D02*
X112085Y247350D01*
X108741Y238349D02*
X117742Y247350D01*
X107203Y239640D02*
X114914Y247350D01*
X105022D02*
X112935Y239436D01*
X102193Y247350D02*
X111531Y238012D01*
X96536Y247350D02*
X103975Y239912D01*
X93708Y247350D02*
X102201Y238857D01*
X94150Y237900D02*
X103600Y247350D01*
X90880D02*
X100330Y237900D01*
X91322D02*
X100772Y247350D01*
X109251Y237464D02*
X110898Y235817D01*
X99807Y237900D02*
X109257Y247350D01*
X99365D02*
X106964Y239751D01*
X96978Y237900D02*
X106429Y247350D01*
X115317Y231398D02*
X180015Y166700D01*
X113214Y230673D02*
X241923Y101963D01*
X111799Y229259D02*
X240509Y100549D01*
X110385Y227845D02*
X238228Y100001D01*
X107557Y225016D02*
X193315Y139258D01*
X108971Y226430D02*
X236169Y99233D01*
X106142Y223602D02*
X191238Y138506D01*
X104728Y222188D02*
X189266Y137650D01*
X109412Y234475D02*
X110173Y233714D01*
X96144Y233600D02*
X103102Y226642D01*
X93316Y233600D02*
X101688Y225228D01*
X108357Y232701D02*
X108759Y232299D01*
X106613Y231616D02*
X107344Y230885D01*
X103730Y231671D02*
X105930Y229471D01*
X98973Y233600D02*
X104516Y228057D01*
X91520Y208980D02*
X114094Y231554D01*
X88051Y247350D02*
X97501Y237900D01*
X85665D02*
X95115Y247350D01*
X88493Y237900D02*
X97943Y247350D01*
X29750D02*
X311621D01*
X50250Y237900D02*
X101465D01*
X85223Y247350D02*
X94673Y237900D01*
X90487Y233600D02*
X100274Y223814D01*
X87659Y233600D02*
X98859Y222400D01*
X84831Y233600D02*
X97445Y220986D01*
X51141Y233600D02*
X101465D01*
X82003D02*
X96031Y219571D01*
X82394Y247350D02*
X91844Y237900D01*
X80008D02*
X89458Y247350D01*
X82836Y237900D02*
X92286Y247350D01*
X76737D02*
X86187Y237900D01*
X77179D02*
X86629Y247350D01*
X79174Y233600D02*
X94617Y218157D01*
X79566Y247350D02*
X89016Y237900D01*
X76346Y233600D02*
X93203Y216743D01*
X73517Y233600D02*
X91788Y215329D01*
X70689Y233600D02*
X90374Y213915D01*
X89109Y212650D02*
X111054Y234594D01*
X88699Y212650D02*
X110976Y234927D01*
X44314Y151295D02*
X120490Y227470D01*
X41099Y153736D02*
X117661Y230298D01*
X38979Y154445D02*
X115996Y231462D01*
X42859Y152668D02*
X119075Y228884D01*
X46290Y147613D02*
X123318Y224641D01*
X45471Y149623D02*
X121904Y226056D01*
X46649Y145144D02*
X124732Y223227D01*
X1150Y226771D02*
X116753Y111169D01*
X1150Y223943D02*
X114005Y111088D01*
X68900Y212650D02*
X89850Y233600D01*
X67860D02*
X88810Y212650D01*
X71728D02*
X92678Y233600D01*
X65032D02*
X85982Y212650D01*
X66072D02*
X87022Y233600D01*
X83042Y212650D02*
X102651Y232259D01*
X80214Y212650D02*
X101164Y233600D01*
X85871Y212650D02*
X104658Y231438D01*
X74557Y212650D02*
X95507Y233600D01*
X77385Y212650D02*
X98335Y233600D01*
X103314Y220774D02*
X154091Y169997D01*
X101900Y219359D02*
X151795Y169464D01*
X100486Y217945D02*
X150031Y168400D01*
X97657Y215117D02*
X144374Y168400D01*
X96243Y213703D02*
X141546Y168400D01*
X99072Y216531D02*
X147203Y168400D01*
X100131Y173170D02*
X137460Y210499D01*
X98449Y174316D02*
X136046Y211913D01*
X100986Y171196D02*
X139018Y209228D01*
X94829Y212288D02*
X138717Y168400D01*
X81797Y208350D02*
X144349Y145798D01*
X95224Y173920D02*
X134632Y213328D01*
X92001Y209460D02*
X126959Y174501D01*
X93415Y210874D02*
X135889Y168400D01*
X90266Y208366D02*
X124925Y173707D01*
X108210Y141651D02*
X130854Y164295D01*
X87454Y208350D02*
X123729Y172075D01*
X84625Y208350D02*
X123863Y169112D01*
X112136Y137092D02*
X139144Y164100D01*
X111669Y139453D02*
X136316Y164100D01*
X100811Y169536D02*
X134010Y136338D01*
X99659Y167860D02*
X141489Y126030D01*
X100454Y172722D02*
X134139Y139037D01*
X97679Y167012D02*
X140075Y124616D01*
X114584Y111255D02*
X136838Y133510D01*
X109411Y108911D02*
X135061Y134561D01*
X109411Y108911D02*
X135061Y134561D01*
X106148Y111304D02*
X134374Y139531D01*
X108136Y110464D02*
X134010Y136338D01*
X112029Y138520D02*
X133004Y117545D01*
X111831Y135889D02*
X131590Y116130D01*
X110619Y134273D02*
X130176Y114716D01*
X110329Y140942D02*
X133487Y164100D01*
X109846Y106761D02*
X111663Y104944D01*
X109823Y106495D02*
X111245Y107916D01*
X108666Y133398D02*
X128761Y113302D01*
X78968Y208350D02*
X143606Y143712D01*
X46088Y141754D02*
X126146Y221813D01*
X73311Y208350D02*
X148560Y133101D01*
X34045Y216504D02*
X109020Y141529D01*
X32630Y215090D02*
X106389Y141331D01*
X31216Y213676D02*
X104773Y140119D01*
X70483Y208350D02*
X137246Y141587D01*
X67655Y208350D02*
X135324Y140680D01*
X76140Y208350D02*
X149975Y134515D01*
X55124Y206738D02*
X138661Y123201D01*
X52296Y206738D02*
X137247Y121787D01*
X61998Y208350D02*
X96036Y174311D01*
X58762Y212650D02*
X89109D01*
X59169Y208350D02*
X94360Y173159D01*
X36333Y154627D02*
X90057Y208351D01*
X29802Y212261D02*
X103898Y138166D01*
X64826Y208350D02*
X99222Y173954D01*
X58762Y208350D02*
X90000D01*
X57953Y206738D02*
X93512Y171178D01*
X32313Y153435D02*
X87227Y208350D01*
X1150Y125101D02*
X84399Y208350D01*
X36873Y219333D02*
X135832Y120373D01*
X35459Y217918D02*
X134418Y118959D01*
X28762Y210473D02*
X127347Y111888D01*
X1150Y91160D02*
X128975Y218985D01*
X1150Y93988D02*
X127561Y220399D01*
X1150Y88331D02*
X130389Y217570D01*
X69109Y108207D02*
X127931Y167029D01*
X69179Y111105D02*
X125496Y167422D01*
X34363Y87603D02*
X154277Y207518D01*
X28075Y208332D02*
X125075Y111332D01*
X31534Y87603D02*
X152314Y208383D01*
X1150Y215457D02*
X105261Y111346D01*
X1150Y212629D02*
X103129Y110650D01*
X1150Y209801D02*
X101746Y109204D01*
X1150Y221114D02*
X112306Y109958D01*
X1150Y218286D02*
X111299Y108137D01*
X68059Y112813D02*
X124037Y168792D01*
X66210Y113794D02*
X123503Y171086D01*
X26520Y207058D02*
X123009Y110569D01*
X23823Y206927D02*
X121674Y109076D01*
X1150Y206972D02*
X101147Y106975D01*
X65866Y237900D02*
X75316Y247350D01*
X65424D02*
X74874Y237900D01*
X68252Y247350D02*
X77702Y237900D01*
X62596Y247350D02*
X72046Y237900D01*
X60209D02*
X69659Y247350D01*
X63037Y237900D02*
X72487Y247350D01*
X73909D02*
X83359Y237900D01*
X71523D02*
X80973Y247350D01*
X74351Y237900D02*
X83801Y247350D01*
X68694Y237900D02*
X78144Y247350D01*
X71081D02*
X80531Y237900D01*
X51282Y247350D02*
X60732Y237900D01*
X48454Y247350D02*
X57903Y237900D01*
X51724D02*
X61174Y247350D01*
X42797D02*
X52247Y237900D01*
X45625Y247350D02*
X55075Y237900D01*
X57380D02*
X66830Y247350D01*
X56939D02*
X66389Y237900D01*
X59767Y247350D02*
X69217Y237900D01*
X54110Y247350D02*
X63560Y237900D01*
X54552D02*
X64002Y247350D01*
X62204Y233600D02*
X83153Y212650D01*
X60415D02*
X81365Y233600D01*
X63243Y212650D02*
X84193Y233600D01*
X59375D02*
X80325Y212650D01*
X58762Y213826D02*
X78536Y233600D01*
X56547D02*
X77497Y212650D01*
X56370Y214262D02*
X75708Y233600D01*
X53542Y214262D02*
X72879Y233600D01*
X53718D02*
X74668Y212650D01*
X51015Y233475D02*
X71840Y212650D01*
X28426Y208946D02*
X53080Y233600D01*
X39968Y247350D02*
X49539Y237779D01*
X37140Y247350D02*
X47975Y236515D01*
X34311Y247350D02*
X46560Y235101D01*
X28655Y247350D02*
X43732Y232273D01*
X25826Y247350D02*
X42318Y230858D01*
X31483Y247350D02*
X45146Y233687D01*
X25663Y214203D02*
X48730Y237270D01*
X28703Y211163D02*
X51141Y233600D01*
X22998Y247350D02*
X40903Y229444D01*
X20169Y247350D02*
X39489Y228030D01*
X17341Y247350D02*
X38075Y226616D01*
X14512Y247350D02*
X36661Y225201D01*
X11684Y247350D02*
X35247Y223787D01*
X8856Y247350D02*
X33832Y222373D01*
X6027Y247350D02*
X32418Y220959D01*
X3199Y247350D02*
X31004Y219545D01*
X1150Y218439D02*
X30061Y247350D01*
X1150D02*
X29750D01*
X1150Y246570D02*
X29590Y218130D01*
X1150Y238238D02*
X10262Y247350D01*
X1150Y241067D02*
X7434Y247350D01*
X1150Y235410D02*
X13090Y247350D01*
X1150Y246723D02*
X1777Y247350D01*
X1150Y243895D02*
X4605Y247350D01*
X1150Y224096D02*
X24404Y247350D01*
X1150Y226924D02*
X21576Y247350D01*
X1150Y221268D02*
X27233Y247350D01*
X1150Y232581D02*
X15919Y247350D01*
X1150Y229753D02*
X18747Y247350D01*
X25249Y214254D02*
X58345Y247350D01*
X1150Y195812D02*
X52688Y247350D01*
X1150Y192983D02*
X55517Y247350D01*
X1150Y198640D02*
X49860Y247350D01*
X1150Y201468D02*
X47032Y247350D01*
X1150Y170356D02*
X64394Y233600D01*
X1150Y176013D02*
X58737Y233600D01*
X1150Y178841D02*
X55909Y233600D01*
X1150Y173184D02*
X61566Y233600D01*
X1150Y167527D02*
X67223Y233600D01*
X1150Y164699D02*
X70051Y233600D01*
X1150Y207125D02*
X41375Y247350D01*
X1150Y209954D02*
X38546Y247350D01*
X1150Y204297D02*
X44203Y247350D01*
X1150Y215611D02*
X32889Y247350D01*
X1150Y212782D02*
X35718Y247350D01*
X1150Y238085D02*
X24973Y214262D01*
X1150Y235256D02*
X22832Y213575D01*
X1150Y232428D02*
X21558Y212020D01*
X1150Y243742D02*
X28176Y216716D01*
X1150Y240913D02*
X26761Y215302D01*
X49601Y232060D02*
X69011Y212650D01*
X51238Y214262D02*
X58762D01*
X48187Y230646D02*
X66183Y212650D01*
X45358Y227818D02*
X60526Y212650D01*
X43944Y226403D02*
X56085Y214262D01*
X46773Y229232D02*
X63354Y212650D01*
X58762D02*
Y214262D01*
Y206738D02*
Y208350D01*
X51238Y206738D02*
X58762D01*
X42530Y224989D02*
X53257Y214262D01*
X41116Y223575D02*
X51238Y213453D01*
X39701Y222161D02*
X51238Y210625D01*
X1150Y229600D02*
X21427Y209323D01*
X38287Y220747D02*
X51238Y207796D01*
Y206738D02*
Y214262D01*
X1150Y190155D02*
X21246Y210251D01*
X1150Y136415D02*
X73085Y208350D01*
X42656Y137181D02*
X66000Y113838D01*
X31340Y137184D02*
X60492Y108032D01*
X1150Y142071D02*
X67428Y208350D01*
X1150Y147728D02*
X61772Y208350D01*
X1150Y139243D02*
X70257Y208350D01*
X40856Y136154D02*
X63493Y113516D01*
X38683Y135498D02*
X61931Y112250D01*
X35945Y135408D02*
X61122Y110231D01*
X1150Y184498D02*
X23643Y206991D01*
X1150Y187326D02*
X22023Y208200D01*
X1150Y181669D02*
X26554Y207074D01*
X1150Y161871D02*
X51238Y211958D01*
X1150Y159042D02*
X51238Y209130D01*
X1150Y156214D02*
X51674Y206738D01*
X28897Y87603D02*
X37603D01*
X1150Y153385D02*
X54503Y206738D01*
X1150Y150557D02*
X57331Y206738D01*
X1150Y192830D02*
X39722Y154258D01*
X1150Y190002D02*
X36514Y154638D01*
X1150Y130758D02*
X78742Y208350D01*
X1150Y133586D02*
X75914Y208350D01*
X1150Y144900D02*
X64600Y208350D01*
X1150Y127929D02*
X81571Y208350D01*
X1150Y108130D02*
X30705Y137686D01*
X1150Y181516D02*
X30518Y152149D01*
X1150Y164546D02*
X59078Y106618D01*
X1150Y187173D02*
X34115Y154209D01*
X1150Y184345D02*
X32151Y153343D01*
X1150Y173031D02*
X27498Y146683D01*
X1150Y170203D02*
X27408Y143945D01*
X1150Y167374D02*
X29184Y139340D01*
X1150Y178688D02*
X29182Y150656D01*
X1150Y175859D02*
X28154Y148856D01*
X1150Y113787D02*
X28264Y140901D01*
X1150Y116616D02*
X27555Y143021D01*
X1150Y110959D02*
X29332Y139141D01*
X1150Y122273D02*
X28565Y149687D01*
X1150Y119444D02*
X27373Y145667D01*
X1150Y156060D02*
X54835Y102375D01*
X1150Y153232D02*
X53421Y100961D01*
X1150Y150403D02*
X52007Y99547D01*
X1150Y161717D02*
X57663Y105204D01*
X1150Y158889D02*
X56249Y103790D01*
X1150Y141918D02*
X47764Y95304D01*
X1150Y139090D02*
X46350Y93890D01*
X1150Y136261D02*
X44935Y92476D01*
X1150Y147575D02*
X50592Y98133D01*
X1150Y144747D02*
X49178Y96719D01*
X1150Y99645D02*
X36856Y135351D01*
X1150Y102473D02*
X34387Y135711D01*
X1150Y133433D02*
X43521Y91062D01*
X1150Y105302D02*
X32377Y136529D01*
X1150Y96817D02*
X40246Y135912D01*
X1150Y122119D02*
X35666Y87603D01*
X1150Y119291D02*
X32838Y87603D01*
X1150Y116462D02*
X30010Y87603D01*
X1150Y130605D02*
X42107Y89648D01*
X1150Y127776D02*
X40693Y88233D01*
X112684Y83900D02*
X132568Y103783D01*
X109856Y83900D02*
X131425Y105469D01*
X109150Y104629D02*
X132426Y81353D01*
X101371Y83900D02*
X121951Y104480D01*
X98542Y83900D02*
X118367Y103725D01*
X107704Y103246D02*
X131147Y79803D01*
X113444Y103163D02*
X135255Y81353D01*
X107027Y83900D02*
X125784Y102656D01*
X105475Y102647D02*
X127058Y81064D01*
X95714Y83900D02*
X114563Y102749D01*
X104199Y83900D02*
X123456Y103157D01*
X90057Y83900D02*
X111482Y105325D01*
X87228Y83900D02*
X106005Y102677D01*
X92885Y83900D02*
X112674Y103689D01*
X84400Y83900D02*
X103589Y103089D01*
X84400Y83900D02*
X103589Y103089D01*
X108991Y79600D02*
X112009D01*
X111552D02*
X111823Y79329D01*
X109712Y78099D02*
X111213Y79600D01*
X100238D02*
X101394Y78444D01*
X114005Y37137D02*
X292265Y215398D01*
X112578Y38539D02*
X291556Y217517D01*
X114484Y34788D02*
X293334Y213638D01*
X110179Y38969D02*
X291373Y220162D01*
X89331Y1150D02*
X190932Y102751D01*
X83675Y1150D02*
X294708Y212183D01*
X100645Y1150D02*
X197727Y98232D01*
X97817Y1150D02*
X196313Y99646D01*
X114787Y1150D02*
X207158Y93521D01*
X92160Y1150D02*
X192811Y101801D01*
X94988Y1150D02*
X194899Y101061D01*
X94581Y79600D02*
X104820Y69361D01*
X91753Y79600D02*
X102453Y68900D01*
X86503Y1150D02*
X189869Y104516D01*
X97409Y79600D02*
X101363Y75646D01*
X89199Y68900D02*
X99899Y79600D01*
X88924D02*
X99624Y68900D01*
X83542D02*
X94242Y79600D01*
X86371Y68900D02*
X97071Y79600D01*
X37191Y87603D02*
X171274Y221686D01*
X1150Y85503D02*
X131803Y216156D01*
X70258Y83900D02*
X150458Y164100D01*
X1150Y201315D02*
X118565Y83900D01*
X1150Y198487D02*
X115737Y83900D01*
X1150Y204144D02*
X121547Y83747D01*
X73086Y83900D02*
X152070Y162884D01*
X67429Y83900D02*
X147629Y164100D01*
X75915Y83900D02*
X154600Y162585D01*
X67250Y83900D02*
X120750D01*
X64547Y83846D02*
X144801Y164100D01*
X46258Y147722D02*
X110080Y83900D01*
X46209Y142115D02*
X104423Y83900D01*
X46638Y144514D02*
X107252Y83900D01*
X1150Y195658D02*
X112908Y83900D01*
X45343Y140151D02*
X101595Y83900D01*
X78743D02*
X101196Y106352D01*
X69338Y110500D02*
X95938Y83900D01*
X81572D02*
X102036Y104364D01*
X44149Y138518D02*
X98766Y83900D01*
X69016Y107993D02*
X93109Y83900D01*
X1150Y65704D02*
X144546Y209100D01*
X1150Y82674D02*
X133218Y214742D01*
X69532Y1150D02*
X292559Y224177D01*
X1150Y62875D02*
X147374Y209100D01*
X1150Y68532D02*
X141718Y209100D01*
X1150Y60047D02*
X150203Y209100D01*
X43944Y68900D02*
X108408Y133364D01*
X41116Y68900D02*
X106047Y133832D01*
X46773Y68900D02*
X141973Y164100D01*
X37563Y73833D02*
X129345Y165614D01*
X39464Y70077D02*
X104558Y135171D01*
X38050Y71491D02*
X103849Y137291D01*
X1150Y74189D02*
X94830Y167869D01*
X1150Y71361D02*
X96804Y167014D01*
X1150Y79846D02*
X94080Y172776D01*
X1150Y77018D02*
X93684Y169551D01*
X69403Y79600D02*
X102009D01*
X80714Y68900D02*
X91414Y79600D01*
X83267D02*
X93967Y68900D01*
X1150Y93835D02*
X93835Y1150D01*
X1150Y96663D02*
X96663Y1150D01*
X109410Y78914D02*
X111151Y77172D01*
X109276Y74835D02*
X111156Y76715D01*
X110689Y69149D02*
X140826Y39011D01*
X109686Y75808D02*
X110477Y75018D01*
X109275Y67734D02*
X138643Y38367D01*
X104359Y68900D02*
X111303Y75844D01*
X106770Y65230D02*
X114344Y72803D01*
X108660Y74006D02*
X109063Y73603D01*
X103341Y68900D02*
X107665Y73224D01*
X97684Y68900D02*
X102568Y73783D01*
X92027Y68900D02*
X101311Y78184D01*
X94856Y68900D02*
X101425Y75469D01*
X106944Y72894D02*
X107649Y72189D01*
X104146Y72863D02*
X106234Y70775D01*
X100513Y68900D02*
X104401Y72788D01*
X112103Y70563D02*
X181516Y1150D01*
X103924Y64600D02*
X167374Y1150D01*
X113518Y71977D02*
X184345Y1150D01*
X98267Y64600D02*
X161717Y1150D01*
X95439Y64600D02*
X158889Y1150D01*
X101096Y64600D02*
X164546Y1150D01*
X113358Y32539D02*
X144747Y1150D01*
X111959D02*
X143227Y32419D01*
X114397Y34328D02*
X147575Y1150D01*
X92610Y64600D02*
X156060Y1150D01*
X111504Y31564D02*
X141918Y1150D01*
X107861Y66320D02*
X137340Y36841D01*
X106412Y64941D02*
X137131Y34221D01*
X109130Y1150D02*
X139637Y31656D01*
X103473Y1150D02*
X137028Y34704D01*
X106302Y1150D02*
X137921Y32770D01*
X75640Y64600D02*
X139090Y1150D01*
X66704D02*
X138201Y72647D01*
X89782Y64600D02*
X153232Y1150D01*
X61047D02*
X132544Y72647D01*
X61498Y64600D02*
X124948Y1150D01*
X63876D02*
X135373Y72647D01*
X72811Y64600D02*
X136261Y1150D01*
X69983Y64600D02*
X133433Y1150D01*
X86954Y64600D02*
X150403Y1150D01*
X64326Y64600D02*
X127776Y1150D01*
X67155Y64600D02*
X130605Y1150D01*
X84125Y64600D02*
X109828Y38897D01*
X86096Y79600D02*
X96796Y68900D01*
X81297Y64600D02*
X108039Y37858D01*
X40641Y68900D02*
X104359D01*
X58669Y64600D02*
X122119Y1150D01*
X80846D02*
X111212Y31516D01*
X78468Y64600D02*
X107064Y36004D01*
X78018Y1150D02*
X108863Y31995D01*
X39750Y64600D02*
X105250D01*
X72361Y1150D02*
X107031Y35821D01*
X55390Y1150D02*
X127258Y73018D01*
X52562Y1150D02*
X124244Y72832D01*
X58219Y1150D02*
X131147Y74079D01*
X46905Y1150D02*
X121373Y75618D01*
X44076Y1150D02*
X115574Y72648D01*
X49733Y1150D02*
X122464Y73881D01*
X53012Y64600D02*
X116462Y1150D01*
X50184Y64600D02*
X113634Y1150D01*
X55841Y64600D02*
X119291Y1150D01*
X1537D02*
X303801D01*
X47355Y64600D02*
X110805Y1150D01*
X41699Y64600D02*
X105149Y1150D01*
X41248D02*
X104698Y64600D01*
X44527D02*
X107977Y1150D01*
X31266Y69376D02*
X99492Y1150D01*
X38363Y65107D02*
X102320Y1150D01*
X38420D02*
X101870Y64600D01*
X35591Y1150D02*
X99041Y64600D01*
X75189Y1150D02*
X107462Y33422D01*
X29934Y1150D02*
X93384Y64600D01*
X32763Y1150D02*
X96213Y64600D01*
X65731Y105622D02*
X87453Y83900D01*
X63532Y104992D02*
X84624Y83900D01*
X67751Y106430D02*
X90281Y83900D01*
X60704Y102163D02*
X78967Y83900D01*
X59290Y100749D02*
X76139Y83900D01*
X62118Y103578D02*
X81796Y83900D01*
X69386Y79339D02*
X79825Y68900D01*
X68603Y77294D02*
X76997Y68900D01*
X69400D02*
X80100Y79600D01*
X57876Y99335D02*
X73310Y83900D01*
X67059Y76009D02*
X74168Y68900D01*
X56461Y97921D02*
X70482Y83900D01*
X55047Y96507D02*
X67654Y83900D01*
X53633Y95092D02*
X64840Y83886D01*
X52219Y93678D02*
X62794Y83103D01*
X50804Y92264D02*
X61509Y81559D01*
X49390Y90850D02*
X61146Y79094D01*
X40905Y82364D02*
X54369Y68900D01*
X71953Y79600D02*
X82653Y68900D01*
X69400D02*
X80100Y79600D01*
X72228Y68900D02*
X82928Y79600D01*
X63743Y68900D02*
X74443Y79600D01*
X60915Y68900D02*
X71615Y79600D01*
X66572Y68900D02*
X77272Y79600D01*
X77885Y68900D02*
X88585Y79600D01*
X77610D02*
X88310Y68900D01*
X80439Y79600D02*
X91139Y68900D01*
X74782Y79600D02*
X85482Y68900D01*
X75057D02*
X85757Y79600D01*
X46562Y88021D02*
X65683Y68900D01*
X45148Y86607D02*
X62854Y68900D01*
X47976Y89435D02*
X68511Y68900D01*
X42319Y83779D02*
X57198Y68900D01*
X43733Y85193D02*
X60026Y68900D01*
X58086D02*
X64804Y75618D01*
X55258Y68900D02*
X62772Y76414D01*
X64594Y75646D02*
X71340Y68900D01*
X49601D02*
X61154Y80453D01*
X52429Y68900D02*
X61496Y77967D01*
X37859Y85400D02*
X61215Y108755D01*
X37817Y85400D02*
X61207Y108790D01*
X40270Y81730D02*
X64255Y105715D01*
X1150Y124948D02*
X39279Y86819D01*
X37603Y85667D02*
X37864Y85405D01*
X37603Y85400D02*
Y87603D01*
Y79529D02*
X39227Y81154D01*
X37603Y81100D02*
X38750D01*
X36971Y78897D02*
X37603Y79529D01*
X28897Y78897D02*
Y87603D01*
X1150Y107977D02*
X28897Y80230D01*
X37603Y78897D02*
Y81100D01*
X1150Y113634D02*
X28897Y85887D01*
X1150Y110805D02*
X28897Y83058D01*
X33058Y78897D02*
X34552Y77403D01*
X32827Y77582D02*
X34142Y78897D01*
X35210Y77136D02*
X36971Y78897D01*
X28897D02*
X37603D01*
X30230D02*
X31780Y77347D01*
X36746Y75844D02*
X66793Y105891D01*
X39276Y81165D02*
X51541Y68900D01*
X1150Y91006D02*
X91006Y1150D01*
X1150Y85350D02*
X85350Y1150D01*
X1150Y82521D02*
X82521Y1150D01*
X1150Y88178D02*
X88178Y1150D01*
X35887Y78897D02*
X45884Y68900D01*
X37403Y74552D02*
X43055Y68900D01*
X37603Y80010D02*
X48712Y68900D01*
X1150Y79693D02*
X79693Y1150D01*
X1150Y76864D02*
X76864Y1150D01*
X1150Y99492D02*
X29376Y71266D01*
X1150Y102320D02*
X29056Y74414D01*
X1150Y57219D02*
X28897Y84966D01*
X1150Y105149D02*
X30073Y76226D01*
X1150Y1537D02*
Y247350D01*
Y48733D02*
X31314Y78897D01*
X1150Y54390D02*
X28897Y82137D01*
X1150Y51562D02*
X28897Y79309D01*
X29059Y31388D02*
X62272Y64600D01*
X27239Y32396D02*
X59443Y64600D01*
X30569Y30069D02*
X65100Y64600D01*
X25041Y33026D02*
X56615Y64600D01*
X22256Y33070D02*
X53786Y64600D01*
X16864Y30506D02*
X50958Y64600D01*
X33128Y24143D02*
X73585Y64600D01*
X32668Y26511D02*
X70757Y64600D01*
X32823Y21009D02*
X76414Y64600D01*
X30569Y30069D02*
X65100Y64600D01*
X31782Y28453D02*
X67928Y64600D01*
X37446Y72094D02*
X40641Y68900D01*
X34406Y69054D02*
X38230Y65230D01*
X1150Y40248D02*
X30656Y69754D01*
X24277Y1150D02*
X87727Y64600D01*
X21449Y1150D02*
X84899Y64600D01*
X27106Y1150D02*
X90556Y64600D01*
X15792Y1150D02*
X79242Y64600D01*
X1150Y71207D02*
X71207Y1150D01*
X18621D02*
X82071Y64600D01*
X32996Y25220D02*
X57065Y1150D01*
X32511Y20047D02*
X51408Y1150D01*
X33076Y22310D02*
X54237Y1150D01*
X30274Y16627D02*
X45752Y1150D01*
X31551Y18179D02*
X48580Y1150D01*
X26809Y14435D02*
X40095Y1150D01*
X4478D02*
X18547Y15218D01*
X28701Y15372D02*
X42923Y1150D01*
X1650D02*
X16931Y16431D01*
X1650Y1150D02*
X16931Y16431D01*
X21536Y14052D02*
X34438Y1150D01*
X12964D02*
X25991Y14177D01*
X24513Y13903D02*
X37266Y1150D01*
X7307D02*
X20489Y14332D01*
X10135Y1150D02*
X22857Y13871D01*
X1150Y31763D02*
X36423Y67036D01*
X1150Y34591D02*
X35009Y68450D01*
X1150Y28934D02*
X37838Y65622D01*
X1150Y43076D02*
X29364Y71290D01*
X1150Y45905D02*
X28918Y73673D01*
X1150Y37420D02*
X32667Y68937D01*
X1150Y23277D02*
X42473Y64600D01*
X1150Y57065D02*
X25220Y32996D01*
X1150Y17621D02*
X48129Y64600D01*
X1150Y26106D02*
X39647Y64603D01*
X1150Y20449D02*
X45301Y64600D01*
X1150Y48580D02*
X18179Y31551D01*
X1150Y45752D02*
X16627Y30274D01*
X1150Y42923D02*
X15372Y28701D01*
X1150Y54237D02*
X22310Y33076D01*
X1150Y51408D02*
X20047Y32511D01*
X1150Y14792D02*
X16494Y30136D01*
X1150Y34438D02*
X14052Y21536D01*
X1150Y11964D02*
X13930Y24744D01*
X1150Y40095D02*
X14435Y26809D01*
X1150Y37266D02*
X13903Y24513D01*
X1150Y65551D02*
X65551Y1150D01*
X1150Y62722D02*
X62722Y1150D01*
X1150Y59894D02*
X59894Y1150D01*
X1150Y74036D02*
X74036Y1150D01*
X1150Y68379D02*
X68379Y1150D01*
X1150Y25953D02*
X25953Y1150D01*
X1150Y23124D02*
X23124Y1150D01*
X1150Y20296D02*
X20296Y1150D01*
X1150Y31609D02*
X31609Y1150D01*
X1150Y28781D02*
X28781Y1150D01*
X1150Y17467D02*
X17467Y1150D01*
X1150Y3478D02*
X15612Y17941D01*
X1150Y14639D02*
X14639Y1150D01*
X1150Y9135D02*
X13974Y21959D01*
X1150Y6307D02*
X14604Y19761D01*
X1150Y6154D02*
X6154Y1150D01*
X1150Y3325D02*
X3325Y1150D01*
X1150Y1537D02*
X1537Y1150D01*
X1150Y11811D02*
X11811Y1150D01*
X1150Y8982D02*
X8982Y1150D01*
D27*
X154000Y135500D02*
X193500D01*
X160250Y235750D02*
X184750Y211250D01*
X125250Y235750D02*
X160250D01*
X50250D02*
X105250D01*
X25000Y210500D02*
X50250Y235750D01*
X105250Y66750D02*
X115500Y77000D01*
X139750Y211250D02*
X154750D01*
X115250Y235750D02*
X139750Y211250D01*
X203329Y95671D02*
X238671D01*
X90000Y210500D02*
X115250Y235750D01*
X238671Y95671D02*
X248907Y105907D01*
X258750D01*
X65250Y79750D02*
X67250Y81750D01*
X120750D02*
X125500Y77000D01*
Y107000D02*
X154000Y135500D01*
X39750Y66750D02*
X105250D01*
X33250Y73250D02*
X39750Y66750D01*
X193500Y105500D02*
X203329Y95671D01*
X55000Y210500D02*
X90000D01*
X131750Y166250D02*
X153750D01*
X127250Y170750D02*
X131750Y166250D01*
X38750Y83250D02*
X65250Y109750D01*
X33250Y83250D02*
X38750D01*
X67250Y81750D02*
X120750D01*
D28*
X154750Y211250D02*
D03*
X25000Y210500D02*
D03*
X97250Y170750D02*
D03*
X127250D02*
D03*
X183750Y166250D02*
D03*
X153750D02*
D03*
X193500Y135500D02*
D03*
Y105500D02*
D03*
X140750Y35250D02*
D03*
X110750D02*
D03*
D29*
X184750Y211250D02*
D03*
X55000Y210500D02*
D03*
D30*
X105250Y235750D02*
D03*
X115250D02*
D03*
X105500Y107000D02*
D03*
X115500D02*
D03*
X125500D02*
D03*
X135500D02*
D03*
X105500Y77000D02*
D03*
X115500D02*
D03*
X125500D02*
D03*
X33250Y73250D02*
D03*
X238671Y95671D02*
D03*
D31*
X125250Y235750D02*
D03*
X238671Y85829D02*
D03*
D32*
X135500Y77000D02*
D03*
X33250Y83250D02*
D03*
D33*
X37000Y145000D02*
D03*
X301000Y219500D02*
D03*
X23500Y23500D02*
D03*
X282500Y15000D02*
D03*
D34*
X108000Y137500D02*
D03*
X138000D02*
D03*
X65250Y79750D02*
D03*
Y109750D02*
D03*
D35*
X258750Y65750D02*
D03*
Y105907D02*
D03*
D36*
X147500Y143500D02*
D03*
M02*
