G04*
G04 #@! TF.GenerationSoftware,Altium Limited,Altium Designer,20.0.9 (164)*
G04*
G04 Layer_Color=65535*
%FSLAX25Y25*%
%MOIN*%
G70*
G01*
G75*
%ADD10C,0.00787*%
%ADD11C,0.00098*%
%ADD12C,0.00098*%
%ADD13C,0.01000*%
%ADD14C,0.00591*%
D10*
X199750Y211250D02*
G03*
X199750Y211250I-30000J0D01*
G01*
X70000Y210500D02*
G03*
X70000Y210500I-30000J0D01*
G01*
X103583Y245750D02*
Y259083D01*
X105250Y260750D01*
X106917Y259083D01*
Y245750D02*
Y259083D01*
X113583Y245750D02*
Y259083D01*
X115250Y260750D01*
X116917Y259083D01*
Y245750D02*
Y259083D01*
X123583Y245750D02*
Y259083D01*
X125250Y260750D01*
X126917Y259083D01*
Y245750D02*
Y259083D01*
X100250Y240750D02*
X130250D01*
Y245750D01*
X100250Y240750D02*
Y245750D01*
X130250D01*
X89750Y163250D02*
Y178250D01*
X134750D01*
Y163250D02*
Y178250D01*
X89750Y163250D02*
X134750D01*
X191250Y158750D02*
Y173750D01*
X146250Y158750D02*
X191250D01*
X146250D02*
Y173750D01*
X191250D01*
X113000Y134500D02*
Y137500D01*
Y134500D02*
X133000D01*
Y140500D01*
X113000D02*
X133000D01*
X113000Y137500D02*
Y140500D01*
X133000Y137500D02*
X133900D01*
X112100D02*
X113000D01*
X186000Y143000D02*
X201000D01*
Y98000D02*
Y143000D01*
X186000Y98000D02*
X201000D01*
X186000D02*
Y143000D01*
X28250Y68250D02*
X38250D01*
X28250D02*
Y88250D01*
X38250D01*
Y68250D02*
Y88250D01*
X65250Y84750D02*
X68250D01*
Y104750D01*
X62250D02*
X68250D01*
X62250Y84750D02*
Y104750D01*
Y84750D02*
X65250D01*
Y104750D02*
Y105650D01*
Y83850D02*
Y84750D01*
X231191Y56695D02*
Y114963D01*
X286703D01*
Y110435D02*
Y114963D01*
Y110435D02*
X321742D01*
Y104726D02*
Y110435D01*
Y104726D02*
X368593D01*
Y66931D02*
Y104726D01*
X321742Y66931D02*
X368593D01*
X321742Y61222D02*
Y66931D01*
X286703Y61222D02*
X321742D01*
X286703Y56695D02*
Y61222D01*
X231191Y56695D02*
X286703D01*
Y61222D02*
Y110435D01*
X321742Y66931D02*
Y104726D01*
X212510Y87128D02*
X214085D01*
X212510Y84372D02*
X214085D01*
X148250Y27750D02*
Y42750D01*
X103250Y27750D02*
X148250D01*
X103250D02*
Y42750D01*
X148250D01*
D11*
X356388Y85829D02*
G03*
X356388Y85829I-3937J0D01*
G01*
X317805Y110435D02*
X321742Y61222D01*
X313868Y110435D02*
X317805Y61222D01*
X309931Y110435D02*
X313868Y61222D01*
X305994Y110435D02*
X309931Y61222D01*
X302057Y110435D02*
X305994Y61222D01*
X298120Y110435D02*
X302057Y61222D01*
X294183Y110435D02*
X298120Y61222D01*
X290246Y110435D02*
X294183Y61222D01*
X281978Y62600D02*
Y109057D01*
D12*
X250482Y62600D02*
X281978D01*
X250482D02*
Y109057D01*
X281978D01*
X286703Y110435D02*
Y114963D01*
X231191D02*
X286703D01*
X231191Y56695D02*
Y114963D01*
Y56695D02*
X286703D01*
Y61222D01*
X321742Y104726D02*
Y110435D01*
X286703D02*
X321742D01*
X286703Y61222D02*
Y110435D01*
Y61222D02*
X321742D01*
Y66931D01*
X368593D01*
X321742D02*
Y104726D01*
X368593D01*
Y66931D02*
Y104726D01*
D13*
X143000Y244999D02*
X142000Y245999D01*
X140001D01*
X139001Y244999D01*
Y241001D01*
X140001Y240001D01*
X142000D01*
X143000Y241001D01*
X144999Y240001D02*
X146999D01*
X145999D01*
Y245999D01*
X144999Y244999D01*
X113001Y218501D02*
Y224499D01*
X116000D01*
X117000Y223499D01*
Y221500D01*
X116000Y220500D01*
X113001D01*
X118999Y218501D02*
X120999D01*
X119999D01*
Y224499D01*
X118999Y223499D01*
X14000Y243499D02*
X13001Y244499D01*
X11001D01*
X10002Y243499D01*
Y239501D01*
X11001Y238501D01*
X13001D01*
X14000Y239501D01*
X16000Y243499D02*
X16999Y244499D01*
X18999D01*
X19998Y243499D01*
Y242500D01*
X18999Y241500D01*
X17999D01*
X18999D01*
X19998Y240500D01*
Y239501D01*
X18999Y238501D01*
X16999D01*
X16000Y239501D01*
X227999Y185497D02*
X225999D01*
X226999D01*
Y180499D01*
X225999Y179499D01*
X225000D01*
X224000Y180499D01*
X230998Y179499D02*
X232997D01*
X233997Y180499D01*
Y182498D01*
X232997Y183498D01*
X230998D01*
X229998Y182498D01*
Y180499D01*
X230998Y179499D01*
X235996Y185497D02*
Y179499D01*
Y182498D01*
X236996Y183498D01*
X238995D01*
X239995Y182498D01*
Y179499D01*
X241994D02*
Y183498D01*
X244993D01*
X245993Y182498D01*
Y179499D01*
X247992D02*
Y183498D01*
X250991D01*
X251991Y182498D01*
Y179499D01*
X253990Y183498D02*
Y180499D01*
X254990Y179499D01*
X257989D01*
Y178500D01*
X256989Y177500D01*
X255990D01*
X257989Y179499D02*
Y183498D01*
X260988Y186497D02*
Y184498D01*
X259988Y183498D01*
X263987Y179499D02*
X266986D01*
X267986Y180499D01*
X266986Y181499D01*
X264987D01*
X263987Y182498D01*
X264987Y183498D01*
X267986D01*
X275983Y185497D02*
Y179499D01*
X278982D01*
X279982Y180499D01*
Y181499D01*
Y182498D01*
X278982Y183498D01*
X275983D01*
X282981Y179499D02*
X284980D01*
X285980Y180499D01*
Y182498D01*
X284980Y183498D01*
X282981D01*
X281981Y182498D01*
Y180499D01*
X282981Y179499D01*
X288979Y183498D02*
X290978D01*
X291978Y182498D01*
Y179499D01*
X288979D01*
X287979Y180499D01*
X288979Y181499D01*
X291978D01*
X293977Y183498D02*
Y179499D01*
Y181499D01*
X294977Y182498D01*
X295977Y183498D01*
X296976D01*
X303974Y185497D02*
Y179499D01*
X300975D01*
X299975Y180499D01*
Y182498D01*
X300975Y183498D01*
X303974D01*
X274850Y32648D02*
Y26650D01*
Y29649D01*
X278849D01*
Y32648D01*
Y26650D01*
X283847D02*
Y32648D01*
X280848Y29649D01*
X284847D01*
X15850Y41148D02*
Y35150D01*
Y38149D01*
X19849D01*
Y41148D01*
Y35150D01*
X21848Y40148D02*
X22848Y41148D01*
X24847D01*
X25847Y40148D01*
Y39149D01*
X24847Y38149D01*
X23847D01*
X24847D01*
X25847Y37149D01*
Y36150D01*
X24847Y35150D01*
X22848D01*
X21848Y36150D01*
X29350Y162648D02*
Y156650D01*
Y159649D01*
X33349D01*
Y162648D01*
Y156650D01*
X39347D02*
X35348D01*
X39347Y160649D01*
Y161648D01*
X38347Y162648D01*
X36348D01*
X35348Y161648D01*
X293350Y237148D02*
Y231150D01*
Y234149D01*
X297349D01*
Y237148D01*
Y231150D01*
X299348D02*
X301347D01*
X300348D01*
Y237148D01*
X299348Y236148D01*
X209347Y91100D02*
Y97098D01*
X212346D01*
X213346Y96098D01*
Y94099D01*
X212346Y93099D01*
X209347D01*
X211347D02*
X213346Y91100D01*
X215345Y96098D02*
X216345Y97098D01*
X218344D01*
X219344Y96098D01*
Y95099D01*
X218344Y94099D01*
X217345D01*
X218344D01*
X219344Y93099D01*
Y92100D01*
X218344Y91100D01*
X216345D01*
X215345Y92100D01*
X62850Y115950D02*
Y121948D01*
X65849D01*
X66849Y120948D01*
Y118949D01*
X65849Y117949D01*
X62850D01*
X64849D02*
X66849Y115950D01*
X72847D02*
X68848D01*
X72847Y119949D01*
Y120948D01*
X71847Y121948D01*
X69848D01*
X68848Y120948D01*
X105800Y143900D02*
Y149898D01*
X108799D01*
X109799Y148898D01*
Y146899D01*
X108799Y145899D01*
X105800D01*
X107799D02*
X109799Y143900D01*
X111798D02*
X113797D01*
X112798D01*
Y149898D01*
X111798Y148898D01*
X231834Y118350D02*
Y124348D01*
X234833D01*
X235832Y123348D01*
Y121349D01*
X234833Y120349D01*
X231834D01*
X237831Y123348D02*
X238831Y124348D01*
X240831D01*
X241830Y123348D01*
Y122349D01*
X240831Y121349D01*
X239831D01*
X240831D01*
X241830Y120349D01*
Y119350D01*
X240831Y118350D01*
X238831D01*
X237831Y119350D01*
X28850Y91650D02*
Y97648D01*
X31849D01*
X32849Y96648D01*
Y94649D01*
X31849Y93649D01*
X28850D01*
X38847Y91650D02*
X34848D01*
X38847Y95649D01*
Y96648D01*
X37847Y97648D01*
X35848D01*
X34848Y96648D01*
X28850Y64848D02*
X30849D01*
X29850D01*
Y58850D01*
X28850D01*
X30849D01*
X33848D02*
Y62849D01*
X36847D01*
X37847Y61849D01*
Y58850D01*
X39846Y56851D02*
Y62849D01*
X42845D01*
X43845Y61849D01*
Y59850D01*
X42845Y58850D01*
X39846D01*
X45845Y62849D02*
Y59850D01*
X46844Y58850D01*
X49843D01*
Y62849D01*
X52842Y63848D02*
Y62849D01*
X51843D01*
X53842D01*
X52842D01*
Y59850D01*
X53842Y58850D01*
X107849Y51148D02*
X106849Y52148D01*
X104850D01*
X103850Y51148D01*
Y47150D01*
X104850Y46150D01*
X106849D01*
X107849Y47150D01*
X113847Y52148D02*
X111847Y51148D01*
X109848Y49149D01*
Y47150D01*
X110848Y46150D01*
X112847D01*
X113847Y47150D01*
Y48149D01*
X112847Y49149D01*
X109848D01*
X190649Y151348D02*
X189649Y152348D01*
X187650D01*
X186650Y151348D01*
Y147350D01*
X187650Y146350D01*
X189649D01*
X190649Y147350D01*
X196647Y152348D02*
X192648D01*
Y149349D01*
X194647Y150349D01*
X195647D01*
X196647Y149349D01*
Y147350D01*
X195647Y146350D01*
X193648D01*
X192648Y147350D01*
X94349Y186648D02*
X93349Y187648D01*
X91350D01*
X90350Y186648D01*
Y182650D01*
X91350Y181650D01*
X93349D01*
X94349Y182650D01*
X99347Y181650D02*
Y187648D01*
X96348Y184649D01*
X100347D01*
X150849Y182148D02*
X149849Y183148D01*
X147850D01*
X146850Y182148D01*
Y178150D01*
X147850Y177150D01*
X149849D01*
X150849Y178150D01*
X156847Y177150D02*
X152848D01*
X156847Y181149D01*
Y182148D01*
X155847Y183148D01*
X153848D01*
X152848Y182148D01*
D14*
X201765Y211301D02*
X205701D01*
X203733Y213269D02*
Y209333D01*
X72015Y210551D02*
X75951D01*
X73983Y212519D02*
Y208583D01*
M02*
