M48
;Layer_Color=9474304
;FILE_FORMAT=2:5
INCH,LZ
;TYPE=PLATED
T1F00S00C0.02756
T2F00S00C0.02800
T3F00S00C0.03346
T4F00S00C0.03543
T5F00S00C0.07874
T6F00S00C0.11811
%
T01
X011075Y003525
X014075
X01935Y01055
Y01355
X018375Y016625
X015375
X012725Y017075
X009725
X0055Y02105
X0025
X015475Y021125
X018475
T02
X01475Y01435
T03
X006525Y007975
Y010975
X0108Y01375
X0138
T04
X0238671Y0085829
Y0095671
X01355Y0107
X01255
X01155
X01055
Y0077
X01155
X01255
X01355
X003325Y007325
Y008325
X010525Y023575
X011525
X012525
T05
X025875Y006575
Y0105907
T06
X00235Y00235
X02825Y0015
X0037Y0145
X0301Y02195
M30
